<?xml version="1.0" encoding="UTF-8" standalone="no"?>
<!-- Created with Inkscape (http://www.inkscape.org/) -->

<svg
   width="1023.9999"
   height="1023.9999"
   viewBox="0 0 270.93333 270.93333"
   version="1.1"
   id="svg1"
   xml:space="preserve"
   xmlns="http://www.w3.org/2000/svg"
   xmlns:svg="http://www.w3.org/2000/svg"><defs
     id="defs1" /><g
     id="layer1"><g
       id="g6"
       transform="matrix(0.71882009,0,0,0.71882009,-548.12821,-574.22975)"><ellipse
         style="opacity:1;fill:#ffffff;fill-opacity:1;stroke:none;stroke-width:8.35811;stroke-linecap:round;stroke-linejoin:round"
         id="path3-4-6-2-1"
         cx="950.99579"
         cy="987.30743"
         rx="188.45697"
         ry="188.45699" /><path
         id="path4"
         style="fill:#000000;fill-opacity:0.759219;stroke-width:1.17753"
         d="m 950.99682,812.3838 c -96.03618,0 -173.72786,78.15139 -173.72786,174.92365 0,96.77215 77.69168,174.92365 173.72786,174.92365 96.03618,0 173.72578,-78.1515 173.72578,-174.92365 0,-96.77226 -77.6896,-174.92365 -173.72578,-174.92365 z m 2.62044,12.08877 c 4.79235,0.0745 9.53954,0.40129 15.09414,0.99272 24.39268,2.59714 49.3386,11.74855 70.3786,25.81799 10.5824,7.07653 17.2923,12.62234 25.6427,21.194 13.1543,13.50265 22.832,27.2357 30.9682,43.94494 4.2656,8.76015 8.304,19.36859 10.2111,26.82416 2.2033,8.61287 3.1324,12.73185 3.7159,16.47046 0.9677,6.20036 1.4366,9.1103 1.5801,9.8043 0.2361,1.14146 -0.3511,0.81665 -1.5705,-0.86757 -1.2481,-1.724 -2.592,-2.62614 -5.8597,-3.93403 -1.1827,-0.47343 -2.9467,-1.33398 -3.9197,-1.91225 -0.9731,-0.57818 -1.9921,-1.051 -2.2647,-1.051 -0.2726,0 -1.3488,0.35131 -2.3916,0.78096 -2.5607,1.05512 -5.9442,1.72873 -8.6839,1.72873 -1.5411,0 -2.4826,0.15473 -2.9468,0.48451 -3.7924,2.69351 -7.0589,3.86964 -19.531,7.03265 -1.4272,0.36185 -3.0284,0.96084 -3.5582,1.33077 -0.5298,0.36982 -5.5578,5.35214 -11.1734,11.07244 -8.6086,8.76938 -15.7465,15.40042 -19.2775,17.90825 -0.6408,0.4549 -0.6976,0.4357 -0.9885,-0.3401 -0.1697,-0.4527 -0.3086,-1.0254 -0.3086,-1.273 0,-1.02816 -1.487,-0.3651 -3.9186,1.7474 h -6e-4 c -1.3894,1.207 -2.5725,2.1855 -2.6295,2.1855 -0.1482,-0.012 -4.4287,-5.3287 -6.1946,-7.6942 -3.6552,-4.89589 -9.0254,-14.97792 -10.7733,-20.2253 -0.603,-1.81031 -1.0888,-4.08328 -1.2682,-5.93456 -0.5119,-5.28094 -0.894,-7.00462 -2.1311,-9.60901 -0.947,-1.99381 -1.6814,-2.99139 -3.46391,-4.70585 -4.22254,-4.06154 -7.85823,-5.25465 -15.77506,-5.17598 -3.87363,0.0383 -5.08794,-0.056 -6.03305,-0.46432 l -1.18319,-0.51132 0.73334,-0.50707 c 0.40338,-0.27873 1.48708,-0.81727 2.40863,-1.19704 5.31974,-2.19244 10.09875,-7.7875 11.38787,-13.3329 0.25658,-1.10378 0.46667,-3.20709 0.46695,-4.67376 5.1e-4,-2.566 -0.20473,-3.79646 -2.01494,-12.07864 -0.77305,-3.53677 -0.81242,-4.10645 -0.65524,-9.41171 0.17406,-5.8737 0.55312,-8.38711 1.87105,-12.39256 2.34394,-7.12196 2.34692,-12.54761 0.0117,-20.82862 -1.46519,-5.19586 -4.15337,-9.43936 -8.02126,-12.6622 -3.39051,-2.82496 -6.22407,-4.16245 -12.1212,-5.72206 -5.00598,-1.32394 -8.23259,-1.6831 -13.2493,-1.47464 -9.87403,0.41029 -17.64302,3.81591 -25.18543,11.04037 -2.26976,2.17402 -4.62035,5.1942 -8.30688,10.67344 -2.16861,3.22325 -5.74758,6.96558 -8.17369,8.54631 -4.14902,2.70335 -9.47171,4.57834 -14.64377,5.15837 -2.72939,0.30608 -3.71348,0.26239 -8.35342,-0.36961 -2.89287,-0.39404 -5.9562,-0.82928 -6.80705,-0.96705 -0.85083,-0.13777 -3.29566,-0.26072 -5.43291,-0.27336 -4.6879,-0.0279 -7.85942,0.676 -11.58363,2.569 -4.23583,2.15311 -7.11728,4.8075 -10.99151,10.12527 -2.75909,3.78716 -5.30846,5.56713 -8.67169,6.05423 l -1.99461,0.28887 1.95342,0.0383 c 3.03294,0.0601 4.69322,-0.9239 9.49435,-5.62633 5.97509,-5.85238 8.46471,-7.44377 13.77403,-8.80518 4.20229,-1.07759 7.42344,-0.76345 16.54637,1.61313 6.5793,1.71405 7.86649,1.95294 11.2932,2.10002 3.61626,0.15514 6.61933,-0.16696 9.87144,-1.05906 1.19561,-0.32812 0.49362,0.4344 -1.06123,1.15263 -3.77693,1.74467 -8.14208,2.89555 -14.84327,3.91259 -5.97123,0.9063 -9.9999,2.21252 -13.92272,4.51438 -2.61293,1.53322 -4.17549,2.77931 -7.84795,6.25812 -5.64291,5.3452 -8.56992,6.81156 -13.5007,6.76291 -3.73956,-0.0362 -5.87969,-0.73582 -12.71815,-4.15221 -3.08131,-1.53943 -6.68029,-3.17616 -7.99772,-3.63717 -4.50806,-1.57783 -10.12319,-1.90646 -16.257,-0.95214 -3.12136,0.48565 -9.71006,3.40086 -13.21988,5.84948 -0.75075,0.52374 -1.43699,0.8796 -1.52497,0.79057 -0.32524,-0.32976 4.8807,-10.4099 7.56285,-14.64389 10.67216,-16.847 19.98577,-27.90517 33.33024,-39.57402 6.13968,-5.3687 16.95738,-13.0819 24.12902,-17.20481 3.97617,-2.28581 13.22124,-6.89457 17.87345,-8.90941 4.95202,-2.14483 17.14958,-6.25678 22.34782,-7.53433 2.5525,-0.62725 5.12832,-1.27602 5.72389,-1.44153 3.49161,-0.97005 15.11931,-2.6816 21.20956,-3.12201 5.7353,-0.41475 10.57298,-0.59123 15.36534,-0.51619 z m 22.98755,46.66754 c 0.24704,0.0144 0.44272,0.11571 0.58357,0.30274 0.18726,0.24851 1.18849,1.10824 2.22462,1.9105 3.07631,2.38207 4.36302,4.11432 5.23232,7.04332 0.5579,1.87964 1.15602,7.66123 1.02967,9.95138 -0.10103,1.83152 -0.11055,1.84892 -1.11632,1.95925 -1.59309,0.17493 -3.26297,1.19848 -4.82153,2.9563 -1.25189,1.41193 -1.43458,1.79603 -1.43458,3.0119 0,1.69045 0.60181,2.96159 1.67902,3.54619 0.89567,0.48606 2.52142,0.5816 3.34845,0.19687 0.48978,-0.22782 0.5413,-0.0259 0.5413,2.1143 0,2.90787 -0.21041,3.4876 -2.37707,6.53893 -0.94726,1.33408 -2.01818,3.29674 -2.37973,4.36139 -0.36154,1.06455 -0.79214,1.95303 -0.95692,1.97581 -0.16477,0.0228 -0.4141,-0.54682 -0.55415,-1.26494 -0.32124,-1.64717 -0.85719,-2.09566 -2.48886,-2.08335 -1.23393,0.0103 -2.91108,0.67548 -6.02396,2.39191 l -1.32226,0.72908 1.88871,1.61965 c 2.61314,2.24088 6.78885,3.45883 6.78885,1.98057 0,-0.83788 0.87851,-2.86161 1.24203,-2.86161 0.46356,0 0.37483,0.45533 -0.44076,2.26583 -0.41022,0.91054 -1.12416,2.89546 -1.58648,4.41056 -0.52761,1.72916 -1.1601,3.10152 -1.69882,3.68634 h 10e-4 c -0.56972,0.61833 -1.15439,0.93413 -1.73947,0.92377 -2.30309,-0.0207 -9.695,-3.42187 -16.19655,-7.45143 -3.79859,-2.35422 -5.64589,-4.05304 -6.17481,-5.67818 -0.33552,-1.03092 -0.28598,-1.48085 0.42204,-3.83455 1.36862,-4.54987 1.72879,-5.02279 3.22005,-4.22767 0.93712,0.49963 3.01742,2.64486 4.05288,4.17954 1.14427,1.69758 1.37578,1.32466 1.13986,-1.84425 -0.27652,-3.71428 -0.80656,-4.71776 -3.85283,-7.29411 -2.72795,-2.30724 -4.12615,-3.81437 -4.84239,-5.21883 -0.43251,-0.84605 -0.43228,-1.02895 0.005,-1.88596 0.26623,-0.52209 1.64748,-2.27639 3.06921,-3.89873 3.90198,-4.45247 4.03144,-4.65214 6.61823,-10.21139 0.99533,-2.13894 3.15514,-4.97032 4.61185,-6.04625 2.38465,-1.76114 3.99513,-2.44262 7.63559,-3.22906 1.88757,-0.4077 3.76596,-0.8391 4.17431,-0.95845 0.18425,-0.0538 0.35083,-0.0755 0.49905,-0.0673 z m -11.78476,16.92452 c -2.02378,-0.0103 -4.04524,0.78032 -5.60192,2.35888 -0.73472,0.74493 -1.33563,1.59294 -1.33563,1.8843 0,0.94335 1.47655,3.11717 2.6873,3.95597 0.64886,0.44963 1.94553,1.05389 2.88146,1.34257 0.93591,0.28867 1.84104,0.57849 2.01119,0.64452 v 5.2e-4 c 0.17019,0.0663 1.31258,0.0735 2.53861,0.0165 1.85404,-0.0858 2.41373,-0.2454 3.32597,-0.95099 0.9087,-0.7028 1.09593,-1.04759 1.09491,-2.00893 -0.003,-2.00955 -0.58507,-3.43182 -1.98658,-4.85295 -1.5654,-1.58734 -3.59152,-2.38465 -5.61531,-2.39044 z m 10.18703,19.24335 c -0.84125,0 -1.96412,0.55561 -1.96412,1.15263 0,0.3811 0.56999,0.33732 1.94807,-0.14926 0.99898,-0.35274 1.106,-0.47342 0.71142,-0.80547 -0.16578,-0.13952 -0.41494,-0.19904 -0.69537,-0.1979 z m 2.64933,0.42198 c -0.0396,8.3e-4 -0.0819,0 -0.1273,0.0124 -0.84565,0.14304 -1.03908,0.37935 -1.27037,1.55216 h -5.4e-4 c -0.24527,1.24352 0.47838,1.40788 1.21046,0.27491 0.71411,-1.10502 0.78105,-1.8516 0.18775,-1.8394 z M 819.20618,918.864 c 0.837,-0.0786 1.72189,-0.0673 3.00609,0 5.50551,0.28961 9.4726,2.241 16.39822,8.06802 6.01878,5.06408 9.60569,6.86177 15.08397,7.55835 2.56639,0.32635 7.07579,-0.0144 8.75459,-0.66212 0.43934,-0.16934 1.01554,-0.30763 1.28054,-0.30763 0.40377,0 0.41606,0.0797 0.0765,0.49476 -0.63659,0.77785 -3.17994,1.9724 -6.75195,3.1713 -2.74941,0.92274 -3.81159,1.11858 -6.53211,1.20138 -3.38061,0.10351 -3.89235,0.0642 -6.9611,-0.5167 -2.41769,-0.458 -4.6179,-1.17405 -8.04425,-2.61878 -3.97184,-1.67471 -6.76309,-2.58939 -10.58339,-3.46815 -8.87122,-2.04049 -19.17799,-0.0735 -25.09129,4.78929 -0.73254,0.6024 -1.40817,1.01849 -1.50091,0.92431 -0.1779,-0.18042 0.31296,-1.92572 0.98581,-3.50666 0.22031,-0.51773 0.7847,-1.85936 1.25432,-2.98084 1.15758,-2.76472 1.87898,-3.6885 4.63111,-5.93342 2.79618,-2.28095 7.57652,-4.6862 11.2766,-5.67395 1.09157,-0.29137 1.88025,-0.46028 2.71726,-0.53916 z m 164.74913,6.58479 c 0.007,-5.2e-4 0.0154,6.2e-4 0.023,0 0.43528,0.14708 0.71978,1.32218 1.10508,4.56633 0.25767,2.16947 0.23245,3.10794 -0.12517,4.65121 -0.95927,4.13979 -3.84051,7.84744 -8.34058,10.73285 -1.4384,0.92223 -2.33749,1.2257 -2.33749,0.78954 0,-0.10526 0.70082,-0.9687 1.55708,-1.91867 2.46367,-2.73348 5.8683,-7.90448 5.8683,-8.91262 0,-0.18351 0.20012,-0.77835 0.44451,-1.32217 0.72074,-1.6036 1.09059,-3.33338 1.30406,-6.09707 0.11782,-1.52546 0.31099,-2.47916 0.5012,-2.4926 z m -35.75438,1.23347 c 0.0215,-1e-4 0.0433,0 0.0659,0.0103 0.2621,0.0507 1.9008,1.78545 3.64155,3.85431 3.44532,4.09477 5.97234,6.63053 7.88968,7.9172 1.02293,0.68635 1.329,0.76263 1.81863,0.45253 0.85118,-0.53905 0.99725,-0.4666 0.78523,0.39001 -0.10383,0.41941 -0.0337,1.16039 0.15618,1.64687 0.18995,0.48647 0.44823,2.95135 0.57394,5.47708 0.21217,4.26253 0.30003,4.74632 1.22009,6.74004 1.37001,2.96862 2.61061,4.25167 2.46639,2.55025 -0.17486,-2.06306 -0.20502,-2.0436 2.4343,-1.5891 1.3188,0.22719 2.59059,0.48708 2.82638,0.5761 0.77909,0.29624 6.9225,1.09115 8.43205,1.09115 1.36479,0 1.54373,0.0921 2.26634,1.17085 0.43155,0.644 0.78469,1.54398 0.78469,1.99982 0,0.45594 0.20902,1.42899 0.46427,2.16253 0.87091,2.50296 0.4768,4.95541 -1.08368,6.74532 -0.96639,1.10844 -0.94558,1.79975 0.14924,4.98356 0.8608,2.50327 1.00028,3.22657 0.72316,3.75155 -0.49902,0.94552 -3.36678,4.59841 -3.60998,4.59841 -0.1137,0 -0.38063,-0.28235 -0.5932,-0.62745 -1.04918,-1.70359 -1.54035,-0.25348 -1.94808,5.75427 -0.28839,4.24939 -0.43875,5.6109 -1.10508,10.01287 -0.17638,1.16588 -0.54994,1.72615 -0.83658,1.25582 -0.0814,-0.13341 -0.51813,-1.65245 -0.97029,-3.37561 -0.93654,-3.56916 -2.73071,-7.66123 -4.32621,-9.86527 -1.02777,-1.41968 -4.45506,-4.55857 -4.70279,-4.30736 -0.0632,0.0642 0.24448,0.91178 0.6836,1.88441 1.48323,3.28515 2.51926,8.05311 1.74963,8.05311 -0.13519,0 -0.76144,-0.68542 -1.39126,-1.52277 -2.10637,-2.80085 -6.42987,-6.73094 -8.72785,-7.93335 -2.15411,-1.12727 -5.20363,-2.23126 -7.27079,-2.63214 -0.59559,-0.1155 -1.79658,-0.70156 -2.66911,-1.3024 -1.33604,-0.92005 -2.05464,-1.15894 -4.55195,-1.51262 -1.63093,-0.23092 -3.28375,-0.51804 -3.67311,-0.63811 -0.924,-0.28474 -2.7194,-1.6538 -2.7194,-2.07372 0,-0.21933 1.45791,-0.29075 4.33211,-0.21933 3.11128,0.0776 4.33118,0.0103 4.33103,-0.2509 -3.7e-4,-0.62952 -3.03626,-2.36436 -7.07182,-4.04093 -2.1515,-0.89378 -5.0253,-2.19111 -6.38662,-2.88304 -1.36135,-0.69193 -3.72863,-1.71828 -5.26014,-2.28074 -1.5315,-0.56233 -4.24629,-1.72107 -6.03305,-2.57488 -4.2016,-2.0079 -7.58141,-2.83853 -11.67939,-2.87061 -1.74419,-0.0134 -3.16972,-0.10144 -3.1687,-0.19418 0.004,-0.22906 4.19839,-2.88841 5.3869,-3.41525 2.86818,-1.27126 5.3104,-1.71342 9.92548,-1.79934 4.25623,-0.0786 4.88436,-0.16809 7.57996,-1.07613 7.205,-2.4271 12.08996,-6.59463 15.25674,-13.01567 0.5957,-1.20779 1.31654,-2.97266 1.60148,-3.9217 0.28492,-0.94904 0.62551,-2.00789 0.75687,-2.35298 0.13135,-0.34508 0.42484,-1.58569 0.65257,-2.75675 0.29415,-1.51242 0.50241,-2.04009 0.8248,-2.04215 z m -134.1875,7.07156 c 4.86874,-0.0517 6.16327,0.65054 2.16579,1.17469 -3.43776,0.45077 -7.52565,1.68444 -10.98349,3.31454 -2.25977,1.06528 -6.31166,3.6471 -7.65432,4.87705 -0.64077,0.58709 -1.30693,1.06703 -1.48006,1.06703 -0.73001,0 1.07434,-2.58721 3.13235,-4.4918 2.6168,-2.42181 4.62809,-3.56751 8.63209,-4.9166 2.49873,-0.8419 3.4259,-0.99593 6.18764,-1.02491 z m 136.27412,10.18895 -5.4e-4,5.1e-4 h -5.4e-4 l -5.2e-4,5.2e-4 -5.4e-4,5.2e-4 c -0.18928,0.19521 1.14501,8.67455 1.58756,10.08833 0.68626,2.19234 1.21116,2.87464 3.66883,4.77054 1.20227,0.92752 2.23576,1.69241 2.29683,1.69241 0.33868,0.0176 -0.47581,-1.95986 -1.72557,-4.18968 -2.00428,-3.57609 -4.20771,-8.15847 -5.03922,-10.47936 -0.37272,-1.04023 -0.71524,-1.8633 -0.78202,-1.88379 -2.6e-4,-1.1e-4 -10e-4,0 -0.002,0 h -5.3e-4 c -2.3e-4,0 -0.001,-1.1e-4 -0.002,0 z m -20.97796,13.38309 c -0.59528,-0.0155 -0.90152,0.0322 -0.7863,0.1594 0.4497,0.49641 7.59327,2.23694 11.72325,2.85633 2.85961,0.42892 5.26014,0.56958 5.26014,0.30854 0,-0.32438 -1.76505,-0.83218 -6.64552,-1.91319 -3.38225,-0.74926 -7.76577,-1.36471 -9.55157,-1.41108 z m -118.21453,0.72961 c 1.81775,-0.0466 3.68515,0.1268 5.56984,0.53595 4.64764,1.00907 8.23383,2.68264 12.13404,5.66276 2.71503,2.07445 3.91073,3.41142 6.88568,7.6985 3.99957,5.76347 8.34884,9.49659 13.34985,11.45873 3.12554,1.22634 7.48891,2.18282 9.99608,2.18282 4.17151,0.0103 11.34939,-1.73164 15.11393,-3.66014 0.82522,-0.42272 1.57993,-0.68832 1.67743,-0.58895 0.27351,0.27729 -4.81661,5.1853 -7.05845,6.80578 -9.48064,6.85264 -21.68952,8.38866 -32.88574,4.13781 -5.50885,-2.09163 -8.8026,-4.87871 -12.91606,-10.92754 -1.28969,-1.89642 -2.52558,-3.40708 -2.74615,-3.35636 -0.22057,0.0507 -0.66304,-0.14863 -0.98313,-0.44238 -0.90887,-0.83404 -0.96295,-0.34426 -0.0931,0.84408 0.43301,0.59163 1.62109,2.70687 2.6397,4.701 2.2635,4.43125 5.27417,8.56772 7.59334,10.4333 0.98446,0.79192 5.36929,3.24965 10.12767,5.6756 7.53401,3.84117 8.7877,4.37827 12.25973,5.25257 3.43604,0.8653 4.38531,0.9761 8.50855,0.9895 7.03284,0.024 11.41393,-1.0383 18.68166,-4.5288 4.07549,-1.95744 9.04487,-5.3168 11.7163,-7.92098 1.93569,-1.8869 1.95771,-1.7924 0.71408,3.02628 -2.24229,8.6884 -5.72617,17.3989 -9.00171,22.5061 -2.80823,4.3785 -7.47247,9.4122 -8.72143,9.4122 -0.98809,0 -0.48131,0.6246 1.31638,1.6229 0.9309,0.5171 2.31898,1.3285 3.08472,1.8036 0.76577,0.4751 2.3782,1.4439 3.58325,2.1524 1.20506,0.7085 2.38868,1.5375 2.63006,1.8421 0.31312,0.3954 0.0359,0.3176 -0.96654,-0.2713 -2.399,-1.4088 -10.65967,-5.5193 -13.35468,-6.6448 -5.67068,-2.3685 -7.0149,-2.4902 -14.22975,-1.2896 -2.59227,0.4313 -5.58784,0.7847 -6.65728,0.7847 -1.19726,0 -1.94487,0.1312 -1.94487,0.3418 0,0.2355 2.24243,0.31 7.54948,0.2355 l 7.54895,-0.1071 1.1912,0.9596 c 1.14767,0.9244 2.32321,2.8979 2.74775,4.6133 0.18025,0.7281 0.033,0.9286 -1.29551,1.7705 -0.82419,0.5222 -1.88978,1.038 -2.36851,1.1461 -0.47871,0.1079 -1.73185,0.9981 -2.78465,1.9775 -1.05279,0.9795 -2.81948,2.4034 -3.92559,3.1643 -1.10607,0.7615 -2.52048,1.8416 -3.14356,2.4 -1.4728,1.3203 -2.26714,1.7365 -2.86703,1.503 -0.81881,-0.3185 -0.55727,-1.0696 1.19603,-3.4316 1.94798,-2.6243 3.32076,-6.0736 2.77181,-6.9647 -0.42926,-0.6967 -8.72384,-3.8044 -10.8059,-4.0485 l -1.55547,-0.1824 -1.4624,1.7358 c -1.69789,2.015 -5.34523,4.8873 -7.7062,6.0686 -2.90338,1.4527 -3.59346,2.1435 -4.11921,4.1243 -0.26163,0.9856 -0.67278,2.4276 -0.91359,3.2041 -0.24082,0.7764 -0.58221,2.572 -0.75902,3.9906 -0.17679,1.4187 -0.53371,3.0952 -0.79324,3.7248 -0.82995,2.0142 -0.62818,5.9946 0.47337,9.3283 1.68297,5.0938 4.0884,9.2882 5.88543,10.2633 0.76848,0.417 1.13494,0.1772 0.64454,-0.422 -0.60966,-0.745 -1.9478,-4.6894 -2.39845,-7.0695 -0.56051,-2.9604 -0.5515,-4.5618 0.0326,-5.7071 0.33266,-0.6525 0.50001,-2.1726 0.57609,-5.2392 0.0589,-2.3764 0.25296,-4.685 0.43166,-5.1306 1.02508,-2.5552 4.33435,-6.7357 4.88784,-6.1745 0.19212,0.1948 -1.05629,3.5362 -2.19948,5.8863 -1.13628,2.336 -1.23729,3.5595 -0.47552,5.7672 0.40966,1.187 0.57685,2.2494 0.46857,2.9803 -0.2143,1.4469 0.26216,2.3135 3.36715,6.1269 2.26981,2.7875 4.35863,4.532 6.03894,5.0439 0.61282,0.1868 0.49941,-0.058 -0.73815,-1.5987 -0.80395,-1.0008 -2.00897,-2.9556 -2.67821,-4.3439 -1.09316,-2.2688 -1.20375,-2.7149 -1.08798,-4.4068 0.0793,-1.1585 -0.0413,-2.3648 -0.3129,-3.1369 -1.00797,-2.8663 0.65386,-7.8168 3.22593,-9.6113 2.62184,-1.8287 5.69082,-2.7865 5.6458,-1.7613 -0.0284,0.6444 -0.98016,2.7534 -2.43056,5.3883 -1.17818,2.1404 -1.38442,2.7921 -1.50947,4.7679 -0.0801,1.2656 0.0198,2.9507 0.22305,3.7698 0.35449,1.4274 1.37965,3.2504 1.82774,3.2504 0.11934,0 0.16432,-1.0477 0.10061,-2.3283 -0.1031,-2.0705 -0.0218,-2.5035 0.73441,-3.9126 0.4874,-0.908 1.61544,-2.2244 2.64236,-3.0837 1.44866,-1.2123 1.89238,-1.814 2.31823,-3.1455 1.01892,-3.1852 4.7554,-5.4221 9.16861,-5.4873 2.90927,-0.043 2.84724,-0.2198 2.61829,7.4467 -0.26369,8.8303 -1.09166,13.6229 -3.48376,20.168 -3.48651,9.5396 -8.99677,17.8051 -17.974,26.9621 -2.58426,2.636 -4.89396,4.793 -5.13283,4.793 -0.43228,0 -7.87529,-8.0051 -10.50155,-11.2945 -9.60947,-12.0357 -18.66409,-27.2408 -23.45773,-39.3916 -7.01664,-17.7855 -10.2335,-30.5081 -11.93186,-47.1975 -0.51221,-5.0333 -1.03883,-21.84417 -0.72692,-23.20257 0.16227,-0.70683 0.23857,-0.64266 0.91361,0.77132 0.40496,0.84832 1.58538,2.40349 2.62364,3.45634 2.72891,2.76711 5.73116,3.9008 9.59705,3.62331 1.10402,-0.0797 0.9947,-0.13435 -1.01094,-0.50605 -2.68721,-0.49785 -5.21378,-1.8756 -7.10017,-3.87191 -3.67993,-3.89438 -4.53256,-10.71691 -2.01441,-16.11915 3.37021,-7.23015 10.31371,-11.57104 18.19063,-11.77422 z m 286.43144,9.69946 c 0.5141,0 0.9903,0.25731 1.6999,0.80609 0.8933,0.69091 1.526,0.877 3.4806,1.02264 1.7627,0.13134 2.574,0.34177 3.0969,0.80289 1.1505,1.01424 5.6671,5.81987 5.9978,6.3816 0.469,0.79658 0.3863,21.70212 -0.1043,26.40005 -0.8822,8.4488 -2.8393,19.7381 -4.5685,26.3534 -1.2759,4.8813 -5.2706,17.1614 -6.4808,19.9221 -0.2269,0.5175 -1.1943,2.7764 -2.1497,5.0197 -2.8811,6.7647 -8.9625,17.9839 -13.2643,24.4708 -6.2494,9.4238 -15.9485,20.846 -23.5498,27.7349 -5.7589,5.2188 -8.1395,7.2779 -9.9062,8.5681 -0.8539,0.6237 -1.8152,1.4284 -2.1363,1.7881 -0.5592,0.6265 -1.1067,0.859 -1.1067,0.4703 0,-0.1015 0.2887,-1.2662 0.6413,-2.5884 1.6067,-6.0244 1.9185,-7.454 3.6689,-16.8357 1.7115,-9.1736 3.0236,-18.7789 3.7078,-27.1376 0.1766,-2.1571 0.48,-5.7568 0.674,-8.0001 0.8815,-10.1931 1.0223,-31.3441 0.298,-44.7067 -0.5053,-9.3182 -0.9239,-16.3637 -1.1207,-18.84268 l -0.1883,-2.37223 2.4034,-3.27501 c 3.577,-4.87477 6.2353,-8.04369 6.8941,-8.21841 0.3221,-0.0848 1.3325,0.12421 2.2455,0.46589 0.958,0.35854 3.0717,0.7353 4.9975,0.89107 3.0071,0.24324 3.6351,0.40884 6.3427,1.6715 2.4208,1.12883 3.4279,1.42702 5.1785,1.53301 1.837,0.11106 2.542,0.33629 4.5556,1.45694 1.6606,0.9242 2.5784,1.26256 3.0312,1.11683 0.7739,-0.24904 0.6906,-0.53999 -0.8119,-2.83532 -1.79,-2.7344 -4.7188,-4.5978 -8.1314,-5.17287 -1.7115,-0.28848 -3.4767,-1.38241 -4.0824,-2.52987 -0.5933,-1.12407 0.3281,-1.75307 4.6498,-3.17348 1.9722,-0.64814 2.043,-0.64979 4.6408,-0.10432 3.0884,0.64846 3.0162,0.61357 6.3941,3.06374 2.6531,1.92426 3.5147,3.02183 3.5147,4.47588 0,0.44517 0.3609,1.67864 0.8019,2.74122 0.8714,2.0995 0.8653,3.39942 -0.034,6.85556 -0.2398,0.92088 -0.3924,1.71829 -0.3396,1.77211 0.2888,0.29281 1.8987,-1.88152 2.8729,-3.8801 1.3471,-2.76399 1.5957,-4.70161 0.9103,-7.093 -0.2746,-0.95752 -0.499,-2.11449 -0.499,-2.57106 0,-1.18047 -0.7711,-2.55202 -2.675,-4.75564 -0.9109,-1.05451 -1.6566,-2.07777 -1.6566,-2.27431 0,-0.96778 3.0484,0.33659 5.4672,2.33952 1.1458,0.94894 1.3467,1.32341 1.7967,3.343 0.4166,1.86982 0.7242,2.49965 1.7303,3.54464 1.5969,1.65919 1.8855,2.75075 1.5122,5.73604 -0.1643,1.31399 -0.3776,2.63979 -0.4729,2.94607 -0.2608,0.83342 0.052,0.67475 0.8168,-0.41454 1.0366,-1.47609 2.4515,-5.60169 2.4525,-7.15178 0,-3.12078 -2.5137,-9.22386 -4.5241,-10.97299 -2.7196,-2.36603 -4.7911,-3.73198 -6.2031,-4.08969 -0.8208,-0.20795 -2.7456,-0.72216 -4.2771,-1.14259 -1.5315,-0.42034 -3.1736,-0.85278 -3.6489,-0.96115 -1.3408,-0.30565 -0.8322,-0.82079 1.2323,-1.24786 1.0334,-0.21373 2.3062,-0.61255 2.8285,-0.88631 0.5738,-0.3009 0.9968,-0.45905 1.3966,-0.45998 z m -261.18556,60.62887 c -0.77284,0.017 -1.39445,0.3359 -3.19385,1.3898 -3.02109,1.7692 -6.64076,3.1445 -8.97818,3.4114 -2.19343,0.2504 -2.7301,0.5686 -2.7301,1.6185 0,0.4772 -0.1262,1.0015 -0.28081,1.1655 -0.15461,0.1639 -0.79491,1.8509 -1.42282,3.7489 -1.45466,4.3973 -1.84309,5.2936 -3.1334,7.2283 -1.29664,1.9442 -1.79659,4.6005 -1.53193,8.1441 0.28153,3.7699 1.46479,7.8792 2.73277,9.4904 0.45963,0.5842 0.95065,0.4741 0.6991,-0.1568 -0.41145,-1.0317 -0.53978,-7.1189 -0.18989,-9.01 0.27592,-1.4907 0.59103,-2.1302 1.54531,-3.1369 0.98491,-1.0393 1.23584,-1.5672 1.4073,-2.9606 0.15709,-1.2765 0.45967,-1.9933 1.22383,-2.8986 0.55833,-0.6615 1.20289,-1.8044 1.43245,-2.5396 1.42147,-4.5533 1.82012,-4.9722 6.01594,-6.3233 4.16105,-1.34 7.19462,-3.8314 8.97229,-7.369 0.63439,-1.2623 0.4569,-1.4439 -1.69561,-1.7336 -0.34054,-0.045 -0.6148,-0.073 -0.8724,-0.068 z" /></g></g></svg>
