<?xml version="1.0" encoding="UTF-8" standalone="no"?>
<!-- Created with Inkscape (http://www.inkscape.org/) -->

<svg
   width="1023.9999"
   height="1023.9999"
   viewBox="0 0 270.93333 270.93333"
   version="1.1"
   id="svg1"
   xml:space="preserve"
   inkscape:export-filename="adversary-banshee.svg"
   inkscape:export-xdpi="96"
   inkscape:export-ydpi="96"
   inkscape:version="1.4.2 (ebf0e940, 2025-05-08)"
   sodipodi:docname="token-icons.svg"
   xmlns:inkscape="http://www.inkscape.org/namespaces/inkscape"
   xmlns:sodipodi="http://sodipodi.sourceforge.net/DTD/sodipodi-0.dtd"
   xmlns="http://www.w3.org/2000/svg"
   xmlns:svg="http://www.w3.org/2000/svg"><sodipodi:namedview
     id="namedview1"
     pagecolor="#ffffff"
     bordercolor="#666666"
     borderopacity="1.0"
     inkscape:showpageshadow="2"
     inkscape:pageopacity="0.0"
     inkscape:pagecheckerboard="0"
     inkscape:deskcolor="#d1d1d1"
     inkscape:document-units="mm"
     inkscape:zoom="0.094751701"
     inkscape:cx="-2258.5347"
     inkscape:cy="2005.2411"
     inkscape:window-width="2560"
     inkscape:window-height="1021"
     inkscape:window-x="0"
     inkscape:window-y="31"
     inkscape:window-maximized="1"
     inkscape:current-layer="layer1"><inkscape:page
       x="0"
       y="0"
       width="270.93332"
       height="270.93332"
       id="page2"
       margin="0"
       bleed="0" /></sodipodi:namedview><defs
     id="defs1" /><g
     inkscape:label="Layer 1"
     inkscape:groupmode="layer"
     id="layer1"><path
       id="path5-22"
       style="baseline-shift:baseline;display:inline;overflow:visible;vector-effect:none;fill:#ffffff;fill-opacity:1;stroke-linecap:round;stroke-linejoin:round;enable-background:accumulate;stop-color:#000000"
       d="m 148.32194,9.5216629 c -0.10098,-0.004 -0.18453,0.0129 -0.24804,0.0527 -0.52287,0.32743 -0.45025,0.8898701 0.36432,2.8308301 1.17129,2.79082 1.4987,3.91347 1.87223,6.4177 0.68827,4.61461 0.36001,8.28898 -1.13119,12.66279 -1.68577,4.9444 -4.31551,9.02463 -8.83977,13.71493 -2.02876,2.1032 -4.27015,4.05405 -8.74572,7.61142 -1.87515,1.4904 -3.79191,3.06736 -4.25969,3.50469 l -0.8506,0.7953 -2.90835,0.19482 c -2.85872,0.19156 -2.91438,0.18884 -3.23287,-0.17259 -0.71881,-0.81571 0.1429,-3.11181 2.0531,-5.47047 0.63564,-0.78488 1.156,-1.50335 1.156,-1.5968 0,-0.27653 -0.61521,-0.35577 -1.49035,-0.19224 -3.37082,0.62976 -8.78103,4.31339 -11.27424,7.67653 -0.8169,1.10195 -0.97971,1.226 -2.40451,1.83607 -2.34013,1.00196 -4.17974,1.9556 -5.78827,3.00033 -1.69232,1.09915 -2.07335,1.12897 -2.51148,0.19637 -0.679923,-1.44734 -0.602393,-2.44167 0.49661,-6.38979 0.17684,-0.63515 -0.45644,-0.49344 -1.616953,0.36174 -3.02687,2.23064 -5.14453,5.83067 -6.44612,10.95902 -0.2659,1.04768 -0.41665,1.27284 -1.9327,2.88458 -1.37303,1.45971 -1.69361,1.7182 -1.93942,1.56372 -0.39791,-0.25008 -0.72108,-1.24682 -0.91725,-2.82721 -0.0896,-0.72199 -0.23487,-1.38413 -0.32246,-1.47175 -0.26334,-0.26323 -0.96225,0.42689 -1.68724,1.66657 -0.37188,0.63587 -0.76572,1.15652 -0.8754,1.15652 -0.3848,0 -2.1252,-1.26012 -3.21789,-2.32958 -2.94484,-2.88225 -4.73368,-6.14436 -5.54953,-10.11979 -0.24121,-1.1752 -0.27881,-2.01428 -0.19792,-4.42247 0.10858,-3.23325 0.36283,-4.52997 1.64537,-8.39226 0.60553,-1.82357 3.67182,-8.16152 4.92529,-10.18025 0.32139,-0.5177 0.54298,-1.08663 0.51107,-1.31155 -0.18611,-1.31142 -3.02317,0.44484 -6.70036,4.14755 -3.0738,3.09524 -4.56331,4.86158 -6.3407,7.51892 -3.5242,5.26888 -5.66603,10.6826 -6.43268,16.25999 -0.21664,1.57637 -0.26558,2.85896 -0.19741,5.15782 0.10592,3.57455 0.37678,5.18552 1.36116,8.09925 1.68544,4.9889 4.53887,9.25255 9.24595,13.8157 l 1.95543,1.89549 -0.10697,0.8139 c -0.0588,0.44782 -0.17687,1.57397 -0.26199,2.50269 -0.0851,0.92879 -0.24877,1.86498 -0.36381,2.07998 -0.38161,0.71306 -1.60799,1.91358 -1.9544,1.91358 -0.4247,0 -5.50984,-1.26733 -6.6952,-1.66864 -0.48079,-0.16282 -1.58247,-0.60812 -2.44791,-0.9896 -0.86545,-0.38148 -1.95516,-0.82243 -2.42156,-0.97978 -0.81186,-0.27387 -0.85818,-0.2716 -1.09244,0.0491 -0.512,0.7002 -0.10142,2.03299 1.10949,3.60081 0.36086,0.46723 0.92956,1.22625 1.26349,1.68672 0.33397,0.460407 1.97584,2.551387 3.64888,4.646747 3.28228,4.11086 4.25875,5.05823 7.19594,6.98251 2.52714,1.65558 2.82698,2.32271 2.11615,4.70618 -0.48336,1.62065 -0.56743,2.46103 -0.35088,3.50469 0.38551,1.85829 1.39013,2.99107 4.35374,4.90823 3.2354,2.09299 3.58125,2.9978 5.51439,14.42186 0.0853,0.50411 0.0511,0.56799 -0.30489,0.56741 -1.20046,0 -4.3689,-3.00604 -6.01927,-5.70715 -0.3678,-0.60187 -0.50154,-0.038 -0.47646,2.00866 0.039,3.193 1.09167,6.36187 2.913,8.76949 0.68152,0.90104 0.7238,1.02362 0.67179,1.94666 -0.0757,1.34283 0.23772,1.86735 1.80816,3.02875 0.8397,0.62099 1.34641,1.12669 1.41904,1.41594 0.14122,0.56269 0.0191,2.42403 -0.36639,5.58518 -0.37079,3.04004 -0.29471,7.3838 0.16433,9.35344 0.36604,1.57048 1.72006,4.54597 2.06861,4.54597 0.17,0 0.33842,-0.4731 0.54467,-1.53013 0.29207,-1.49679 1.22754,-3.73188 1.6092,-3.84473 0.12188,-0.0359 0.23225,0.44115 0.30179,1.30431 0.23456,2.91072 1.75319,6.91295 3.47524,9.15862 1.70786,2.22712 3.14678,3.67653 3.39928,3.42408 0.0456,-0.0453 0.15857,-0.62228 0.25063,-1.28158 0.31602,-2.26349 1.31437,-4.64156 2.95383,-7.03523 1.001333,-1.46201 3.014203,-3.89427 3.313493,-4.00389 0.0744,-0.0273 0.18832,0.70573 0.25321,1.62884 0.0649,0.92318 0.19733,2.04719 0.29404,2.49804 0.2118,0.98766 1.23572,2.89644 1.59112,2.96623 0.17275,0.0338 0.35536,-0.27032 0.56792,-0.94465 0.3979,-1.26232 1.45869,-3.03852 2.86649,-4.7997 1.64858,-2.06236 4.28154,-4.32543 7.69824,-6.61717 2.03109,-1.36231 2.62269,-1.65536 2.89182,-1.43195 0.31345,0.26007 1.7849,3.10867 2.13217,4.12739 0.97878,2.87147 1.57868,7.82535 1.41851,11.71402 l -0.0935,2.27273 -0.93018,0.86041 c -0.51185,0.47299 -1.83558,1.61089 -2.94142,2.52904 -2.04012,1.6939 -4.19657,3.55959 -8.30957,7.18819 -1.25347,1.10591 -2.78603,2.4436 -3.40548,2.97243 -6.38088,5.44773 -10.942013,10.57878 -13.909223,15.64711 l -1.20148,2.05207 -1.08727,-0.11162 c -2.07018,-0.21212 -3.52058,-0.97592 -4.0995,-2.15853 -0.20007,-0.40864 -0.43254,-0.74259 -0.51676,-0.74259 -0.56406,0 -0.87738,2.97392 -0.52607,4.99143 0.27797,1.59607 1.1639,3.45279 2.18798,4.58422 l 0.83406,0.92139 -0.45165,1.43867 c -1.33778,4.26311 -1.68461,6.27356 -1.80299,10.44329 -0.12449,4.38666 0.39383,7.88051 1.86242,12.32948 -37.8946,-19.4295 -63.84727,-59.16749 -63.84727,-105.10056 0,-35.838527 13.443,-65.898177 38.38629,-87.490267 3.07546,-5.18816 5.78398,-9.7646 8.85011,-12.38064 9.51512,-8.11836 15.63912,-8.53251 16.31786,-7.85378 0.4675,0.4675 0.26007,1.58569 -0.21962,2.88923 15.955143,-8.28126 34.050593,-12.95322 53.231893,-12.95322 1.02951,0 2.05579,0.013 3.07888,0.0398 -0.64771,-2.54134 -1.71875,-5.35105 -2.81636,-7.89305 -0.0876,-1.9e-4 -0.17489,-5.2e-4 -0.26252,-5.2e-4 -68.691173,0 -124.422383,56.31941 -124.422383,125.642457 0,69.32305 55.73121,125.64298 124.422383,125.64298 68.69117,0 124.42186,-56.31993 124.42186,-125.64298 0,-62.655617 -45.52613,-114.688597 -104.99979,-124.118007 1.62334,2.95776 3.22506,6.13051 4.54494,8.81704 52.896,11.1525 92.599,58.48768 92.599,115.300967 0,15.72656 -3.04218,30.72683 -8.56433,44.4345 -0.33286,-0.93587 -1.16808,-2.51571 -1.98593,-3.6189 -1.02134,-1.37769 -3.28912,-3.55906 -4.68343,-4.50567 -2.43018,-1.64984 -6.16957,-3.20744 -9.3369,-3.88917 -1.52056,-0.32728 -2.41689,-0.38949 -6.12263,-0.42478 l -4.34133,-0.0408 -1.33997,-1.10639 c -0.73701,-0.60841 -2.16628,-1.76799 -3.17655,-2.57659 -2.0089,-1.608 -2.34632,-1.94177 -2.75642,-2.72593 -0.80532,-1.53957 0.42153,-5.81092 2.58899,-9.0134 1.10949,-1.63927 3.33281,-3.5717 5.19916,-4.5191 0.41207,-0.20925 0.7055,-0.45111 0.65216,-0.53744 -0.0533,-0.0863 -0.69702,-0.29055 -1.43041,-0.45372 -1.61295,-0.35883 -5.49174,-0.26275 -7.57679,0.18759 -3.38341,0.73068 -7.60233,2.80451 -10.4898,5.15627 -0.43272,0.35244 -0.88239,0.69651 -0.99891,0.7643 -0.46274,0.26934 -10.125,-8.45314 -10.49858,-9.47746 -0.0247,-0.0683 0.56263,-0.3165 1.30534,-0.55191 2.29921,-0.72903 5.12166,-2.31872 5.12166,-2.88457 0,-0.29968 -0.57601,-0.50418 -3.22771,-1.14515 -5.83611,-1.41076 -8.46463,-2.66286 -11.34867,-5.40588 -1.67479,-1.5929 -4.13101,-4.89296 -4.13101,-5.55004 0,-0.0993 0.47469,-0.2341 1.05523,-0.29973 1.09254,-0.12364 3.28001,-0.77206 4.24781,-1.25935 0.75848,-0.38198 1.69033,-1.29397 1.69033,-1.65417 0,-0.22361 -0.31184,-0.37125 -1.26762,-0.60048 -4.53228,-1.08707 -8.17736,-3.10309 -10.76007,-5.95105 -2.00929,-2.21576 -4.36596,-6.09561 -6.36912,-10.48515 -0.26187,-0.57384 -0.87475,-1.90351 -1.36167,-2.95486 -0.48692,-1.05127 -0.85194,-1.99794 -0.81132,-2.10375 0.0404,-0.10574 0.76669,-0.62258 1.61385,-1.14825 3.04848,-1.891927 6.18684,-5.420157 7.67705,-8.630477 1.29882,-2.79793 1.42123,-3.10763 2.52802,-6.39961 0.59807,-1.77901 1.4068,-4.06084 1.7973,-5.07049 1.38409,-3.57922 3.68153,-7.55623 6.02289,-10.42727 0.55997,-0.68662 1.50996,-1.85207 2.11098,-2.58951 0.85889,-1.05386 1.09244,-1.4666 1.09244,-1.92959 0,-0.92059 -0.4064,-1.20076 -1.56373,-1.07849 -1.47197,0.15548 -6.60388,1.87883 -10.46447,3.51451 -5.34039,2.26263 -6.94994,3.00383 -13.02402,5.99757 -2.58513,1.27418 -4.79932,2.31665 -4.92063,2.31665 -0.12132,0 -0.36627,-0.32277 -0.54415,-0.71726 -0.96529,-2.14072 -4.17478,-5.39008 -7.40833,-7.50032 -1.25238,-0.8173 -2.27932,-1.57778 -2.28203,-1.69034 -0.005,-0.1125 0.57559,-0.98113 1.28519,-1.93011 1.86987,-2.50064 4.80204,-6.99813 6.06216,-9.29763 3.4205,-6.2418 5.06119,-12.44122 5.06119,-19.12854 0,-5.00536 -0.7138,-8.89421 -2.4939,-13.58832 -1.10451,-2.91273 -3.58989,-7.07586 -5.63428,-9.43819 -1.97937,-2.28718 -4.58942,-4.2805701 -5.56556,-4.3186001 z M 119.73506,97.938483 c 0.66782,0.0154 0.55776,0.32106 0.23151,1.70481 -0.84469,3.582527 -2.72369,6.056427 -5.6472,7.435197 -1.48148,0.69869 -1.57428,0.71822 -3.61839,0.76947 -1.43724,0.0359 -2.3797,-0.0261 -2.99154,-0.19793 -1.51316,-0.42519 -2.95079,-1.06649 -2.9838,-1.33066 -0.0299,-0.23929 3.5903,-3.71131 5.45083,-5.22759 1.93945,-1.580607 5.54232,-2.878187 8.61033,-3.101097 0.4163,-0.0302 0.72566,-0.0573 0.94826,-0.0522 z M 78.760817,108.67323 c 0.5364,-0.005 2.00659,0.50061 3.59202,1.2516 2.65824,1.25916 3.76328,2.23367 3.54036,3.12177 -0.16349,0.6514 -0.97626,1.51489 -1.76062,1.87121 -0.75439,0.34273 -1.14537,0.37777 -1.84381,0.16536 -2.14248,-0.65175 -3.62995,-2.63946 -3.80494,-5.08496 -0.0533,-0.74563 -0.0145,-1.21598 0.10645,-1.29088 0.0361,-0.0223 0.0939,-0.0334 0.17054,-0.0341 z m 34.370513,16.01452 c 0.54386,0 1.87874,2.03031 3.67884,5.59501 1.90973,3.78192 2.61252,5.98764 2.22829,6.99492 -0.2706,0.70955 -1.56366,1.91765 -2.53835,2.37144 -1.64207,0.76461 -4.15332,0.42546 -5.54953,-0.74931 -0.71582,-0.60237 -2.17935,-0.89553 -5.14542,-1.03095 -5.21201,-0.238 -11.249113,1.14259 -16.126153,3.68815 -1.19994,0.62638 -2.20992,1.13895 -2.24431,1.13895 -0.0342,0 -0.14387,-0.15194 -0.24339,-0.33797 -0.32395,-0.60525 -0.20062,-1.14831 0.38705,-1.70273 1.08913,-1.02763 3.94618,-2.61825 6.33812,-3.52899 2.48087,-0.94467 9.011773,-2.64738 10.154423,-2.64738 0.96244,0 3.1659,0.49194 4.83071,1.079 0.83752,0.29536 1.64404,0.49094 1.79214,0.43408 0.19362,-0.0743 0.26923,-0.353 0.26923,-0.99218 0,-1.31256 1.21955,-8.03445 1.76785,-9.74359 0.10027,-0.31247 0.28046,-0.56845 0.4005,-0.56845 z M 5.4856967,130.94267 c -0.0657,1.72676 -0.0987,3.45462 -0.0987,5.18263 l 5.2e-4,0.23978 c 0.003,-1.79042 0.0355,-3.59843 0.0982,-5.42241 z M 184.79362,174.17104 c 0.70822,-0.01 0.22186,0.28856 -1.66915,0.86713 -0.98428,0.30125 -2.02561,0.65305 -2.31407,0.78186 -0.28847,0.12875 -1.84753,0.75713 -3.4649,1.3963 -3.25079,1.2846 -5.10029,2.13088 -9.91981,4.54029 -3.01989,1.50974 -9.32284,5.10159 -11.52953,6.57014 -2.99172,1.99085 -3.73885,2.52244 -8.82944,6.28489 -5.52632,4.0844 -10.97879,8.89618 -15.17943,13.39557 -5.42533,5.81115 -9.23485,10.79742 -12.88345,16.86253 -0.89665,1.49047 -1.72783,2.82765 -1.84744,2.97192 -0.11956,0.1442 -0.62271,1.04908 -1.11827,2.01072 -0.49562,0.96157 -0.96985,1.86647 -1.05369,2.01073 -0.30581,0.52596 -1.39888,2.99036 -1.39888,3.15382 0,0.0925 -0.0785,0.16795 -0.17466,0.16795 -0.0961,0 -0.17519,-0.12162 -0.17519,-0.27027 0,-0.28098 0.43834,-1.71151 1.58337,-5.17126 1.19229,-3.60244 4.6337,-10.82853 6.85901,-14.40222 2.48761,-3.99498 5.48539,-8.18987 8.02639,-11.23084 1.71954,-2.05791 6.91458,-7.34723 8.96999,-9.13278 5.02172,-4.36238 11.79153,-8.8269 18.00872,-11.87679 3.65311,-1.79216 3.70681,-1.81662 8.08581,-3.61374 4.28861,-1.76011 9.98944,-3.41037 16.30392,-4.72064 1.89667,-0.39354 3.16987,-0.58771 3.7207,-0.59531 z m 55.33099,3.97185 c 2.41454,-0.0507 4.62972,0.57506 7.5246,2.08514 0.48647,0.25381 0.93261,0.4796 1.21647,0.61702 -0.95252,2.32492 -1.97681,4.61221 -3.06958,6.85901 -1.71922,-1.06445 -4.04829,-2.56095 -7.43882,-6.18773 -1.11991,-1.19798 -2.03606,-2.27101 -2.03606,-2.38487 0,-0.3303 1.37749,-0.79342 2.75384,-0.92604 0.35564,-0.0343 0.70461,-0.0553 1.04955,-0.0625 z m -118.61912,7.5892 c 0.0223,2.5e-4 0.0397,0.008 0.0532,0.0212 0.0587,0.0589 -0.82134,1.90143 -1.95544,4.09484 -4.96486,9.60207 -5.86536,11.6214 -7.78402,17.4501 -0.98922,3.00524 -2.44193,8.79554 -2.85099,11.36468 -0.75492,4.74148 -1.13661,11.97585 -0.85679,16.23105 0.14383,2.18686 0.0526,2.82422 -0.28629,2.00556 -0.32305,-0.78042 -1.03392,-4.63265 -1.41335,-7.65896 -0.33487,-2.67135 -0.37163,-3.61434 -0.29197,-7.43056 0.1225,-5.8678 0.63403,-9.19437 2.25981,-14.68644 0.28466,-0.96164 0.5973,-2.02351 0.69453,-2.36006 0.0972,-0.33655 0.23394,-0.69085 0.30386,-0.78703 0.0699,-0.0962 0.38728,-0.84352 0.70486,-1.66089 1.82004,-4.68434 5.07935,-9.82471 9.02116,-14.22755 1.5385,-1.71842 2.18611,-2.35841 2.4014,-2.35593 z" /></g></svg>
