<?xml version="1.0" encoding="UTF-8" standalone="no"?>
<!-- Created with Inkscape (http://www.inkscape.org/) -->

<svg
   width="1023.9999"
   height="1023.9999"
   viewBox="0 0 270.93333 270.93333"
   version="1.1"
   id="svg1"
   xml:space="preserve"
   inkscape:export-filename="adversary-banshee.svg"
   inkscape:export-xdpi="96"
   inkscape:export-ydpi="96"
   inkscape:version="1.4.2 (ebf0e940, 2025-05-08)"
   sodipodi:docname="token-icons.svg"
   xmlns:inkscape="http://www.inkscape.org/namespaces/inkscape"
   xmlns:sodipodi="http://sodipodi.sourceforge.net/DTD/sodipodi-0.dtd"
   xmlns="http://www.w3.org/2000/svg"
   xmlns:svg="http://www.w3.org/2000/svg"><sodipodi:namedview
     id="namedview1"
     pagecolor="#ffffff"
     bordercolor="#666666"
     borderopacity="1.0"
     inkscape:showpageshadow="2"
     inkscape:pageopacity="0.0"
     inkscape:pagecheckerboard="0"
     inkscape:deskcolor="#d1d1d1"
     inkscape:document-units="mm"
     inkscape:zoom="0.094751701"
     inkscape:cx="-2258.5347"
     inkscape:cy="2005.2411"
     inkscape:window-width="2560"
     inkscape:window-height="1021"
     inkscape:window-x="0"
     inkscape:window-y="31"
     inkscape:window-maximized="1"
     inkscape:current-layer="layer1"><inkscape:page
       x="0"
       y="0"
       width="270.93332"
       height="270.93332"
       id="page2"
       margin="0"
       bleed="0" /></sodipodi:namedview><defs
     id="defs1" /><g
     inkscape:label="Layer 1"
     inkscape:groupmode="layer"
     id="layer1"><path
       id="path5-2"
       style="baseline-shift:baseline;display:inline;overflow:visible;vector-effect:none;fill:#000000;fill-opacity:1;stroke-linecap:round;stroke-linejoin:round;enable-background:accumulate;stop-color:#000000"
       d="m 143.03259,9.3312047 c -0.10098,-0.004 -0.18454,0.0129 -0.24805,0.0527 -0.52287,0.32743 -0.45025,0.8898803 0.36432,2.8308403 1.17129,2.79082 1.49871,3.91346 1.87224,6.41769 0.68827,4.61461 0.36,8.28899 -1.1312,12.6628 -1.68577,4.9444 -4.31551,9.02462 -8.83977,13.71492 -2.02876,2.1032 -4.27015,4.05405 -8.74572,7.61142 -1.87515,1.4904 -3.7919,3.06737 -4.25968,3.5047 l -0.8506,0.7953 -2.90835,0.19482 c -2.85872,0.19156 -2.91439,0.18883 -3.23288,-0.1726 -0.71881,-0.81571 0.14291,-3.11181 2.05311,-5.47047 0.63564,-0.78488 1.156,-1.50335 1.156,-1.5968 0,-0.27653 -0.61521,-0.35576 -1.49035,-0.19223 -3.37082,0.62976 -8.78103,4.31339 -11.27424,7.67653 -0.8169,1.10195 -0.97971,1.22599 -2.40451,1.83606 -2.34013,1.00196 -4.179753,1.95561 -5.788286,3.00034 -1.69232,1.09915 -2.07334,1.12897 -2.51147,0.19637 -0.67992,-1.44734 -0.60239,-2.44167 0.49661,-6.38979 0.17684,-0.63515 -0.45645,-0.49345 -1.61696,0.36173 -3.02687,2.23064 -5.14452,5.83067 -6.44611,10.95902 -0.2659,1.04768 -0.41665,1.27284 -1.9327,2.88458 -1.37303,1.45971 -1.69361,1.71821 -1.93942,1.56373 -0.39791,-0.25008 -0.72109,-1.24683 -0.91726,-2.82722 -0.0896,-0.72199 -0.23487,-1.38412 -0.32246,-1.47174 -0.26334,-0.26323 -0.96224,0.42688 -1.68723,1.66656 -0.37188,0.63587 -0.76572,1.15652 -0.8754,1.15652 -0.3848,0 -2.1252,-1.26011 -3.21789,-2.32957 -2.94484,-2.88225 -4.73369,-6.14437 -5.54954,-10.1198 -0.24121,-1.1752 -0.27881,-2.01428 -0.19792,-4.42247 0.10858,-3.23325 0.36284,-4.52996 1.64538,-8.39225 0.60553,-1.82357 3.67181,-8.16153 4.92528,-10.18026 0.32139,-0.5177 0.54299,-1.08662 0.51108,-1.31154 -0.18611,-1.31142 -3.02317,0.44484 -6.70036,4.14755 -3.0738,3.09524 -4.56331,4.86158 -6.3407,7.51892 -3.5242,5.26888 -5.66603,10.6826 -6.43268,16.25999 -0.21664,1.57637 -0.26558,2.85896 -0.19741,5.15782 0.10592,3.57455 0.37678,5.18552 1.36116,8.09925 1.68544,4.9889 4.53887,9.25254 9.24595,13.81569 l 1.95543,1.89549 -0.10697,0.81391 c -0.0588,0.44782 -0.17688,1.57397 -0.262,2.50269 -0.0851,0.92879 -0.24876,1.86497 -0.3638,2.07997 -0.38161,0.71306 -1.60799,1.91358 -1.9544,1.91358 -0.4247,0 -5.50984,-1.26732 -6.6952,-1.66863 -0.48079,-0.16282 -1.58247,-0.60812 -2.44791,-0.9896 -0.86545,-0.38148 -1.95516,-0.82244 -2.42156,-0.97979 -0.81186,-0.27387 -0.85818,-0.27161 -1.09244,0.0491 -0.512,0.7002 -0.10142,2.033 1.10949,3.60082 0.36086,0.46723 0.92956,1.22625 1.26349,1.68672 0.33397,0.46041 1.97583,2.551375 3.64887,4.646735 3.28228,4.11086 4.25876,5.05824 7.19595,6.98252 2.52714,1.65558 2.82698,2.3227 2.11615,4.70617 -0.48336,1.62065 -0.56744,2.46104 -0.35089,3.5047 0.38551,1.85829 1.39013,2.99107 4.35374,4.90823 3.2354,2.09299 3.58126,2.99779 5.5144,14.42185 0.0853,0.50411 0.0511,0.56799 -0.3049,0.56741 -1.20046,0 -4.3689,-3.00603 -6.01927,-5.70714 -0.3678,-0.60187 -0.50153,-0.038 -0.47645,2.00866 0.039,3.193 1.09167,6.36187 2.913,8.76949 0.68152,0.90104 0.7238,1.02361 0.67179,1.94665 -0.0757,1.34283 0.23772,1.86736 1.80816,3.02876 0.8397,0.62099 1.3464,1.12668 1.41903,1.41593 0.14122,0.56269 0.0191,2.42404 -0.36638,5.58519 -0.37079,3.04004 -0.29471,7.38374 0.16433,9.35344 0.36604,1.5705 1.72006,4.546 2.06861,4.546 0.17,0 0.33842,-0.4731 0.54467,-1.5302 0.29207,-1.4968 1.22754,-3.7319 1.6092,-3.8447 0.12188,-0.036 0.23225,0.4412 0.30179,1.3043 0.23456,2.9107 1.75319,6.913 3.47524,9.1586 1.70786,2.2271 3.14678,3.6766 3.39928,3.4241 0.0456,-0.045 0.15857,-0.6223 0.25063,-1.2816 0.31602,-2.2635 1.31436,-4.6415 2.95382,-7.0352 1.00133,-1.462 3.01421,-3.8943 3.3135,-4.0039 0.0744,-0.027 0.18832,0.7058 0.25321,1.6289 0.0649,0.9231 0.19733,2.0471 0.29404,2.498 0.2118,0.9877 1.235723,2.8964 1.591123,2.9662 0.172753,0.034 0.355363,-0.2703 0.567923,-0.9446 0.3979,-1.2623 1.45869,-3.0386 2.86649,-4.7997 1.64858,-2.0624 4.28154,-4.3255 7.69824,-6.6172 2.03109,-1.3623 2.62268,-1.6554 2.89181,-1.432 0.31345,0.2601 1.7849,3.1087 2.13217,4.1274 0.97878,2.8715 1.57869,7.8254 1.41852,11.7141 l -0.0935,2.2727 -0.93018,0.8604 c -0.51185,0.473 -1.83558,1.6109 -2.94142,2.529 -2.04012,1.6939 -4.19657,3.5596 -8.30957,7.1882 -1.25347,1.1059 -2.78603,2.4436 -3.40548,2.9725 -6.380886,5.4477 -10.942026,10.5787 -13.909236,15.6471 l -1.20147,2.052 -1.08728,-0.1116 c -2.07018,-0.2121 -3.52057,-0.9759 -4.09949,-2.1585 -0.20007,-0.4086 -0.43254,-0.7426 -0.51676,-0.7426 -0.56406,0 -0.87738,2.9739 -0.52607,4.9914 0.27797,1.5961 1.1639,3.4528 2.18798,4.5842 l 0.83406,0.9214 -0.45165,1.4387 c -1.33778,4.2631 -1.68461,6.2736 -1.80299,10.4433 -0.0649,2.2858 1.640435,11.87864 1.605025,12.30704 5.943315,2.57973 10.957248,5.33691 17.213801,7.02024 14.20562,3.25995 20.10864,4.72715 28.54503,5.28275 2.28762,0.10139 10.99466,0.14343 13.28445,0.1261 29.82929,-1.60058 50.07823,-13.05367 72.11317,-32.62155 5.64081,-5.6519 19.59605,-22.23829 25.27436,-30.70758 0.47592,-0.70755 0.94499,-1.41969 1.40715,-2.1363 l -0.18965,-0.107 c -1.71922,-1.0644 -4.04828,-2.5609 -7.43882,-6.1877 -1.1199,-1.198 -2.03606,-2.271 -2.03606,-2.3849 0,-0.3303 1.37749,-0.7934 2.75384,-0.926 0.35564,-0.034 0.70461,-0.055 1.04955,-0.062 2.41454,-0.051 4.75323,0.2665 7.64811,1.7766 l 1.95802,0.5685 c -0.33286,-0.9359 -1.77269,-2.8 -2.59054,-3.9032 -1.02134,-1.3777 -3.28912,-3.559 -4.68343,-4.5056 -2.43018,-1.6499 -6.16957,-3.2075 -9.3369,-3.8892 -1.52056,-0.3273 -2.41688,-0.3895 -6.12262,-0.4248 l -4.34134,-0.041 -1.33997,-1.1064 c -0.73701,-0.6084 -2.16628,-1.768 -3.17655,-2.5766 -2.0089,-1.608 -2.34632,-1.9417 -2.75642,-2.7259 -0.80532,-1.5396 0.42153,-5.81091 2.58899,-9.01339 1.10949,-1.63927 3.33281,-3.57171 5.19916,-4.51911 0.41207,-0.20925 0.7055,-0.4511 0.65216,-0.53743 -0.0533,-0.0863 -0.69702,-0.29055 -1.43041,-0.45372 -1.61295,-0.35883 -5.49174,-0.26276 -7.57679,0.18758 -3.38341,0.73068 -7.60233,2.80452 -10.4898,5.15628 -0.43272,0.35244 -0.88239,0.6965 -0.99891,0.76429 -0.46274,0.26934 -10.125,-8.45314 -10.49858,-9.47746 -0.0247,-0.0683 0.56263,-0.31649 1.30534,-0.5519 2.29922,-0.72903 5.12166,-2.31873 5.12166,-2.88458 0,-0.29968 -0.57601,-0.50418 -3.22771,-1.14515 -5.83612,-1.41076 -8.46463,-2.66285 -11.34867,-5.40587 -1.67479,-1.5929 -4.13101,-4.89297 -4.13101,-5.55005 0,-0.0993 0.47469,-0.23409 1.05523,-0.29972 1.09254,-0.12364 3.28,-0.77207 4.2478,-1.25936 0.75848,-0.38198 1.69034,-1.29396 1.69034,-1.65416 0,-0.22361 -0.31184,-0.37125 -1.26762,-0.60048 -4.53228,-1.08707 -8.17736,-3.1031 -10.76007,-5.95106 -2.00929,-2.21576 -4.36596,-6.09561 -6.36912,-10.48515 -0.26187,-0.57384 -0.87475,-1.9035 -1.36167,-2.95485 -0.48692,-1.05127 -0.85194,-1.99794 -0.81132,-2.10375 0.0404,-0.10574 0.76669,-0.62258 1.61385,-1.14825 3.04848,-1.891925 6.18684,-5.420155 7.67705,-8.630475 1.29882,-2.79793 1.42122,-3.10763 2.52801,-6.39961 0.59807,-1.77901 1.40681,-4.06084 1.79731,-5.07049 1.38409,-3.57922 3.68153,-7.55623 6.02289,-10.42727 0.55997,-0.68662 1.50996,-1.85207 2.11098,-2.58951 0.85889,-1.05386 1.09244,-1.46661 1.09244,-1.9296 0,-0.92059 -0.4064,-1.20076 -1.56373,-1.07849 -1.47197,0.15548 -6.60389,1.87884 -10.46448,3.51452 -5.34039,2.26263 -6.94993,3.00383 -13.02401,5.99757 -2.58513,1.27418 -4.79932,2.31665 -4.92063,2.31665 -0.12132,0 -0.36627,-0.32278 -0.54415,-0.71727 -0.96529,-2.14072 -4.17478,-5.39008 -7.40833,-7.50032 -1.25238,-0.8173 -2.27933,-1.57777 -2.28204,-1.69033 -0.005,-0.1125 0.5756,-0.98114 1.2852,-1.93012 1.86987,-2.50064 4.80204,-6.99812 6.06216,-9.29762 3.4205,-6.2418 5.06119,-12.44123 5.06119,-19.12855 0,-5.00536 -0.71381,-8.89421 -2.49391,-13.58832 -1.10451,-2.91273 -3.58989,-7.07585 -5.63428,-9.43818 -1.97937,-2.28718 -4.58941,-4.2805703 -5.56555,-4.3186003 z M 114.44571,97.748035 c 0.66782,0.0154 0.55776,0.32105 0.23151,1.7048 -0.84469,3.582525 -2.72369,6.056435 -5.6472,7.435205 -1.48148,0.69869 -1.57428,0.71821 -3.61839,0.76946 -1.43724,0.0359 -2.37971,-0.0261 -2.99155,-0.19792 -1.51316,-0.42519 -2.950783,-1.0665 -2.983793,-1.33067 -0.0299,-0.23929 3.590303,-3.71131 5.450833,-5.22759 1.93945,-1.580605 5.54231,-2.878185 8.61032,-3.101095 0.4163,-0.0302 0.72567,-0.0573 0.94827,-0.0522 z M 73.471454,108.48277 c 0.5364,-0.005 2.0066,0.50062 3.59203,1.25161 2.65824,1.25916 3.76327,2.23367 3.54035,3.12177 -0.16349,0.6514 -0.97625,1.51488 -1.76061,1.8712 -0.75439,0.34273 -1.14538,0.37778 -1.84382,0.16537 -2.14248,-0.65175 -3.62994,-2.63946 -3.80493,-5.08496 -0.0533,-0.74563 -0.0145,-1.21598 0.10645,-1.29088 0.0361,-0.0223 0.0939,-0.0334 0.17053,-0.0341 z m 34.370526,16.01453 c 0.54386,0 1.87874,2.03031 3.67884,5.59501 1.90973,3.78192 2.61252,5.98764 2.22829,6.99492 -0.2706,0.70955 -1.56366,1.91764 -2.53835,2.37143 -1.64207,0.76461 -4.15332,0.42546 -5.54953,-0.74931 -0.71582,-0.60237 -2.17935,-0.89552 -5.14542,-1.03094 -5.212016,-0.238 -11.249116,1.14258 -16.126156,3.68814 -1.19994,0.62638 -2.20992,1.13895 -2.24431,1.13895 -0.0342,0 -0.14387,-0.15193 -0.24339,-0.33796 -0.32395,-0.60525 -0.20062,-1.14832 0.38705,-1.70274 1.08913,-1.02763 3.94618,-2.61824 6.33812,-3.52898 2.48087,-0.94467 9.01177,-2.64739 10.154423,-2.64739 0.96244,0 3.165903,0.49195 4.830713,1.07901 0.83752,0.29536 1.64404,0.49094 1.79214,0.43408 0.19362,-0.0743 0.26923,-0.35301 0.26923,-0.99219 0,-1.31256 1.21955,-8.03445 1.76785,-9.74359 0.10027,-0.31247 0.28046,-0.56844 0.4005,-0.56844 z m 71.66229,49.48327 c 0.70822,-0.01 0.22186,0.2886 -1.66915,0.8672 -0.98428,0.3012 -2.02561,0.653 -2.31407,0.7818 -0.28847,0.1288 -1.84754,0.7571 -3.46491,1.3963 -3.25079,1.2846 -5.10029,2.1309 -9.91981,4.5403 -3.01989,1.5097 -9.32283,5.1016 -11.52952,6.5701 -2.99172,1.9909 -3.73885,2.5225 -8.82944,6.2849 -5.52632,4.0844 -10.97879,8.8962 -15.17943,13.3956 -5.42533,5.8111 -9.23486,10.7974 -12.88346,16.8625 -0.89665,1.4905 -1.72782,2.8277 -1.84743,2.9719 -0.11956,0.1442 -0.62272,1.0491 -1.11828,2.0108 -0.49562,0.9615 -0.96984,1.8664 -1.05368,2.0107 -0.30581,0.526 -1.39888,2.9904 -1.39888,3.1538 0,0.092 -0.0785,0.168 -0.17467,0.168 -0.0961,0 -0.17518,-0.1217 -0.17518,-0.2703 0,-0.281 0.43834,-1.7115 1.58337,-5.1713 1.19229,-3.6024 4.6337,-10.8285 6.85901,-14.4022 2.48761,-3.995 5.48538,-8.1899 8.02638,-11.2308 1.71954,-2.0579 6.91459,-7.3472 8.97,-9.1328 5.02172,-4.3624 11.79153,-8.8269 18.00872,-11.8768 3.65311,-1.7922 3.70681,-1.8166 8.08581,-3.6137 4.28861,-1.7601 9.98943,-3.4104 16.30391,-4.7207 1.89667,-0.3935 3.16988,-0.5877 3.72071,-0.5953 z m -63.29846,11.5611 c 0.004,-3e-4 0.007,-1e-4 0.0103,0 0.0223,2e-4 0.0397,0.01 0.0532,0.021 0.0587,0.059 -0.82134,1.9014 -1.95544,4.0948 -4.96486,9.6021 -5.86536,11.6214 -7.78402,17.4501 -0.98922,3.0053 -2.44193,8.7956 -2.85099,11.3647 -0.75492,4.7415 -1.13661,11.9758 -0.85679,16.231 0.14383,2.1869 0.0526,2.8243 -0.28629,2.0056 -0.32305,-0.7804 -1.03392,-4.6326 -1.41335,-7.659 -0.33487,-2.6713 -0.37163,-3.6143 -0.29197,-7.4305 0.1225,-5.8678 0.63403,-9.1944 2.25981,-14.6864 0.28466,-0.9617 0.5973,-2.0236 0.69453,-2.3601 0.0972,-0.3366 0.23394,-0.6909 0.30386,-0.787 0.0699,-0.096 0.38728,-0.8436 0.70486,-1.6609 1.82004,-4.6844 5.07935,-9.8247 9.02116,-14.2276 1.51446,-1.6915 2.16573,-2.3385 2.39107,-2.3559 z"
       sodipodi:nodetypes="cccccsccccssscscscccsssscsssccsccccccscccccscsccscccccsscccccsccsssscscsscsccscsccccccsccccssssccsccccccccssccccssscccccscsscscccscssccsccssccsccssssscssscssscsccsssccsscsssssscccsssccccccscccsssssscsscssscssccssscsscccccccccssssssscscccc" /></g></svg>
