<?xml version="1.0" encoding="UTF-8" standalone="no"?>
<!-- Created with Inkscape (http://www.inkscape.org/) -->

<svg
   width="1023.9999"
   height="1023.9999"
   viewBox="0 0 270.93333 270.93333"
   version="1.1"
   id="svg1"
   xml:space="preserve"
   inkscape:export-filename="adversary-banshee.svg"
   inkscape:export-xdpi="96"
   inkscape:export-ydpi="96"
   inkscape:version="1.4.2 (ebf0e940, 2025-05-08)"
   sodipodi:docname="token-icons.svg"
   xmlns:inkscape="http://www.inkscape.org/namespaces/inkscape"
   xmlns:sodipodi="http://sodipodi.sourceforge.net/DTD/sodipodi-0.dtd"
   xmlns="http://www.w3.org/2000/svg"
   xmlns:svg="http://www.w3.org/2000/svg"><sodipodi:namedview
     id="namedview1"
     pagecolor="#ffffff"
     bordercolor="#666666"
     borderopacity="1.0"
     inkscape:showpageshadow="2"
     inkscape:pageopacity="0.0"
     inkscape:pagecheckerboard="0"
     inkscape:deskcolor="#d1d1d1"
     inkscape:document-units="mm"
     inkscape:zoom="0.094751701"
     inkscape:cx="-2258.5347"
     inkscape:cy="2005.2411"
     inkscape:window-width="2560"
     inkscape:window-height="1021"
     inkscape:window-x="0"
     inkscape:window-y="31"
     inkscape:window-maximized="1"
     inkscape:current-layer="layer1"><inkscape:page
       x="0"
       y="0"
       width="270.93332"
       height="270.93332"
       id="page2"
       margin="0"
       bleed="0" /></sodipodi:namedview><defs
     id="defs1" /><g
     inkscape:label="Layer 1"
     inkscape:groupmode="layer"
     id="layer1"><g
       id="g7"
       transform="matrix(0.71882009,0,0,0.71882009,-247.06399,-569.16524)"><ellipse
         style="opacity:1;fill:#ffffff;fill-opacity:1;stroke:none;stroke-width:8.35811;stroke-linecap:round;stroke-linejoin:round"
         id="path3-4-6-2"
         cx="532.16467"
         cy="980.26184"
         rx="188.45697"
         ry="188.45699" /><path
         id="path3-4-6"
         style="opacity:1;fill:#000000;fill-opacity:1;stroke:none;stroke-width:8.6523;stroke-linecap:round;stroke-linejoin:round"
         d="m 531.59108,805.42413 c -10.55665,-3.9e-4 -19.05994,0.71151 -29.60301,2.47825 -4.77699,0.80049 -10.66636,2.03495 -13.46093,2.82168 -11.83962,3.33305 -20.92229,6.55285 -28.20886,10.00007 -1.93554,0.91567 -3.93965,1.84012 -4.45357,2.05417 -0.51393,0.21404 -3.06585,1.52153 -5.67092,2.90553 -15.76379,8.37485 -28.43865,17.75748 -41.34885,30.60802 -10.92208,10.87162 -21.05893,24.26596 -28.0958,37.12517 -3.44269,6.29117 -5.01838,9.45665 -8.12972,16.32815 -0.80705,1.78248 -4.51829,11.49814 -5.32907,13.95139 -1.30693,3.95461 -1.41569,4.33988 -3.85938,13.67312 -1.36173,5.20076 -2.19573,9.5197 -3.40663,17.63831 -1.29549,8.68582 -1.52715,12.64812 -1.52756,26.11564 -3.6e-4,11.10579 0.0611,12.82583 0.62957,17.63832 2.82951,23.95395 9.10579,44.87995 19.19292,63.99015 1.9164,3.6308 7.68094,13.3517 9.204,15.5211 0.50053,0.7131 1.63663,2.3429 2.52469,3.6215 2.30255,3.3145 8.74592,11.3053 12.34807,15.3137 8.34129,9.2821 17.1112,17.2934 25.50415,23.2983 12.62927,9.036 23.3009,15.115 35.80008,20.3933 10.78236,4.553 14.75806,5.9109 25.10122,8.5734 12.20425,3.1415 23.57041,4.8702 35.38858,5.3822 2.41412,0.1045 4.75963,0.2079 5.21228,0.2307 2.25918,0.1126 16.59987,-0.5189 19.47745,-0.8577 11.18089,-1.3169 17.38591,-2.451 26.88435,-4.9139 8.63111,-2.2381 15.66901,-4.5962 22.49508,-7.5361 1.35793,-0.5849 3.66411,-1.5582 5.1244,-2.1633 5.3251,-2.2057 15.47723,-7.6878 21.48562,-11.6018 5.7163,-3.7237 13.67432,-9.4155 16.35749,-11.6997 1.30149,-1.1078 3.52357,-2.9666 4.93793,-4.1313 5.77261,-4.7525 15.8583,-15.1614 20.95143,-21.6225 5.74509,-7.2882 6.55567,-8.3811 9.56619,-12.9041 8.70364,-13.0762 15.42188,-26.8167 20.32402,-41.5662 3.00219,-9.0332 6.14949,-22.4622 7.01738,-29.9442 0.13086,-1.1281 0.42262,-3.5277 0.64832,-5.3326 1.47975,-11.83279 1.55273,-28.95745 0.17146,-40.16422 -1.54424,-12.529 -4.19919,-24.68886 -7.68018,-35.17462 -5.06583,-15.25976 -11.54,-29.09705 -19.06433,-40.74588 -5.50493,-8.52252 -8.62417,-12.6709 -15.23498,-20.26291 -4.07089,-4.67509 -14.11865,-14.74803 -17.01597,-17.05881 -1.12747,-0.89922 -2.61527,-2.1298 -3.30642,-2.73461 -1.88247,-1.64733 -10.4139,-7.99667 -13.69455,-10.19183 -9.61264,-6.43201 -23.2216,-13.49628 -33.05679,-17.15975 -22.56936,-8.40674 -41.39453,-11.89529 -64.19916,-11.89614 z m -15.21943,12.64443 c 6.08996,-0.68104 25.14442,-0.66248 31.27364,0.0303 11.74925,1.32829 18.95128,2.75159 30.17633,5.96437 9.48484,2.7147 23.12051,8.29953 31.28811,12.8148 19.11453,10.56707 34.23358,23.22564 48.78576,40.84522 0.51124,0.619 2.17031,2.78668 3.68684,4.8171 15.33389,20.53041 25.82993,46.06084 29.68018,72.19404 3.58734,24.34908 2.31416,47.41951 -3.84866,69.74911 -1.52022,5.5083 -4.81068,15.1537 -6.29192,18.4425 -0.20322,0.4513 -0.75974,1.8051 -1.23662,3.0083 -1.06833,2.6954 -7.025,14.2859 -9.34598,18.1853 -2.23488,3.7547 -7.23145,11.1819 -9.84213,14.6301 -9.64699,12.7422 -22.32163,24.9558 -34.47934,33.2257 -1.32631,0.9022 -2.51194,1.6402 -2.63453,1.6402 -0.46002,0 -0.18311,-1.3039 0.75493,-3.5551 4.14583,-9.9487 4.80898,-12.3134 4.98403,-17.7749 0.27465,-8.5695 -1.70132,-13.1718 -10.95606,-25.517 -3.14547,-4.1958 -4.33303,-6.0652 -4.33303,-6.8225 0,-0.2016 0.84768,-1.4683 1.88334,-2.8143 3.95736,-5.1433 4.44849,-7.5073 2.20269,-10.5978 -1.24129,-1.708 -7.12938,-7.847 -7.52641,-7.847 -0.19977,0 -0.4378,0.2339 -0.52883,0.5197 -0.54822,1.7219 -4.00023,6.1351 -7.40103,9.4617 -2.02506,1.9807 -8.77387,7.7937 -9.04861,7.7937 -0.70515,0 1.22156,-2.9792 6.72431,-10.3986 3.61378,-4.8725 6.38428,-9.2027 7.49801,-11.7183 0.99472,-2.2468 0.91787,-4.0887 -0.23361,-5.5937 -0.95511,-1.2482 -3.72357,-3.1027 -6.78754,-4.5474 -2.40156,-1.1324 -7.97885,-3.3022 -8.12542,-3.1612 -0.0454,0.043 0.18572,1.1087 0.51331,2.3671 0.83761,3.2173 1.00209,7.7995 0.40613,11.3118 -0.64272,3.7876 -1.3466,6.3666 -2.29109,8.3929 l -0.80424,1.7251 0.13288,-6.016 c 0.15864,-7.1886 -0.26291,-10.1213 -2.18125,-15.1773 -2.92698,-7.7144 -6.01707,-9.7462 -18.28743,-12.0275 -3.61424,-0.6721 -6.65462,-1.579 -9.84856,-2.9372 -1.82324,-0.7752 -2.30611,-1.1042 -2.46897,-1.6819 -0.507,-1.7986 0.0577,-17.62175 0.7528,-21.09134 0.82143,-4.10021 1.17487,-5.43813 1.46434,-5.54883 0.36186,-0.13839 3.61771,0.32329 7.59337,1.07675 1.68853,0.31999 3.9101,0.50046 6.3096,0.50046 3.51112,0.006 3.78512,-0.0333 5.2739,-0.76217 2.88422,-1.41184 4.08453,-3.44154 5.16084,-8.72622 0.89792,-4.40886 3.17859,-11.56083 4.86399,-15.25354 0.88364,-1.93595 2.95586,-7.24467 4.05602,-10.39103 0.55221,-1.57928 1.16969,-3.24048 1.37218,-3.69174 1.90285,-4.24005 2.12253,-7.95747 0.72493,-12.26626 -0.48078,-1.48234 -1.01565,-3.46254 -1.18893,-4.39998 -0.30947,-1.67426 -0.29849,-1.73728 0.6226,-3.58331 0.85709,-1.71768 1.02871,-1.8982 1.99587,-2.09851 1.6344,-0.33848 4.21876,-1.83502 5.25675,-3.04386 0.51567,-0.60051 0.87149,-1.15745 0.79083,-1.23807 -0.0806,-0.0806 -1.1775,-0.1107 -2.43736,-0.0673 -1.49805,0.0516 -2.35759,-0.029 -2.48398,-0.23286 -0.238,-0.38397 0.61745,-1.63292 3.18749,-4.65474 3.44737,-4.05331 5.80152,-8.14618 7.32762,-12.74002 1.21838,-3.66759 1.51032,-5.56876 1.50721,-9.8206 -0.002,-3.32631 -0.10385,-4.20514 -0.77317,-6.69984 -1.26553,-4.71695 -3.60002,-9.0873 -6.38514,-11.95222 -3.59668,-3.69952 -9.93257,-6.36965 -15.11388,-6.36975 -1.3117,-10e-5 -1.55951,-0.0978 -2.3318,-0.91973 -3.04785,-3.2434 -3.80331,-3.95745 -5.52787,-5.22623 -4.52291,-3.32761 -10.29673,-5.72564 -18.51728,-7.69059 -12.22412,-2.92191 -22.00021,-4.01039 -30.58782,-3.40546 -5.37981,0.37896 -8.75646,0.86982 -12.34485,1.7946 -10.23035,2.6365 -18.19635,6.87015 -25.44252,13.52142 -2.66106,2.44251 -6.57758,7.26897 -8.63337,10.63939 -3.5546,5.82772 -5.27779,9.76268 -7.74072,17.67571 -0.14044,0.45125 -0.51665,2.05098 -0.83638,3.55502 -0.31972,1.50403 -0.72932,2.8813 -0.91033,3.06042 -0.5426,0.53714 -9.82091,-2.23888 -22.09375,-6.6101 -5.41304,-1.92801 -5.54623,-0.87515 -0.74209,5.8741 4.26806,5.99608 15.25272,20.24805 18.60676,24.14105 l 1.36201,1.58043 -0.87068,2.79497 c -2.3248,7.46322 -4.13844,11.44917 -7.51193,16.51082 -3.55659,5.33626 -8.34468,10.67803 -14.06049,15.68562 -15.31504,13.41776 -19.75883,17.93452 -24.20321,24.60092 -6.20864,9.31283 -8.73829,18.10196 -8.03327,27.91302 0.29307,4.0784 0.51507,5.1735 1.82654,9.011 1.17929,3.4506 1.59618,4.3909 2.87512,6.4894 0.59339,0.9736 1.07857,1.809 1.07857,1.8555 0,0.046 -1.01845,0.9189 -2.26322,1.9382 -1.24478,1.0195 -3.12738,2.6678 -4.18354,3.6624 -1.05618,0.9947 -2.78445,2.4926 -3.84063,3.3285 -3.08234,2.4397 -6.86404,6.1265 -7.93682,7.7376 -1.52131,2.2847 -1.7546,3.9484 -0.99069,7.0636 0.6922,2.8228 2.11814,6.0186 4.66575,10.4572 1.82266,3.1757 4.54617,6.9643 5.00653,6.9643 0.40073,0 0.0882,0.9984 -1.12304,3.5886 -0.58914,1.2598 -1.65134,3.5829 -2.36075,5.1622 -1.90449,4.2396 -3.17894,6.5631 -3.60005,6.5631 -0.87778,0 -9.75255,-12.9525 -14.19283,-20.7144 -5.12178,-8.953 -8.25736,-15.9251 -12.5147,-27.8252 -2.85544,-7.9815 -4.65748,-14.9442 -6.61715,-25.5689 -3.02334,-16.39128 -3.35282,-34.99369 -0.91836,-51.87666 2.15536,-14.94742 6.03541,-28.89442 11.79513,-42.40055 2.29711,-5.38648 8.93943,-18.09452 11.11251,-21.26062 0.41293,-0.60163 1.5165,-2.32154 2.4529,-3.82205 1.88682,-3.02367 5.85112,-8.55995 8.20633,-11.46032 0.84078,-1.03542 1.89899,-2.34466 2.35163,-2.90981 7.98929,-9.97528 19.08125,-20.11556 31.8223,-29.09115 5.81041,-4.09322 14.194,-9.00617 20.8491,-12.21821 18.477,-8.91776 35.32201,-13.78325 55.55185,-16.0456 z m 52.31187,59.58913 c 0.92162,0.0541 1.96056,0.3398 3.26143,0.86578 3.38178,1.3674 6.72685,3.71048 9.94661,6.96795 l 2.83546,2.86869 2.10891,-2.08942 c 1.1597,-1.14922 2.32338,-2.08943 2.58631,-2.08943 1.05882,0 2.79437,4.18318 4.31106,10.39156 1.22557,5.01658 2.51707,10.98131 2.40253,11.09553 -0.0446,0.0445 -1.18984,0.63502 -2.54505,1.31283 -5.99573,2.99856 -9.78499,7.73212 -9.29829,11.6152 0.28852,2.30194 2.84195,9.2419 5.57179,15.14351 1.2196,2.63671 1.15122,3.13838 -0.69761,5.12901 -0.85164,0.91698 -2.39086,2.29182 -3.42056,3.05509 -1.98862,1.47407 -2.23542,1.87398 -2.21179,3.57905 0.0119,0.86405 0.20758,1.26297 0.99178,2.02211 0.73484,0.71142 0.97676,1.1722 0.97676,1.85817 0,1.19562 -0.71605,1.39086 -2.51184,0.68524 -2.49068,-0.97867 -3.95771,-0.66815 -9.55869,2.02428 -1.73513,0.83408 -4.06092,1.81816 -5.16886,2.18663 -2.61732,0.87035 -2.82492,1.09379 -1.66636,1.79618 1.31974,0.79998 2.98505,0.96659 5.73844,0.57311 3.2672,-0.46676 8.46758,-0.26611 9.43277,0.36426 0.82997,0.5421 1.00204,2.06748 0.29898,2.64917 -0.44499,0.36816 -0.823,0.34802 -7.38923,-0.39791 -1.95548,-0.22221 -3.6101,-0.34976 -3.67667,-0.28362 -0.0666,0.0663 0.51512,0.74458 1.29235,1.50725 1.44392,1.4168 1.6704,2.04694 1.07696,2.9942 -0.44854,0.71594 -0.28324,0.83376 2.82421,2.01625 1.44392,0.54945 2.91106,1.26453 3.26035,1.58897 0.59986,0.55708 0.62528,0.71998 0.45704,2.93758 -0.31704,4.17889 -1.56293,6.46054 -3.87705,7.10094 -1.88493,0.52163 -3.42178,0.3804 -7.54088,-0.69274 -11.67639,-3.04218 -30.58005,-10.7663 -37.02331,-15.12802 -3.81362,-2.58151 -5.3609,-5.63441 -7.14277,-14.09077 -0.73772,-3.50118 -0.99458,-4.12792 -1.97389,-4.82299 l -0.80263,-0.56988 -1.6685,0.74667 c -1.21053,0.54158 -2.27928,0.78313 -3.89312,0.88235 -2.84766,0.17436 -4.90638,-0.47561 -11.00321,-3.4749 -11.32394,-5.57077 -19.96641,-12.79439 -26.52912,-22.17341 -2.97051,-4.24523 -3.06278,-4.56827 -1.00516,-3.5219 2.32496,1.1824 3.25633,1.98397 4.85811,4.18152 2.35087,3.22523 5.81569,6.94071 8.95913,9.60751 1.50852,1.27975 2.84215,2.32709 2.96351,2.32709 0.12138,0 -0.33081,-1.01527 -1.00516,-2.25605 -1.24063,-2.28283 -1.69916,-3.60767 -2.08051,-6.01245 -0.30123,-1.89957 0.0265,-1.98164 3.68899,-0.9208 4.71126,1.36462 4.67314,1.32199 2.84617,3.14323 -1.06589,1.0625 -1.12174,1.19513 -0.9489,2.27261 0.41536,2.58928 2.94883,5.72703 5.88256,7.28574 1.63744,0.86995 5.16345,1.96213 8.78446,2.72127 2.53649,0.53166 3.95776,0.16227 4.7772,-1.24285 l 0.51866,-0.8893 -2.28091,-2.32763 c -1.25446,-1.28037 -2.43418,-2.6033 -2.62167,-2.93972 -0.1875,-0.33643 -0.34577,-1.32821 -0.35095,-2.20426 -0.009,-1.55881 -0.0427,-1.62731 -1.57043,-3.22386 -0.85851,-0.89722 -2.43249,-2.29333 -3.49771,-3.10209 -2.07451,-1.57524 -8.55903,-4.90104 -14.14462,-7.25477 -13.2433,-5.58069 -20.07319,-8.72056 -25.03584,-11.50836 -4.25432,-2.38991 -5.82475,-3.5358 -4.84471,-3.5358 0.16268,0 2.90941,0.85612 6.10383,1.9025 3.19444,1.04627 7.47465,2.39024 9.51155,2.98672 4.06656,1.19076 16.77186,5.56948 21.53493,7.42193 4.12878,1.60574 9.87335,4.23487 11.46989,5.24973 0.73448,0.46695 1.79608,1.51877 2.39503,2.37249 0.59174,0.84338 1.45502,2.03436 1.91816,2.64704 0.54777,0.72463 0.97688,1.75694 1.22806,2.9536 0.65917,3.14057 3.14824,6.6534 7.03186,9.92316 2.94372,2.47837 3.79129,2.99161 7.77929,4.71136 6.99736,3.01736 9.34634,4.32775 11.01393,6.14434 l 1.54204,1.67977 -0.15378,-1.36732 c -0.23408,-2.08355 -1.7204,-5.86538 -3.15748,-8.03296 -0.70881,-1.069 -2.46189,-3.19647 -3.89528,-4.72737 -4.69089,-5.00996 -6.3111,-7.75398 -6.30798,-10.68371 0.002,-2.28953 0.43898,-3.35455 3.27856,-8.00411 5.03395,-8.24253 5.41085,-8.73709 8.48549,-11.13558 2.21459,-1.72759 7.75488,-6.8176 10.05485,-9.23736 2.19339,-2.30763 3.11507,-3.37401 5.85041,-6.76874 3.28032,-4.07097 6.74321,-7.60315 8.09327,-8.2546 0.83108,-0.40107 1.63523,-0.5785 2.55684,-0.52449 z m -9.13594,22.65784 c -1.95929,0 -5.35037,0.96516 -7.91431,2.25287 -2.23731,1.12368 -5.79672,3.57246 -5.38962,3.70775 0.18253,0.0607 1.77633,-0.29742 3.54164,-0.79528 2.72886,-0.7697 3.66145,-0.90565 6.22708,-0.91599 2.88785,-0.0104 3.09684,0.0286 4.85436,0.90798 1.01008,0.50531 2.01845,1.12061 2.24072,1.36732 0.37123,0.41176 0.21033,0.45114 -1.9739,0.47801 -2.7325,0.0337 -4.28432,0.52223 -9.99644,3.14642 -1.92717,0.88535 -3.74085,1.60981 -4.0303,1.60981 -0.97321,0 -0.83186,0.47347 0.50044,1.67601 3.55545,3.20899 7.39925,5.75262 9.64067,6.37937 1.12947,0.31565 2.25247,0.3834 4.47608,0.26919 1.63249,-0.0838 3.14402,-0.21962 3.35895,-0.30231 0.64049,-0.24495 0.20864,-0.55518 -1.03999,-0.74721 -2.50262,-0.3849 -6.3381,-1.94095 -7.69787,-3.12345 -0.43924,-0.3819 -0.44502,-0.45195 -0.0573,-0.66818 0.82699,-0.46137 5.76327,-2.0999 6.34014,-2.11024 0.92753,-0.009 1.9357,0.979 2.86278,2.80726 0.99711,1.96623 1.48273,2.56469 2.50969,3.09409 1.2827,0.66116 1.55294,0.51137 1.64491,-0.91174 0.0801,-1.24026 0.13864,-1.32293 1.40863,-1.99061 0.93973,-0.49404 1.59267,-1.11946 2.24499,-2.15085 1.25161,-1.97874 1.7603,-2.49481 2.45988,-2.49481 1.20297,0 2.39087,-2.16007 1.79654,-3.26712 -0.42008,-0.7824 -3.75181,-2.75044 -8.51764,-5.03181 -5.26147,-2.51867 -7.25018,-3.18648 -9.49011,-3.18648 z m 31.17238,17.62443 c 0.98799,0.008 1.41233,1.19134 0.82513,2.73088 -0.24609,0.64473 -0.3946,0.69902 -1.85173,0.67938 -1.8073,-0.0247 -2.27019,-0.15489 -2.27019,-0.63931 0,-0.4681 1.91189,-2.34915 2.69294,-2.6497 0.21878,-0.0842 0.42088,-0.12281 0.60385,-0.12125 z m -6.3321,20.2501 c -1.12611,-0.0791 -2.9085,0.32654 -4.40644,1.13924 -1.30652,0.70881 -1.89291,1.60341 -1.48363,2.26355 0.26343,0.4249 0.8421,0.36256 3.5781,-0.38562 2.49692,-0.68278 3.42697,-1.31631 3.42697,-2.33405 0,-0.41341 -0.43933,-0.6356 -1.115,-0.68312 z m -10.47812,1.33739 c -0.0534,0.002 -0.0922,0.0906 -0.13182,0.25638 -0.16446,0.68731 0.43515,2.03699 1.11608,2.51244 0.78182,0.54592 0.90314,0.29096 0.29094,-0.61102 -0.28394,-0.41828 -0.68963,-1.1297 -0.90175,-1.58096 -0.18678,-0.39728 -0.29552,-0.57975 -0.37345,-0.57684 z m -54.5376,32.16173 c 8.8e-4,-10e-5 0.002,0 0.003,0 0.22516,0 2.46108,2.78787 6.47033,8.06713 7.16475,9.43424 16.34052,18.99583 22.00591,22.93139 l 1.98888,1.3817 v 4.5692 c 0,6.2419 0.72262,9.9051 2.69079,13.6412 1.14649,2.1762 3.21142,4.6489 3.88242,4.6489 0.50176,0 2.17566,-1.6573 2.74492,-2.7176 0.30457,-0.5673 0.40623,-0.5746 5.57767,-0.3984 4.06244,0.1384 5.37479,0.2723 5.73522,0.5849 1.30004,1.1268 8.79101,14.633 10.20756,18.4041 l 0.46668,1.2428 -0.90712,1.4176 c -0.49907,0.7794 -1.02025,1.4228 -1.15786,1.4228 -0.13761,0 -1.3721,-0.6444 -2.7433,-1.4399 -3.76197,-2.1826 -5.58892,-3.0044 -6.27798,-2.8233 -0.40283,0.106 -1.1372,1.0682 -2.20268,2.8859 -0.87915,1.4997 -1.95998,3.2244 -2.40201,3.8327 -0.77983,1.0731 -1.51351,1.3767 -2.04837,0.8481 -0.14333,-0.1417 -1.86575,-0.9493 -3.82722,-1.7951 -3.65698,-1.5769 -7.45624,-2.8783 -15.63681,-5.3566 -5.02627,-1.5226 -4.85995,-1.4308 -9.63639,-5.3298 -1.48965,-1.216 -3.6175,-2.8564 -4.72898,-3.6453 -1.11148,-0.789 -2.94256,-2.1645 -4.06887,-3.0567 -1.12633,-0.8921 -3.26548,-2.483 -4.75362,-3.5347 -2.54145,-1.7962 -3.19862,-2.3677 -2.96942,-2.5824 0.1547,-0.145 7.31434,0.3639 9.56029,0.6793 4.77546,0.671 11.02205,1.8277 13.99084,2.5905 0.62751,0.1613 0.6042,0.1038 -0.27433,-0.6752 -1.29243,-1.146 -3.83329,-2.5293 -6.19118,-3.3701 -4.99579,-1.7815 -14.63534,-3.9066 -21.92765,-4.8341 l -4.11496,-0.5235 -5.08207,-2.5445 c -2.79516,-1.3995 -7.08501,-3.2828 -9.53297,-4.1853 -2.44798,-0.9024 -4.41191,-1.758 -4.36411,-1.9009 0.0478,-0.1428 1.62174,-0.947 3.49771,-1.7876 6.63783,-2.9746 10.84577,-5.557 13.58203,-8.3358 1.81737,-1.84566 4.38512,-5.54759 5.79094,-8.34864 1.95147,-3.88835 4.32972,-11.03513 5.98329,-17.98018 0.25759,-1.08187 0.55737,-1.9688 0.66974,-1.9826 z m -76.34631,6.70624 c 0.16733,-0.004 0.0965,0.22425 -0.28075,0.73813 -9.2885,12.65163 -13.2581,25.78355 -11.14145,36.85665 0.30176,1.5786 0.54866,2.9515 0.54866,3.0507 0,0.1613 -1.85029,1.7063 -4.61593,3.8542 -1.12086,0.8704 -1.64114,0.9461 -1.88281,0.2735 -0.0945,-0.2634 -0.39793,-1.0655 -0.67456,-1.7824 -2.06696,-5.3557 -1.97469,-13.3899 0.232,-20.1631 1.83157,-5.6217 6.1696,-12.40122 10.95927,-17.12769 3.22404,-3.18157 6.30898,-5.68528 6.85557,-5.69999 z m 21.53492,35.26698 c 2.96853,-0.1136 6.6246,-0.047 9.37331,0.258 12.19346,1.3565 27.47069,7.7113 43.2713,17.9989 1.74103,1.1335 3.33028,2.2585 3.53147,2.5001 0.5561,0.668 0.091,0.5336 -2.30769,-0.6675 -10.33092,-5.1732 -27.31732,-11.834 -37.99474,-14.8989 -6.37089,-1.8288 -14.8278,-3.5541 -18.99039,-3.874 -1.4087,-0.1084 -2.13303,-0.2775 -2.13303,-0.4982 0,-0.4113 2.28125,-0.7045 5.24977,-0.8184 z m -8.54173,16.3566 c 8.73136,-0.2054 18.2554,0.6022 26.47286,2.2443 1.05618,0.2112 3.64859,0.7064 5.76093,1.1007 10.03944,1.8743 28.3779,7.3976 40.05221,12.0633 7.8519,3.1382 20.70207,9.5662 22.29253,11.1516 0.35533,0.3542 -0.72248,0.091 -2.26643,-0.5533 -1.5824,-0.6607 -9.13852,-3.2197 -16.32265,-5.528 -8.01451,-2.5749 -20.41791,-5.5592 -29.62765,-7.1281 -16.36339,-2.7875 -26.12198,-3.6606 -41.01237,-3.6709 -13.31322,-0.01 -20.66221,0.6776 -30.4244,2.8409 -2.92256,0.6475 -9.05432,2.3934 -11.88567,3.384 -1.91255,0.6693 -3.09157,0.872 -3.09157,0.5315 0,-1.2619 6.67708,-6.3088 12.34753,-9.3329 5.43438,-2.8981 10.27314,-4.5736 18.10312,-6.2689 2.67687,-0.5795 4.13144,-0.7057 9.60156,-0.8342 z m 117.24132,18.5132 c 0.18124,0 1.74458,0.9624 3.47414,2.139 1.72955,1.1765 3.73099,2.4735 4.44768,2.8826 1.21339,0.6926 1.30306,0.7073 1.30306,0.2153 0,-0.7863 1.89617,-4.464 2.20376,-4.2746 0.14593,0.089 0.26521,1.4567 0.26521,3.037 0,1.5802 0.13714,3.1414 0.30488,3.4701 0.16775,0.3286 1.16,1.4665 2.20482,2.5285 l 1.89995,1.9302 -0.27272,2.9921 c -0.14988,1.6452 -0.40282,6.3756 -0.56205,10.5118 -0.29259,7.6007 -0.71145,14.7545 -0.98856,16.8863 -0.0831,0.6391 -0.24008,1.1621 -0.34933,1.1621 -0.10925,0 -0.60668,-0.8305 -1.10536,-1.8459 -2.43153,-4.9501 -8.67988,-12.7503 -16.5343,-20.641 l -4.89239,-4.9152 3.34875,-6.7406 c 3.70911,-7.4643 4.76315,-9.3377 5.25246,-9.3377 z m -20.70281,2.984 c 0.33974,-0.012 1.10574,0.2033 2.28786,0.6009 2.34072,0.7874 7.61374,3.2767 7.61374,3.5945 0,0.1418 -0.44974,0.984 -0.99926,1.8715 -0.54953,0.8876 -1.01685,1.6141 -1.03892,1.6141 -0.0221,0 -0.49184,-0.5392 -1.04428,-1.1981 -0.55243,-0.6587 -2.36891,-2.2794 -4.0362,-3.6015 -2.52684,-2.0034 -3.43157,-2.8578 -2.78294,-2.8814 z m 22.62741,1.3913 c -0.15545,0.019 -0.84283,1.2113 -1.53615,2.6663 -0.69877,1.4665 -1.92863,3.8788 -2.73257,5.3614 l -1.46168,2.6956 2.46898,2.2192 c 1.35793,1.2206 4.5676,4.2834 7.13257,6.8055 2.565,2.5223 4.72999,4.5871 4.81097,4.5881 0.13302,0 1.79417,-12.3713 2.11266,-15.7364 l 0.13074,-1.3807 -2.12766,-1.4902 c -1.1703,-0.8195 -2.75754,-1.9495 -3.52719,-2.5108 -1.79943,-1.3122 -4.91874,-3.218 -5.26692,-3.218 -10e-4,0 -0.002,-10e-5 -0.004,0 z m -56.89298,2.136 c 0.88602,0.3489 0.56833,0.4486 -2.7433,0.8583 -1.43336,0.1772 -4.21096,0.5693 -6.17242,0.8711 -13.56986,2.0878 -30.12129,7.6984 -44.03,14.9256 -3.47683,1.8065 -5.85174,3.1387 -14.95099,8.3865 -5.80941,3.3505 -23.36366,15.731 -28.02348,19.764 -0.92847,0.8036 -1.9199,1.4614 -2.2032,1.4614 -0.2833,0 -1.22126,-0.7116 -2.08428,-1.581 l -1.56936,-1.5804 1.57794,-1.5125 c 5.15511,-4.9413 11.25683,-10.1044 16.87238,-14.2773 10.28263,-7.6409 14.94346,-10.5471 24.20857,-15.0943 6.97822,-3.4248 9.23899,-4.3524 15.49965,-6.3596 9.33198,-2.992 16.32989,-4.555 24.27822,-5.4228 4.87479,-0.5319 18.32821,-0.8375 19.34027,-0.439 z m 58.84383,3.0603 c 0.15088,3e-4 1.20019,0.6145 2.33181,1.3647 l 2.05747,1.3641 0.13717,3.8995 c 0.0755,2.1448 0.0755,3.978 0,4.0752 -0.0755,0.097 -0.97387,-0.8419 -1.9964,-2.0852 -1.02253,-1.2432 -2.58993,-2.8599 -3.48323,-3.5933 -0.8933,-0.7336 -1.6302,-1.5569 -1.63849,-1.83 -0.0155,-0.5366 2.14146,-3.1959 2.59167,-3.195 z"
         sodipodi:nodetypes="sssssssssssssssssssssscsssssssssssssssssssssssssscssssssssssssssscsssssssssscsssssssscsssssssssssssssssssssssssssssssccsscssssssssssssssssssssssssssssssccsssssssssssssssssssssssssssssscscssssssssssssssccscssssssssssssssscsssssssssssssscsssssssscssscssssssssssssssssssssssssssssssscssssssscccssssssssssssssssscssscssssscsssscsssssscssssssscssssscsssssssssssssccssssssccssssssssscssssscscssscsssssssccsssscssscsssscssscs" /></g></g></svg>
