<?xml version="1.0" encoding="UTF-8" standalone="no"?>
<!-- Created with Inkscape (http://www.inkscape.org/) -->

<svg
   width="1023.9999"
   height="1023.9999"
   viewBox="0 0 270.93333 270.93333"
   version="1.1"
   id="svg1"
   xml:space="preserve"
   inkscape:export-filename="adversary-banshee.svg"
   inkscape:export-xdpi="96"
   inkscape:export-ydpi="96"
   inkscape:version="1.4.2 (ebf0e940, 2025-05-08)"
   sodipodi:docname="token-icons.svg"
   xmlns:inkscape="http://www.inkscape.org/namespaces/inkscape"
   xmlns:sodipodi="http://sodipodi.sourceforge.net/DTD/sodipodi-0.dtd"
   xmlns="http://www.w3.org/2000/svg"
   xmlns:svg="http://www.w3.org/2000/svg"><sodipodi:namedview
     id="namedview1"
     pagecolor="#ffffff"
     bordercolor="#666666"
     borderopacity="1.0"
     inkscape:showpageshadow="2"
     inkscape:pageopacity="0.0"
     inkscape:pagecheckerboard="0"
     inkscape:deskcolor="#d1d1d1"
     inkscape:document-units="mm"
     inkscape:zoom="0.094751701"
     inkscape:cx="-2258.5347"
     inkscape:cy="2005.2411"
     inkscape:window-width="2560"
     inkscape:window-height="1021"
     inkscape:window-x="0"
     inkscape:window-y="31"
     inkscape:window-maximized="1"
     inkscape:current-layer="layer1"><inkscape:page
       x="0"
       y="0"
       width="270.93332"
       height="270.93332"
       id="page2"
       margin="0"
       bleed="0" /></sodipodi:namedview><defs
     id="defs1" /><g
     inkscape:label="Layer 1"
     inkscape:groupmode="layer"
     id="layer1"><g
       id="g8"
       transform="matrix(0.71882009,0,0,0.71882009,52.115531,-560.74064)"><ellipse
         style="opacity:1;fill:#ffffff;fill-opacity:1;stroke:none;stroke-width:8.35811;stroke-linecap:round;stroke-linejoin:round"
         id="path3-4"
         cx="115.95549"
         cy="968.54181"
         rx="188.45697"
         ry="188.45699" /><path
         id="path1"
         style="fill:#000000"
         d="m 116.47903,793.90246 c -14.05324,-0.005 -19.695848,0.45826 -32.014588,2.62774 -6.69689,1.17941 -16.672421,3.68113 -21.719601,5.4467 -12.034743,4.20992 -15.097348,5.48972 -25.033097,10.46189 -14.97434,7.49366 -30.0169116,18.50276 -42.9606856,31.44098 -7.7644744,7.76115 -12.5342804,13.33026 -18.9357944,22.11027 -7.007668,9.61137 -15.007641,23.99047 -19.284095,34.66042 -3.581361,8.93565 -6.021178,16.25483 -7.893575,23.68021 -2.722368,10.79613 -3.048431,12.56625 -4.532023,24.60625 -1.794239,14.56102 -1.517179,30.24699 0.822689,46.56667 0.6512,4.54191 2.847372,15.23381 3.549654,17.28111 0.184271,0.5372 0.490641,0.2184 2.063956,-2.1461 0.80273,-1.2064 2.660638,-3.8457 4.128431,-5.8653 1.568765,-2.1585 2.617447,-3.8442 2.544547,-4.0897 -0.180629,-0.6081 -0.863184,-4.75157 -1.311031,-7.95814 -0.346561,-2.48137 -0.514562,-3.8179 -1.082621,-8.59896 -0.416274,-3.50354 -0.632662,-15.5512 -0.394291,-21.96041 0.457196,-12.29282 1.787176,-21.78711 4.632792,-33.07292 1.778414,-7.05324 2.627678,-9.74928 6.211507,-19.71146 1.867574,-5.19141 5.610609,-13.27691 9.06353,-19.57917 4.954459,-9.04287 7.641639,-13.30146 12.573392,-19.92849 4.9976174,-6.71554 9.0669684,-11.3606 16.0398484,-18.30793 9.1672886,-9.13371 19.2073556,-17.32111 27.3859256,-22.333 17.924309,-10.98417 37.788532,-18.68044 56.379502,-21.84363 2.25557,-0.38378 5.11074,-0.87164 6.34483,-1.08366 11.334728,-1.94734 25.592978,-2.1626 41.412458,-0.62528 7.7367,0.75185 17.64497,2.81401 27.77815,5.78052 2.0356,0.59593 3.99232,1.08314 4.34806,1.08314 0.35575,0 1.81652,-0.59532 3.24631,-1.32292 1.4298,-0.72761 2.68967,-1.32291 2.79983,-1.32291 0.11015,0 0.40664,0.58121 0.65887,1.29139 0.49655,1.39808 1.20013,2.05213 3.6866,3.42977 1.996,1.10589 1.98496,1.10694 5.37177,-0.35037 0.43656,-0.18785 1.50812,-0.61694 2.38125,-0.95343 0.87312,-0.3365 2.53099,-1.05309 3.68401,-1.59215 l 2.09651,-0.97979 -2.44481,-1.22783 c -2.68772,-1.34985 -11.27638,-4.92446 -15.63884,-6.50864 -2.39606,-0.8701 -4.52634,-1.51646 -11.77396,-3.57291 -0.72761,-0.20645 -2.39447,-0.61561 -3.70416,-0.90951 -1.30969,-0.2939 -2.79798,-0.6466 -3.3073,-0.78393 -3.31428,-0.89362 -12.97617,-2.42721 -20.4897,-3.252 -4.62961,-0.50822 -6.75974,-0.58352 -16.68425,-0.58652 z m 82.96031,18.3751 c -0.18445,-3e-4 -0.34081,0.39561 -0.50902,1.14722 -0.38416,1.7166 -1.42555,3.42619 -3.28765,5.39863 -2.58441,2.73754 -5.64163,4.58116 -10.63656,6.41408 -0.87312,0.32039 -1.85369,0.68775 -2.1792,0.81649 -0.61787,0.24437 -5.75908,1.64001 -8.27184,2.24534 -2.01943,0.48649 -8.49898,1.7075 -9.05991,1.70739 -0.37051,-7e-5 -0.27749,-0.2407 0.47284,-1.2237 0.51378,-0.67308 1.16752,-1.68512 1.45314,-2.24895 0.28563,-0.56384 0.74506,-1.47175 1.02061,-2.01745 0.94956,-1.88051 2.86116,-8.16866 2.57142,-8.4584 -0.0445,-0.0445 -0.54556,0.29453 -1.11363,0.75344 -5.24773,4.23925 -13.77833,7.62521 -21.95938,8.71627 -3.13229,0.41774 -11.10724,0.16528 -16.90905,-0.53537 -7.67442,-0.9268 -15.72908,-1.59809 -19.18229,-1.59835 -13.746118,-10e-4 -24.822768,3.56079 -34.006188,10.93524 -3.73564,2.99979 -7.402593,7.35945 -8.578293,10.19783 -0.69843,1.68616 -1.267597,0.55996 -1.309997,-2.5926 -0.03644,-2.71132 0.421373,-5.07286 1.462443,-7.54425 0.48627,-1.15433 0.820924,-2.16235 0.743624,-2.23965 -0.40307,-0.40307 -4.715956,5.04833 -5.906616,7.46569 -1.7745,3.60274 -1.996641,5.61896 -1.045931,9.49555 0.309349,1.26134 0.516069,2.3253 0.465604,2.3921 -2.08e-4,2.3e-4 -0.0013,10e-4 -0.0015,0.002 l -5.17e-4,5.1e-4 h -5.17e-4 c -0.0596,0.0355 -1.370914,0.70178 -2.914034,1.48053 -10.691353,5.39551 -17.444816,15.40715 -18.766296,27.82001 -0.43846,4.11853 -0.303855,4.54636 0.748275,2.38125 1.13612,-2.33796 3.389657,-5.77886 4.729427,-7.22126 1.35994,-1.46411 1.788824,-1.75853 1.574064,-1.08004 -0.54178,1.71159 -1.255967,5.94937 -1.520837,9.0227 -0.50736,5.88708 0.180306,12.71877 1.885156,18.72548 1.34526,4.73976 1.878042,6.25694 4.365625,12.4318 3.29927,8.18971 4.365732,12.13452 4.366142,16.15043 8.1e-4,7.90294 -2.645021,14.08826 -7.409884,17.32401 -1.24443,0.84507 -2.061055,1.17587 -5.018815,2.03192 -0.56645,0.16394 1.904482,1.45045 4.101042,2.13527 2.983523,0.93017 4.077178,1.10976 6.872448,1.12706 l 2.645834,0.0165 -1.058334,0.91622 c -1.13664,0.98393 -5.536005,3.29695 -6.270418,3.29695 -1.01354,0 -0.664282,0.56046 0.814421,1.3069 3.26954,1.65046 4.21725,1.9061 7.63881,2.05931 1.78263,0.0798 3.241146,0.23624 3.241146,0.34778 0,0.11154 -0.522153,1.49452 -1.160653,3.0732 -2.68357,6.63518 -6.683389,14.64406 -7.313249,14.64406 -0.25244,0 -1.276757,-0.31137 -2.276347,-0.69194 -7.210813,-2.74537 -15.691834,-4.51672 -22.851834,-4.77284 -7.97325,-0.28521 -13.553634,1.28436 -17.110584,4.81263 l -1.632975,1.61954 -4.5847336,0.30851 c -7.816509,0.52566 -13.47975,1.87374 -20.1956664,4.80797 -5.153315,2.25152 -10.728451,5.80293 -14.419791,9.18549 -2.375621,2.1769 -8.799345,8.88354 -8.955526,9.34984 -0.05059,0.151 0.723314,-0.2531 1.719792,-0.8976 4.159516,-2.6907 12.668898,-6.26586 18.215942,-7.65384 0.291041,-0.0728 1.66026,-0.43731 3.042708,-0.80977 9.4087724,-2.53494 24.008291,-2.99296 35.057293,-1.09968 1.30968,0.22442 3.400311,0.58017 4.645711,0.79065 3.59474,0.60753 11.457312,2.58914 13.081372,3.29696 0.29104,0.12684 1.71979,0.67721 3.174999,1.22266 2.58358,0.96839 8.867129,3.59122 11.244792,4.69382 1.5986,0.7412 8.998488,5.0234 10.980208,6.3541 6.55557,4.4018 15.12378,11.9504 19.71559,17.369 4.93268,5.8207 8.53844,11.3132 11.38639,17.3452 2.00371,4.2438 2.30678,4.9721 3.46077,8.3235 2.076208,6.0296 3.047638,11.342 3.315558,18.1255 0.13646,3.455 0.0996,4.2909 -0.20206,4.5403 -0.30655,0.2534 -8.063018,1.6451 -15.318958,2.7486 -4.33389,0.6592 -9.98247,1.6005 -13.46481,2.2438 -2.759842,0.5099 -3.960975,0.6313 -4.365625,0.4408 -0.30703,-0.1445 -1.927323,-1.424 -3.600813,-2.8432 -3.5003,-2.9685 -6.770051,-5.4689 -11.152291,-8.5282 -3.027093,-2.1132 -8.881961,-5.8797 -9.140011,-5.8797 -0.07221,0 -0.447281,-0.2191 -0.833541,-0.4873 -0.38627,-0.2682 -1.773842,-1.0611 -3.083532,-1.7617 -1.309679,-0.7005 -2.831662,-1.5569 -3.382222,-1.9027 -2.03252,-1.2766 -8.270809,-4.227 -13.418819,-6.3469 -1.23692,-0.5093 -2.546617,-1.0501 -2.910417,-1.202 -6.677281,-2.7874 -17.7678516,-6.1378 -23.9447916,-7.2331 -1.309687,-0.2323 -3.665595,-0.6491 -5.23534,-0.9266 -4.0690184,-0.7193 -10.3367294,-1.3068 -13.9180134,-1.3038 -5.798594,0 -14.553524,0.7276 -17.715715,1.4635 -0.414493,0.096 -0.586024,0.039 -0.515214,-0.1736 0.144327,-0.433 4.400302,-1.9412 8.130254,-2.881 10.999062,-2.7715 24.1484374,-2.7209 39.1759034,0.1509 2.6921346,0.5144 5.2519806,1.0464 5.6885406,1.1823 0.43656,0.136 1.86531,0.5538 3.175,0.9282 3.02675,0.8651 9.233548,2.8629 11.641668,3.747 4.81823,1.769 13.487224,5.9743 20.240624,9.8191 4.610713,2.6249 11.895368,7.4666 15.742708,10.4634 1.89177,1.4735 3.975359,3.0852 4.630209,3.5812 0.65484,0.496 1.286128,1.0623 1.402498,1.2583 0.29603,0.4986 1.50446,0.4477 6.66729,-0.2811 2.47385,-0.3492 7.4017,-1.0331 10.95076,-1.5193 l 6.45283,-0.8842 -0.15968,-2.7792 c -0.48647,-8.4669 -2.51328,-15.8729 -6.04666,-22.0932 -5.78283,-10.1803 -13.78151,-19.034 -24.231593,-26.8216 -9.49123,-7.0731 -17.415245,-11.2781 -28.372944,-15.057 -18.386611,-6.34068 -33.3731286,-7.49201 -48.551043,-3.72894 -1.504105,0.37292 -5.937353,1.79934 -6.879166,2.21334 -0.436563,0.1919 -1.329532,0.5669 -1.984375,0.833 -4.967104,2.0187 -12.599797,6.526 -16.36541,9.664 -5.384716,4.4873 -10.622091,9.5172 -10.622091,10.2014 0,0.861 4.297289,12.803 5.736084,15.9407 0.368966,0.8046 0.903747,2.0583 1.188558,2.7859 0.726011,1.8547 5.010394,10.2991 6.913274,13.626 0.873957,1.528 2.118071,3.7306 2.764689,4.8948 5.205389,9.3717 16.96862,24.2463 26.6939774,33.7535 3.511665,3.4329 10.303049,9.4417 13.324252,11.7894 8.0880786,6.285 11.1280706,8.3848 19.9760416,13.7961 6.04895,3.6995 21.321275,11.2573 25.267708,12.5041 1.23663,0.3906 4.983205,1.7976 5.866825,2.2035 0.91682,0.421 6.114203,2.1957 7.494633,2.559 0.43656,0.1148 2.282032,0.6394 4.101042,1.1658 5.471418,1.5833 10.002428,2.5515 19.314578,4.1269 3.65605,0.6186 10.07912,1.3695 14.552088,1.7012 l -5.2e-4,-5e-4 c 8.95938,0.6643 24.61133,0.2316 32.80833,-0.9069 11.58245,-1.6086 20.13025,-3.3722 27.51667,-5.6782 1.09141,-0.3407 2.57969,-0.8058 3.30729,-1.0336 9.56691,-2.9946 22.12463,-8.302 29.67364,-12.5413 1.28757,-0.723 3.05533,-1.7073 3.92845,-2.187 1.50503,-0.8271 3.03716,-1.7619 9.76684,-5.9583 4.77634,-2.9783 12.42236,-8.5844 16.47445,-12.0793 6.00658,-5.1807 7.48234,-6.5145 10.76265,-9.7265 10.48979,-10.2714 21.2453,-24.1681 28.27269,-36.5306 0.37224,-0.6549 0.94818,-1.6669 1.28003,-2.249 1.13277,-1.9869 5.46377,-10.8418 6.7293,-13.7583 0.6946,-1.6007 1.58789,-3.6248 1.98489,-4.4979 0.397,-0.8732 1.08593,-2.5996 1.53118,-3.8365 1.22273,-3.3968 2.63158,-7.459 2.84478,-8.2021 0.10438,-0.3638 0.27726,-0.7805 0.38396,-0.926 0.10669,-0.1455 0.27881,-0.5623 0.38241,-0.9261 0.47726,-1.6759 0.70531,-2.5033 1.71307,-6.2177 0.59222,-2.1828 1.19315,-4.3854 1.33532,-4.8948 0.14217,-0.5093 0.50124,-2.2357 0.7984,-3.8364 0.29716,-1.6007 0.65897,-3.5057 0.80408,-4.2333 0.53557,-2.68559 1.32497,-8.09725 2.02624,-13.89068 0.686,-5.66703 0.72164,-6.54439 0.73484,-18.25625 0.0125,-11.06213 -0.047,-12.86357 -0.58911,-17.85937 -1.16487,-10.73581 -2.48235,-18.63913 -4.21215,-25.26771 -0.20886,-0.80036 -0.61206,-2.40772 -0.89607,-3.57188 -0.28402,-1.16417 -0.68241,-2.65245 -0.88522,-3.30729 -0.20282,-0.65485 -0.62794,-2.0836 -0.94464,-3.175 -6.0107,-20.71362 -17.30292,-42.00197 -31.71848,-59.79583 -6.56352,-8.10168 -18.12308,-19.64637 -24.92561,-24.89357 -8.54919,-6.5945 -12.58704,-9.50227 -13.19558,-9.50227 -0.15748,0 -0.21924,0.26225 -0.14004,0.59532 0.51252,2.15638 0.92401,6.43217 0.92501,9.61491 l 0.002,3.72794 1.52136,1.19941 c 6.67958,5.26804 9.34193,7.58836 14.52263,12.65711 7.0207,6.86898 14.18233,15.25143 18.83502,22.0462 1.10846,1.61878 2.39441,3.44358 2.85771,4.05505 1.00565,1.32724 4.58597,7.07557 6.23993,10.01799 10.12846,18.01869 16.85393,37.60508 19.6634,57.26524 1.13185,7.92049 1.38943,10.5848 1.73839,17.99167 0.71006,15.07137 -0.92113,31.77677 -4.54701,46.56671 -0.73135,2.9831 -1.55028,6.1383 -1.81952,7.0114 -1.16874,3.7902 -2.15262,6.768 -2.92851,8.8636 -0.45798,1.2369 -0.92476,2.5466 -1.03714,2.9104 -0.24866,0.8049 -3.25508,8.0603 -4.13877,9.988 -0.35021,0.764 -0.92985,2.0267 -1.28829,2.806 -0.65507,1.4243 -3.44084,6.5695 -5.82239,10.7539 -4.55903,8.0102 -13.86971,20.7752 -20.26336,27.7812 -1.3944,1.528 -2.76204,3.0461 -3.03909,3.3735 -0.27704,0.3274 -0.58424,0.5953 -0.68264,0.5953 -0.18028,0 -1.50564,-3.056 -4.07417,-9.3927 -0.76681,-1.8918 -1.73644,-4.273 -2.15491,-5.2917 -1.769,-4.3061 -1.82539,-4.6076 -1.34411,-7.197 0.23801,-1.2805 0.64742,-3.3258 0.91003,-4.5454 l 0.47749,-2.2175 -1.7198,-1.5776 c -11.11619,-10.1953 -16.49749,-14.4643 -26.89293,-21.3357 -3.22219,-2.1299 -6.58564,-4.3265 -7.47448,-4.8813 -0.88884,-0.5548 -1.82434,-1.3178 -2.07894,-1.6955 -1.26941,-1.8832 -3.74557,-4.0038 -6.41615,-5.4953 -4.29033,-2.3961 -4.32938,-2.4166 -4.94698,-2.5751 -0.46998,-0.1205 -0.33461,0.1474 0.70693,1.3989 5.808,6.979 10.08474,16.3366 12.15378,26.5917 0.93456,4.6321 2.23697,14.7991 2.67374,20.8752 0.16703,2.3236 0.43159,4.4667 0.58808,4.7625 0.1565,0.2958 1.30747,1.5103 2.55798,2.6985 1.25051,1.1883 3.64298,3.4911 5.31647,5.1176 1.67349,1.6264 3.28407,3.1208 3.57911,3.3212 0.47682,0.3239 0.93269,0.218 4.10105,-0.9534 1.96053,-0.7249 3.78467,-1.444 4.0535,-1.5979 0.63219,-0.3618 0.82108,-0.1595 0.42839,0.4589 -0.75144,1.1835 -8.30561,6.442 -9.25421,6.442 -0.37334,0 -3.09192,-2.4733 -13.81466,-12.5677 l -2.24844,-2.1167 -0.31575,-3.8364 c -0.59332,-7.2126 -1.87574,-18.4508 -2.41897,-21.1992 -2.75912,-13.9596 -6.95399,-23.4559 -13.76867,-31.1687 -2.60961,-2.9535 -5.71089,-5.3288 -9.49968,-7.2755 -3.16755,-1.6275 -11.69712,-5.1299 -14.59342,-5.9924 -1.06861,-0.3183 -2.03803,-0.6647 -2.15439,-0.7695 -0.28737,-0.2587 0.95469,-8.66215 2.07636,-14.04873 0.50238,-2.41256 0.91312,-4.48094 0.91312,-4.5961 0,-0.28323 2.62425,-0.0286 4.89479,0.4749 1.74794,0.38762 5.17052,1.01125 10.58333,1.92857 3.51351,0.59567 9.98485,0.6009 11.50938,0.009 1.91376,-0.74264 2.98528,-1.60114 3.89485,-3.12022 1.21832,-2.03474 1.46435,-4.11452 1.09089,-9.2196 -0.36025,-4.92453 -0.11898,-6.85781 1.42214,-11.38535 0.56964,-1.67349 1.18306,-3.87615 1.36322,-4.89479 0.18016,-1.01865 0.73536,-2.68553 1.23352,-3.70417 0.8214,-1.67958 0.89945,-2.03838 0.83715,-3.85351 -0.0925,-2.69575 0.61468,-6.93384 1.43919,-8.62583 0.66506,-1.36478 0.97703,-1.63891 4.03593,-3.5388 0.78449,-0.48725 1.83903,-1.30888 2.34301,-1.82625 0.83966,-0.86197 0.90413,-1.04065 0.77101,-2.13165 -0.0799,-0.65485 -0.90648,-3.57187 -1.83658,-6.48229 -0.9301,-2.91041 -2.14288,-7.10018 -2.69492,-9.31054 l -1.00356,-4.01888 0.91726,-1.07125 c 0.83787,-0.97885 1.14694,-1.5016 2.04535,-3.45871 0.167,-0.3638 0.80042,-0.89957 1.40767,-1.19062 2.7379,-1.31221 5.48803,-4.05098 5.48803,-5.4653 0,-0.41834 -0.47568,-1.69453 -1.05729,-2.836 -1.21947,-2.39334 -2.50672,-6.62142 -2.95796,-9.71621 l -0.31213,-2.14198 1.22732,-1.8464 c 2.17415,-3.27038 3.11124,-6.20982 3.13004,-9.81956 l 0.0103,-2.02778 0.5147,0.65474 c 0.99557,1.26672 2.32174,4.3814 2.75694,6.47557 0.6106,2.9382 0.56381,7.75693 -0.10646,10.98021 -0.28747,1.38244 -0.60326,2.7219 -0.70176,2.97656 -0.33233,0.85963 0.31857,0.47095 1.7725,-1.05833 1.55116,-1.63156 3.67879,-4.66547 4.77749,-6.81302 2.89297,-5.65468 3.39628,-13.50428 1.22008,-19.03088 -0.96131,-2.44131 -2.068,-4.51447 -3.11713,-5.83995 -0.57591,-0.7276 -1.30107,-1.65375 -1.61178,-2.05828 l -0.56483,-0.73535 1.3317,0.50591 c 2.45346,0.93224 4.88633,2.48787 6.64353,4.24729 1.96255,1.96503 4.4148,5.51548 5.31595,7.69772 0.85019,2.05885 0.96432,2.09398 1.15859,0.35502 0.21592,-1.93282 -0.20718,-6.0291 -0.9338,-9.03925 -0.67029,-2.77682 -2.69786,-7.03123 -4.34443,-9.11675 -2.93966,-3.72331 -7.89875,-6.08408 -11.91142,-5.66994 -0.78007,0.0805 -1.42065,0.10381 -1.44539,0.0532 l -5.2e-4,-5.2e-4 v -5.2e-4 l -5.2e-4,-5.1e-4 c -1e-5,-2.2e-4 0,-10e-4 0,-0.002 0,-0.0546 0.2679,-0.6115 0.59532,-1.23766 1.70897,-3.26826 2.92329,-6.86351 3.53983,-10.48049 0.88057,-5.16599 0.15872,-14.32918 -1.63452,-20.75016 -0.54366,-1.94667 -0.88579,-2.85001 -1.16427,-2.85047 z m -70.78483,46.35738 c 0.33663,-0.005 1.30812,0.19652 2.93264,0.60461 7.32478,1.84005 13.02788,2.66976 16.59795,2.41484 6.95323,-0.4965 7.20664,-0.49763 9.4356,-0.046 3.33855,0.67648 5.90029,1.61002 9.26145,3.3755 3.93679,2.06783 6.81906,3.95024 9.24285,6.03633 1.92726,1.65874 1.95426,1.6714 2.63601,1.2454 1.66032,-1.03747 3.81142,-2.06816 4.09174,-1.9606 0.51937,0.1993 1.97399,5.3437 3.7543,13.27981 0.93393,4.16319 1.50004,6.27446 2.86855,10.69598 0.37952,1.22619 0.68988,2.63049 0.68988,3.12023 0,0.88084 -0.0363,0.90766 -3.37343,2.48667 -1.85539,0.87793 -3.77285,1.9006 -4.26124,2.27273 -1.04634,0.79726 -1.62574,2.03742 -1.62574,3.48092 0,1.62192 2.45447,10.39313 5.00796,17.89555 2.4548,7.2125 2.54689,7.97134 1.0604,8.74003 -0.69545,0.35963 -1.15495,0.37466 -3.4308,0.11008 -2.90376,-0.33758 -6.09509,-0.23246 -8.72298,0.28732 -3.04512,0.60231 -3.22495,0.56221 -3.63647,-0.80306 -0.19739,-0.65484 -0.29988,-1.58491 -0.22738,-2.06705 0.10742,-0.71452 0.0505,-0.8612 -0.30799,-0.7922 -0.66471,0.12801 -1.5799,1.6629 -1.93321,3.24166 -0.45886,2.05039 -0.15254,3.21936 1.19837,4.57026 1.12032,1.12032 1.15377,1.13275 3.00085,1.13275 1.9737,0 2.69958,0.35366 2.69958,1.31465 0,0.75175 1.46242,4.16043 2.1916,5.10873 0.36066,0.46904 0.96752,1.18654 1.34875,1.59422 0.78052,0.83465 0.88694,1.44974 0.29094,1.67845 -0.22104,0.0848 -1.4559,-0.12114 -2.74453,-0.45734 l -2.34301,-0.61133 -2.74505,0.47956 c -2.41328,0.42141 -5.47104,1.26279 -8.43412,2.3213 -0.50933,0.18194 -1.86476,0.33449 -3.01221,0.33849 -1.96457,0.007 -2.10038,0.0447 -2.32441,0.65008 -0.57596,1.55646 1.36153,1.88569 7.10551,1.20717 2.4563,-0.29014 4.75927,-0.40805 6.16861,-0.31575 2.74313,0.17963 6.15376,1.21577 7.38353,2.24328 0.76991,0.64326 0.87357,0.86201 0.71314,1.5012 l -0.18759,0.74827 -2.56522,-0.1726 c -1.41097,-0.0949 -3.72345,-0.0612 -5.1387,0.0749 -3.88943,0.37412 -5.16475,1.30018 -5.57744,4.0504 -0.1265,0.84305 -0.0442,1.07151 0.57826,1.59525 0.74749,0.62897 1.46989,0.882 4.66173,1.6335 2.96017,0.69696 2.90373,0.55848 2.54765,6.26731 -0.34509,5.53247 -0.71371,6.74956 -2.26859,7.4874 -0.83841,0.39785 -3.02561,0.50994 -4.64468,0.23823 -1.79606,-0.30141 -5.5119,-1.72946 -13.40642,-5.15214 l -6.13089,-2.65824 0.0176,-7.57886 c 0.0217,-9.23496 -0.15868,-10.57303 -1.72289,-12.78423 -0.61315,-0.86676 -1.51288,-2.19309 -1.99988,-2.94763 l -0.88573,-1.37201 0.16898,-8.99583 0.16846,-8.99583 -1.26762,-0.7798 c -2.92043,-1.79643 -9.31066,-6.11798 -10.66033,-7.20938 -2.45188,-1.9827 -4.29092,-3.87253 -4.68912,-4.81831 -0.34593,-0.82165 -0.33448,-0.9618 0.12816,-1.5875 0.87484,-1.18317 4.58797,-4.27015 7.20679,-5.99137 3.32923,-2.18816 4.56604,-2.80754 5.90972,-2.95899 0.98879,-0.11145 1.3182,0.009 2.83032,1.03663 2.68989,1.82774 3.98345,2.51414 5.82238,3.08818 2.10495,0.65708 3.95841,0.95807 3.95841,0.64286 0,-0.12976 -0.42655,-0.64624 -0.94826,-1.14773 -1.02439,-0.98469 -2.38249,-3.09316 -2.14509,-3.33055 0.0802,-0.0802 0.89828,0.1513 1.81798,0.5147 2.55202,1.00837 4.36376,1.32037 6.71329,1.15652 1.15657,-0.0807 2.48382,-0.22598 2.94969,-0.32298 l 0.84697,-0.17674 0.18035,1.35961 c 0.16618,1.25272 0.31095,1.47434 1.84072,2.8174 l 1.66036,1.45779 1.67794,-0.55552 c 2.31372,-0.76597 4.60198,-2.18826 6.1991,-3.85299 0.74023,-0.77156 1.64642,-1.47825 2.01383,-1.57045 2.34943,-0.58967 4.42616,-4.26316 3.99924,-7.07399 -0.17319,-1.14027 -0.49764,-1.26815 -0.91157,-0.35967 -0.33638,0.73827 -1.26126,1.21957 -2.34301,1.21957 -0.85125,0 -3.76267,-0.99446 -6.27869,-2.14457 -0.90475,-0.41357 -2.3335,-1.04284 -3.175,-1.39837 -0.8415,-0.35554 -2.72076,-1.20625 -4.17597,-1.89084 -6.01322,-2.82885 -7.72203,-3.41136 -9.42216,-3.21066 -1.19285,0.14082 -12.33034,3.84798 -13.81932,4.59972 -0.41371,0.20888 -0.79712,0.33511 -0.85162,0.28061 -0.0546,-0.0546 1.05806,-1.29045 2.4722,-2.74661 3.80144,-3.9144 7.31872,-8.23144 7.41402,-9.09918 0.0444,-0.40417 -0.4064,-2.62324 -1.00201,-4.93148 -1.22,-4.7281 -2.29943,-9.99796 -2.55333,-12.46539 -0.1466,-1.42473 -0.10987,-1.65365 0.26355,-1.65365 0.23837,0 0.43304,-0.11906 0.43304,-0.26458 0,-0.14552 -0.56555,-0.26439 -1.25677,-0.26459 -3.14193,-9.1e-4 -10.3055,-1.79798 -14.13195,-3.545 -0.91666,-0.41854 -1.21513,-0.63014 -0.8785,-0.6351 z m 6.35517,10.09086 c 0.15848,0.002 -0.16205,0.46534 -1.22267,1.89445 -2.1851,2.94429 -4.68319,8.2787 -4.32015,9.22476 0.0866,0.22557 -0.0551,0.49955 -0.33331,0.64492 -0.69035,0.36068 -5.115,1.06746 -7.75973,1.23972 -4.23376,0.27577 -6.21852,0.31744 -7.54063,0.15762 l -1.32291,-0.1602 2.22983,-0.74363 c 4.73115,-1.57834 11.24311,-5.38073 17.08475,-9.97561 1.30969,-1.03016 2.60409,-1.997 2.87631,-2.14871 0.14957,-0.0833 0.25568,-0.13396 0.30851,-0.13332 z m -69.018009,26.65263 c 2.430213,0.0711 11.297021,1.66979 17.175181,3.15898 4.03844,1.02311 9.30213,2.75303 11.42049,3.75326 2.61418,1.23434 6.061768,5.1146 7.907528,8.90023 0.52063,1.06782 0.84427,2.03176 0.71882,2.14199 -0.61606,0.54135 -2.74591,-0.4719 -6.049248,-2.87838 -5.60209,-4.08111 -6.7946,-4.74694 -12.30312,-6.86986 -1.96453,-0.75711 -3.81,-1.47664 -4.10104,-1.59887 -2.88948,-1.21358 -9.53895,-3.88799 -10.583337,-4.25659 -1.99926,-0.7056 -4.970991,-2.11746 -4.805391,-2.28306 0.05697,-0.057 0.272944,-0.0779 0.620117,-0.0677 z m 18.043341,30.15268 c 0.12257,-1.8e-4 0.28093,0.0744 0.44287,0.22686 0.45493,0.4284 3.91973,1.5505 6.54482,2.11925 1.82509,0.39542 3.58227,0.56506 6.0141,0.58136 3.324888,0.0223 3.452528,0.0445 3.949628,0.67645 0.53171,0.67595 0.91621,1.72192 1.17202,3.18895 0.17526,1.00508 -0.23591,1.51108 -1.81022,2.22622 -0.586758,0.26653 -1.424308,0.47719 -1.860868,0.46819 -2.29519,-0.0469 -5.66604,-1.43418 -9.22683,-3.7977 -1.47961,-0.98211 -5.45755,-4.92123 -5.45755,-5.40432 0,-0.18869 0.09313,-0.28505 0.23203,-0.28526 z m 14.09113,39.53041 c 0.13587,-0.0135 0.47894,0.36088 0.79323,0.87333 0.33525,0.54661 1.616988,2.42249 2.847888,4.16874 2.9584,4.19702 10.95757,16.19073 11.4701,17.19791 0.45075,0.88577 1.7504,5.25232 3.22926,10.84792 1.70858,6.46478 3.83823,13.06758 5.36815,16.64398 1.85546,4.3373 5.10859,9.875 7.67809,13.07 0.5038,0.6264 0.86988,1.1853 0.81338,1.2418 -0.0645,0.052 -1.17612,-0.4976 -2.47685,-1.2253 -1.30583,-0.7306 -2.96985,-1.6605 -3.69745,-2.0665 -2.4351,-1.3589 -9.21782,-5.6245 -13.49375,-8.4858 -2.32833,-1.5581 -8.34099,-5.5434 -13.361458,-8.8563 -5.02047,-3.3129 -10.97358,-7.2429 -13.22916,-8.73386 -5.12862,-3.39002 -12.42957,-7.89434 -15.213543,-9.38599 -3.47074,-1.85963 -3.428757,-2.05164 0.264583,-1.20872 1.4552,0.33211 3.30067,0.80925 4.10104,1.0604 7.17045,2.25009 18.19258,7.95852 25.50335,13.20797 2.101628,1.5091 2.539628,1.6745 2.061378,0.7803 -0.875208,-1.6364 -2.017678,-9.64144 -2.410188,-16.8899 -0.35156,-6.4915 -0.54236,-22.06483 -0.27234,-22.23171 0.0071,-0.004 0.01523,-0.007 0.02429,-0.008 z m -59.871795,44.33268 c 0.52683,0 2.461289,0.6761 4.141348,1.447 0.43656,0.2003 1.400805,0.6025 2.142505,0.894 2.53631,0.9967 9.707247,4.8908 13.864787,7.5287 7.47462,4.7426 16.336385,12.4587 21.835355,19.0128 2.56829,3.0611 5.30057,7.2688 6.4146,9.879 1.55676,3.6475 2.70629,9.9812 2.70629,14.9102 0,1.7543 -0.076,2.1283 -0.46302,2.2779 -0.64396,0.2488 -2.10402,0.5231 -9.98802,1.8779 -3.78354,0.6502 -7.17681,1.2451 -7.54062,1.3219 -0.509544,0.1075 -0.995678,-0.1348 -2.116668,-1.0558 -3.41366,-2.8045 -12.045464,-9.2462 -15.345834,-11.452 -12.868733,-8.6005 -25.983772,-15.1032 -37.570833,-18.6288 -1.38244,-0.4207 -2.870732,-0.8784 -3.307292,-1.017 -1.77485,-0.5635 -9.0806016,-2.3706 -10.2557036,-2.5368 -0.693013,-0.098 -1.312117,-0.2621 -1.375627,-0.3648 -0.06351,-0.1028 0.622406,-0.6753 1.524455,-1.2718 0.902048,-0.5965 2.295054,-1.6505 3.095418,-2.3425 3.875989,-3.3512 14.8352336,-11.1712 20.2855836,-14.4746 3.29294,-1.9957 11.273756,-6.0053 11.953276,-6.0053 z m 125.827463,25.4419 c 0.46443,0.018 0.51948,2.9286 -0.13798,5.6467 -0.53493,2.2115 -1.89163,4.455 -3.92999,6.4978 -1.09738,1.0997 -2.6484,2.4392 -3.44682,2.9765 -0.79843,0.5374 -1.63185,0.9724 -1.85208,0.9664 -1.28318,-0.033 -15.93876,-5.3053 -20.66438,-7.4337 -3.72805,-1.6791 -11.35383,-5.5838 -11.35383,-5.8136 0,-0.1268 0.98228,0.1371 2.18282,0.5865 8.07466,3.023 23.30503,6.8786 27.45052,6.949 1.91186,0.033 2.05562,-0.01 3.93516,-1.1571 3.35725,-2.049 6.38802,-5.4701 7.22695,-8.1581 0.23442,-0.7511 0.43481,-1.0664 0.58963,-1.0604 z m -59.77568,7.1727 c 0.1478,0.01 0.72934,0.3002 1.37769,0.6991 0.71542,0.4403 2.72281,1.4707 4.46071,2.2903 6.33665,2.9885 7.5585,3.5543 7.67602,3.5543 0.0659,0 0.68393,0.25 1.37356,0.5556 2.11326,0.9362 2.24349,0.9916 4.56096,1.9275 1.23693,0.4996 2.9887,1.2161 3.89278,1.5922 5.65688,2.3532 21.40772,7.3874 28.26701,9.0345 l 2.92385,0.7023 1.70636,-0.8128 c 0.93871,-0.447 1.93715,-0.9652 2.21847,-1.1514 0.28131,-0.1861 1.53147,-0.9815 2.77812,-1.7678 1.24666,-0.7864 3.01068,-2.2051 3.92018,-3.1528 l 1.65364,-1.7234 v 1.4893 c 0,2.8116 -1.48071,5.6174 -5.68389,10.7693 -1.12786,1.3825 -2.50232,3.0196 -3.05407,3.6381 -1.01881,1.142 -1.65784,1.3406 -2.77141,0.8609 -0.29104,-0.1254 -3.14854,-0.9595 -6.35,-1.8536 -12.14972,-3.3933 -28.03597,-8.8981 -35.39887,-12.266 -0.83943,-0.3839 -1.58365,-0.6981 -1.65365,-0.6981 -0.19966,0 -2.40966,-0.9936 -5.0493,-2.2701 l -2.41433,-1.1674 -1.09812,-2.713 c -0.60424,-1.4921 -1.63349,-3.7721 -2.2872,-5.0669 -0.64859,-1.2847 -1.13238,-2.3859 -1.08159,-2.4614 2.2e-4,-2e-4 0.001,-10e-4 0.002,0 0.006,-0.01 0.0162,-0.01 0.0315,-0.01 z m 91.66985,10.8903 c 0.53932,-0.051 2.12352,9.1365 2.12545,12.5206 7.8e-4,1.502 -0.10828,2.712 -0.24494,2.712 -0.33828,0 -0.47878,-0.5932 -0.68937,-2.9104 -0.0992,-1.0914 -0.45519,-4.2444 -0.79064,-7.0068 -0.33546,-2.7624 -0.54017,-5.1352 -0.45527,-5.2726 0.0167,-0.027 0.0351,-0.041 0.0548,-0.043 z m -117.776788,2.297 c -0.68354,0 -1.30757,0.2438 -2.01538,0.7565 -1.3315,0.9646 -1.64124,1.5142 -1.64124,2.9146 0,1.4431 0.57683,2.4895 1.90117,3.4489 0.89407,0.6476 1.34879,0.7885 2.54507,0.7885 1.34798,0 1.52956,-0.076 2.43499,-1.0283 2.15401,-2.2644 1.51916,-5.0647 -1.45469,-6.4157 -0.6705,-0.3046 -1.23827,-0.461 -1.76992,-0.4645 z m 33.158188,6.4425 c 0.2886,-0.013 2.14171,0.6607 4.25865,1.5523 2.22106,0.9355 5.64533,2.3225 7.60987,3.082 1.96453,0.7595 4.29807,1.6632 5.18521,2.0087 1.956,0.7616 15.17973,5.1002 18.495,6.0678 1.30969,0.3823 2.67891,0.7931 3.04271,0.9131 0.3638,0.12 1.43537,0.4277 2.38125,0.6837 0.94589,0.256 2.4243,0.6858 3.28507,0.9555 0.86078,0.2697 1.7766,0.4904 2.03502,0.4904 0.25842,0 0.54205,0.1174 0.63045,0.2605 0.14911,0.2413 -1.60208,3.9211 -4.05453,8.5199 -1.9132,3.5875 -7.65713,12.9826 -8.03104,13.1361 -0.49712,0.2041 -0.12985,0.9771 1.22008,2.5683 0.78916,0.9303 2.18815,2.7218 3.10886,3.9812 0.9207,1.2594 2.6106,3.5515 3.75532,5.0942 1.14471,1.5426 2.13727,2.9519 2.20607,3.1311 0.22037,0.5743 -5.99298,7.7291 -12.18272,14.0286 -3.36532,3.425 -3.45706,3.4946 -4.77955,3.6365 -0.74154,0.08 -4.08668,0.3807 -7.43366,0.6692 -7.62676,0.6578 -17.06562,0.9947 -17.06562,0.6098 0,-0.151 0.44649,-0.612 0.99219,-1.0242 1.34516,-1.016 5.43651,-5.2051 8.2951,-8.4936 3.22641,-3.7117 7.79011,-9.814 7.53235,-10.0717 -0.0627,-0.063 -2.59273,1.3698 -5.62239,3.1832 -6.4976,3.889 -12.2714,7.073 -12.82558,7.073 -0.21711,0 -0.90195,-0.6251 -1.52187,-1.3891 -0.61993,-0.764 -1.62296,-1.925 -2.22932,-2.5802 -0.60636,-0.6552 -2.1148,-2.322 -3.35173,-3.7041 -1.23692,-1.3821 -4.09442,-4.5398 -6.349998,-7.0172 -2.25557,-2.4774 -4.31131,-4.7509 -4.5682,-5.0524 -0.3584,-0.4205 -0.59188,-1.7121 -1.00355,-5.55 -0.59713,-5.5669 -0.69724,-6.1924 -0.99374,-6.1924 -0.11313,0 -0.34428,0.8037 -0.51315,1.7859 -0.51049,2.9695 -1.61076,6.3993 -2.96726,9.247 -3.30106,6.9299 -8.47655,12.7832 -15.51068,17.5431 -2.92874,1.9818 -7.202441,4.4959 -7.637261,4.4959 -0.15163,-7e-4 0.438428,-0.6394 1.311548,-1.4191 7.778383,-6.9462 13.562723,-14.8295 16.527153,-22.5247 0.98722,-2.5626 2.04132,-6.3798 2.281,-8.261 0.11914,-0.935 0.31472,-1.4253 0.60565,-1.5167 0.23645,-0.074 2.33494,-0.4356 4.66328,-0.803 8.265788,-1.3045 9.624288,-1.6256 12.567708,-2.9709 3.54665,-1.621 5.71496,-4.0237 7.07554,-7.8409 0.99699,-2.7971 1.12717,-7.6569 0.34778,-12.963 -0.31737,-2.1606 -0.68397,-4.2103 -0.81494,-4.5548 -0.14564,-0.3831 -0.14069,-0.6864 0.0129,-0.7813 0.007,0 0.0168,-0.01 0.031,-0.01 z m 92.0259,4.487 c 0.94286,0.051 1.8297,0.638 2.37712,1.711 0.90274,1.7696 0.56148,3.6662 -0.83561,4.6447 -0.94175,0.6597 -2.15428,0.5191 -3.09387,-0.3586 -1.74501,-1.6301 -2.0052,-3.7946 -0.61546,-5.1165 0.66746,-0.6349 1.43449,-0.9199 2.16782,-0.8806 z m -179.323932,4.7212 3.082499,1.3022 c 4.41315,1.8643 16.709057,8.3667 16.709057,8.8362 0,0.053 -1.025038,1.379 -2.277898,2.9476 -1.252849,1.5686 -2.758291,3.5366 -3.345531,4.3734 -0.58725,0.8367 -1.139732,1.5191 -1.227832,1.5151 -0.08805,0 -1.70801,-0.6981 -3.59978,-1.5435 -12.18531,-5.4455 -21.992678,-8.437 -34.0697556,-10.3927 -1.130313,-0.183 -2.015769,-0.4505 -1.967839,-0.5943 0.08133,-0.2439 2.933181,-1.2018 7.594886,-2.5507 1.091406,-0.3158 2.282031,-0.6713 2.645833,-0.7896 2.6397956,-0.8589 11.2695916,-2.6116 14.2471926,-2.8939 z m 141.993392,10.9611 1.01028,1.6371 c 0.55558,0.9003 1.81666,2.774 2.80241,4.1636 0.98576,1.3895 2.78754,4.0384 4.00441,5.8869 1.21686,1.8485 2.40477,3.5207 2.63963,3.7156 0.55233,0.4584 0.53986,0.9661 -0.0455,1.836 -0.25991,0.3863 -0.61031,1 -0.77825,1.3638 -0.16795,0.3638 -1.30531,2.8045 -2.52801,5.4239 -2.15138,4.6089 -2.87489,6.1935 -3.65353,8.0037 -0.20344,0.473 -0.45073,0.8599 -0.54983,0.8599 -0.0992,0 -0.98634,-1.1608 -1.97094,-2.5797 -3.13423,-4.5164 -6.42919,-8.7634 -8.32042,-10.7234 -1.00907,-1.0457 -1.83504,-1.9866 -1.83504,-2.0913 0,-0.1047 0.51598,-0.9403 1.14619,-1.8568 0.63021,-0.9164 1.71782,-2.7976 2.41742,-4.1801 0.69961,-1.3824 1.87254,-3.6353 2.60604,-5.0064 0.73349,-1.371 1.72077,-3.3835 2.19419,-4.4726 z m 56.66941,0.3126 0.36846,0.877 c 0.20284,0.4823 1.15274,2.4843 2.11046,4.4488 0.95772,1.9645 1.74139,3.7814 1.7415,4.0375 1.1e-4,0.256 -0.50602,1.2362 -1.12448,2.1776 -0.61846,0.9415 -1.19474,1.7142 -1.28054,1.7172 -0.21949,0.01 -0.68808,-1.0593 -1.74202,-3.9636 -0.50167,-1.3824 -1.32833,-3.5561 -1.83658,-4.8307 -0.50824,-1.2745 -0.85177,-2.4336 -0.76377,-2.576 0.088,-0.1424 0.69266,-0.6255 1.34358,-1.0734 z m -173.004421,1.357 c 0.57569,0 5.227357,2.8916 5.238957,3.2567 0.0038,0.1177 -0.687117,1.1298 -1.535307,2.249 -1.934853,2.553 -7.891083,11.0964 -9.027873,12.949 -0.813,1.325 -1.597983,1.7713 -1.992643,1.1328 -0.31403,-0.5081 -4.565262,-2.6476 -7.545792,-3.7977 -8.94893,-3.4531 -14.783373,-4.8844 -28.2241176,-6.9231 -6.31859,-0.9584 -6.965466,-1.0949 -6.965466,-1.4707 0,-0.3702 0.385589,-0.5025 3.426664,-1.1751 4.37937,-0.9687 8.1808046,-1.2854 13.3413046,-1.1111 4.920301,0.1662 7.817675,0.647 12.071615,2.0035 3.67541,1.1721 4.477572,1.4809 7.999512,3.0799 1.75481,0.7967 3.262283,1.4431 3.350183,1.4361 0.08788,-0.01 0.576402,-0.6084 1.085721,-1.3374 2.38607,-3.415 8.250772,-10.2919 8.777242,-10.2919 z m 117.467761,5.0535 c -0.35561,0.011 -0.85642,0.9849 -2.90783,5.1278 -1.47777,2.9845 -2.68718,5.4806 -2.68718,5.5475 0,0.067 0.62509,0.9415 1.38907,1.943 0.76398,1.0016 2.26709,2.9718 3.33985,4.3781 1.07276,1.4063 2.04143,2.5564 2.15284,2.5564 0.11142,0 0.54007,-0.8037 0.95239,-1.786 0.41231,-0.9823 1.24489,-2.7384 1.85054,-3.9025 0.60565,-1.1642 1.36511,-2.7352 1.68775,-3.4913 l 0.58704,-1.3751 -1.1715,-1.5353 c -1.33825,-1.7548 -4.43798,-6.4347 -4.43798,-6.7004 0,-0.097 -0.21934,-0.3761 -0.48782,-0.6191 -0.095,-0.086 -0.17652,-0.1458 -0.26717,-0.1431 z m -0.016,6.059 c 0.41152,0 3.38505,4.7207 3.69228,5.8617 0.24325,0.9034 0.2032,1.2204 -0.2837,2.2262 -0.31227,0.6451 -0.72854,1.1726 -0.92449,1.1726 -0.19595,0 -1.06325,-0.8632 -1.92753,-1.9183 -0.86428,-1.055 -1.82448,-2.1448 -2.13372,-2.422 -0.734,-0.658 -0.71112,-0.9397 0.20102,-2.4867 0.41972,-0.7119 0.84421,-1.5508 0.94361,-1.864 0.0994,-0.3132 0.29414,-0.5695 0.43253,-0.5695 z m 15.16755,9.5643 c 0.0114,-6e-4 0.0214,0 0.03,0.012 0.24924,0.2492 -2.33954,7.0543 -4.3589,11.4582 -1.5592,3.4003 -1.5174,3.3067 -2.14044,4.8101 -0.58855,1.4203 -1.582,2.6286 -1.572,1.912 0.009,-0.6581 3.08685,-7.7512 6.5257,-15.0399 0.51064,-1.0823 1.03951,-2.2597 1.17512,-2.6164 0.11867,-0.3121 0.26094,-0.5317 0.34055,-0.5359 z"
         sodipodi:nodetypes="csssssssssssssssssssssssssssssssssccssssssccsssssssssssssssssssssscccssssssssssssscssssssssscccsssssssssssssssssssssssssssssscssssssssssssscsssssssssssssssssssssccsscsssssssssssssssssssssssssssccccssssssssssssssssssssccssssssssssssssssscsssssssssccssssssssssssccssssccsccssssssssscsssssssccccssssccsssssssssssssssssssssssssssssccssssssccsssssssssccsscccsssssscssssssccsscssssssssssssssssssssssssssscccssscssssssssscssssssscssscsssssscssssssssssscccsssssssssssssssssssssssscssssssscsssssssccssscssssssscccsscccsssssssscssssssccssssssssssssssssccssscsssssssssssscssssssssssccsssssscsssssssssscccsssssssssssssssscccssscsssscssssssssssssssssssssssscccssssssssssssscsssssss" /></g></g></svg>
