<?xml version="1.0" encoding="UTF-8" standalone="no"?>
<!-- Created with Inkscape (http://www.inkscape.org/) -->

<svg
   width="1024"
   height="1024"
   viewBox="0 0 270.93333 270.93333"
   version="1.1"
   id="svg1"
   xml:space="preserve"
   inkscape:export-filename="adversary-banshee.svg"
   inkscape:export-xdpi="96"
   inkscape:export-ydpi="96"
   inkscape:version="1.4.2 (ebf0e940, 2025-05-08)"
   sodipodi:docname="token-icons.svg"
   xmlns:inkscape="http://www.inkscape.org/namespaces/inkscape"
   xmlns:sodipodi="http://sodipodi.sourceforge.net/DTD/sodipodi-0.dtd"
   xmlns="http://www.w3.org/2000/svg"
   xmlns:svg="http://www.w3.org/2000/svg"><sodipodi:namedview
     id="namedview1"
     pagecolor="#ffffff"
     bordercolor="#666666"
     borderopacity="1.0"
     inkscape:showpageshadow="2"
     inkscape:pageopacity="0.0"
     inkscape:pagecheckerboard="0"
     inkscape:deskcolor="#d1d1d1"
     inkscape:document-units="mm"
     inkscape:zoom="0.094751701"
     inkscape:cx="-2258.5347"
     inkscape:cy="2005.2411"
     inkscape:window-width="2560"
     inkscape:window-height="1021"
     inkscape:window-x="0"
     inkscape:window-y="31"
     inkscape:window-maximized="1"
     inkscape:current-layer="layer1" /><defs
     id="defs1" /><g
     inkscape:label="Layer 1"
     inkscape:groupmode="layer"
     id="layer1"><g
       id="g10"
       transform="translate(26.308082,456.98287)"><ellipse
         style="opacity:1;fill:#ffffff;fill-opacity:1;stroke:none;stroke-width:8.35811;stroke-linecap:round;stroke-linejoin:round"
         id="path3-4-6-2-1"
         cx="401.61905"
         cy="985.93402"
         rx="188.45697"
         ry="188.45699"
         transform="matrix(0.71882008,0,0,0.71882008,-548.12822,-574.22976)" /><path
         id="path4"
         style="fill:#000000;fill-opacity:1;stroke-width:1.17753"
         d="m 401.62009,811.01036 c -96.03618,0 -173.72786,78.15139 -173.72786,174.92365 0,96.77219 77.69168,174.92369 173.72786,174.92369 96.03618,0 173.72578,-78.1515 173.72578,-174.92369 0,-96.77226 -77.6896,-174.92365 -173.72578,-174.92365 z m 2.62044,12.08877 c 4.79235,0.0745 9.53954,0.40129 15.09414,0.99272 24.39268,2.59714 49.3386,11.74855 70.3786,25.81799 10.5824,7.07653 17.2923,12.62234 25.6427,21.194 13.1543,13.50265 22.832,27.2357 30.9682,43.94494 4.2656,8.76015 8.304,19.36859 10.2111,26.82416 2.2033,8.61287 3.1324,12.73185 3.7159,16.47046 0.9677,6.20036 1.4366,9.1103 1.5801,9.8043 0.2361,1.14146 -0.3511,0.81665 -1.5705,-0.86757 -1.2481,-1.724 -2.592,-2.62614 -5.8597,-3.93403 -1.1827,-0.47343 -2.9467,-1.33398 -3.9197,-1.91225 -0.9731,-0.57818 -1.9921,-1.051 -2.2647,-1.051 -0.2726,0 -1.3488,0.35131 -2.3916,0.78096 -2.5607,1.05512 -5.9442,1.72873 -8.6839,1.72873 -1.5411,0 -2.4826,0.15473 -2.9468,0.48451 -3.7924,2.69351 -7.0589,3.86964 -19.531,7.03265 -1.4272,0.36185 -3.0284,0.96084 -3.5582,1.33077 -0.5298,0.36982 -5.5578,5.35214 -11.1734,11.07244 -8.6086,8.76938 -15.7465,15.40042 -19.2775,17.90829 -0.6408,0.4549 -0.6976,0.4357 -0.9885,-0.3401 -0.1697,-0.45274 -0.3086,-1.02544 -0.3086,-1.27304 0,-1.02816 -1.487,-0.3651 -3.9186,1.74744 h -6e-4 c -1.3894,1.207 -2.5725,2.1855 -2.6295,2.1855 -0.1482,-0.012 -4.4287,-5.32874 -6.1946,-7.69424 -3.6552,-4.89589 -9.0254,-14.97792 -10.7733,-20.2253 -0.603,-1.81031 -1.0888,-4.08328 -1.2682,-5.93456 -0.5119,-5.28094 -0.894,-7.00462 -2.1311,-9.60901 -0.947,-1.99381 -1.6814,-2.99139 -3.46391,-4.70585 -4.22254,-4.06154 -7.85823,-5.25465 -15.77506,-5.17598 -3.87363,0.0383 -5.08794,-0.056 -6.03305,-0.46432 l -1.18319,-0.51132 0.73334,-0.50707 c 0.40338,-0.27873 1.48708,-0.81727 2.40863,-1.19704 5.31974,-2.19244 10.09875,-7.7875 11.38787,-13.3329 0.25658,-1.10378 0.46667,-3.20709 0.46695,-4.67376 5.1e-4,-2.566 -0.20473,-3.79646 -2.01494,-12.07864 -0.77305,-3.53677 -0.81242,-4.10645 -0.65524,-9.41171 0.17406,-5.8737 0.55312,-8.38711 1.87105,-12.39256 2.34394,-7.12196 2.34692,-12.54761 0.0117,-20.82862 -1.46519,-5.19586 -4.15337,-9.43936 -8.02126,-12.6622 -3.39051,-2.82496 -6.22407,-4.16245 -12.1212,-5.72206 -5.00598,-1.32394 -8.23259,-1.6831 -13.2493,-1.47464 -9.87403,0.41029 -17.64302,3.81591 -25.18543,11.04037 -2.26976,2.17402 -4.62035,5.1942 -8.30688,10.67344 -2.16861,3.22325 -5.74758,6.96558 -8.17369,8.54631 -4.14902,2.70335 -9.47171,4.57834 -14.64377,5.15837 -2.72939,0.30608 -3.71348,0.26239 -8.35342,-0.36961 -2.89287,-0.39404 -5.9562,-0.82928 -6.80705,-0.96705 -0.85083,-0.13777 -3.29566,-0.26072 -5.43291,-0.27336 -4.6879,-0.0279 -7.85942,0.676 -11.58363,2.569 -4.23583,2.15311 -7.11728,4.8075 -10.99151,10.12527 -2.75909,3.78716 -5.30846,5.56713 -8.67169,6.05423 l -1.99461,0.28887 1.95342,0.0383 c 3.03294,0.0601 4.69322,-0.9239 9.49435,-5.62633 5.97509,-5.85238 8.46471,-7.44377 13.77403,-8.80518 4.20229,-1.07759 7.42344,-0.76345 16.54637,1.61313 6.5793,1.71405 7.86649,1.95294 11.2932,2.10002 3.61626,0.15514 6.61933,-0.16696 9.87144,-1.05906 1.19561,-0.32812 0.49362,0.4344 -1.06123,1.15263 -3.77693,1.74467 -8.14208,2.89555 -14.84327,3.91259 -5.97123,0.9063 -9.9999,2.21252 -13.92272,4.51438 -2.61293,1.53322 -4.17549,2.77931 -7.84795,6.25812 -5.64291,5.3452 -8.56992,6.81156 -13.5007,6.76291 -3.73956,-0.0362 -5.87969,-0.73582 -12.71815,-4.15221 -3.08131,-1.53943 -6.68029,-3.17616 -7.99772,-3.63717 -4.50806,-1.57783 -10.12319,-1.90646 -16.257,-0.95214 -3.12136,0.48565 -9.71006,3.40086 -13.21988,5.84948 -0.75075,0.52374 -1.43699,0.8796 -1.52497,0.79057 -0.32524,-0.32976 4.8807,-10.4099 7.56285,-14.64389 10.67216,-16.847 19.98577,-27.90517 33.33024,-39.57402 6.13968,-5.3687 16.95738,-13.0819 24.12902,-17.20481 3.97617,-2.28581 13.22124,-6.89457 17.87345,-8.90941 4.95202,-2.14483 17.14958,-6.25678 22.34782,-7.53433 2.5525,-0.62725 5.12832,-1.27602 5.72389,-1.44153 3.49161,-0.97005 15.11931,-2.6816 21.20956,-3.12201 5.7353,-0.41475 10.57298,-0.59123 15.36534,-0.51619 z m 22.98755,46.66754 c 0.24704,0.0144 0.44272,0.11571 0.58357,0.30274 0.18726,0.24851 1.18849,1.10824 2.22462,1.9105 3.07631,2.38207 4.36302,4.11432 5.23232,7.04332 0.5579,1.87964 1.15602,7.66123 1.02967,9.95138 -0.10103,1.83152 -0.11055,1.84892 -1.11632,1.95925 -1.59309,0.17493 -3.26297,1.19848 -4.82153,2.9563 -1.25189,1.41193 -1.43458,1.79603 -1.43458,3.0119 0,1.69045 0.60181,2.96159 1.67902,3.54619 0.89567,0.48606 2.52142,0.5816 3.34845,0.19687 0.48978,-0.22782 0.5413,-0.0259 0.5413,2.1143 0,2.90787 -0.21041,3.4876 -2.37707,6.53893 -0.94726,1.33408 -2.01818,3.29674 -2.37973,4.36139 -0.36154,1.06455 -0.79214,1.95303 -0.95692,1.97581 -0.16477,0.0228 -0.4141,-0.54682 -0.55415,-1.26494 -0.32124,-1.64717 -0.85719,-2.09566 -2.48886,-2.08335 -1.23393,0.0103 -2.91108,0.67548 -6.02396,2.39191 l -1.32226,0.72908 1.88871,1.61965 c 2.61314,2.24088 6.78885,3.45883 6.78885,1.98057 0,-0.83788 0.87851,-2.86161 1.24203,-2.86161 0.46356,0 0.37483,0.45533 -0.44076,2.26583 -0.41022,0.91054 -1.12416,2.89546 -1.58648,4.41056 -0.52761,1.72916 -1.1601,3.10152 -1.69882,3.68634 h 0.001 c -0.56972,0.61833 -1.15439,0.93413 -1.73947,0.92377 -2.30309,-0.0207 -9.695,-3.42187 -16.19655,-7.45143 -3.79859,-2.35422 -5.64589,-4.05304 -6.17481,-5.67818 -0.33552,-1.03092 -0.28598,-1.48085 0.42204,-3.83455 1.36862,-4.54987 1.72879,-5.02279 3.22005,-4.22767 0.93712,0.49963 3.01742,2.64486 4.05288,4.17954 1.14427,1.69758 1.37578,1.32466 1.13986,-1.84425 -0.27652,-3.71428 -0.80656,-4.71776 -3.85283,-7.29411 -2.72795,-2.30724 -4.12615,-3.81437 -4.84239,-5.21883 -0.43251,-0.84605 -0.43228,-1.02895 0.005,-1.88596 0.26623,-0.52209 1.64748,-2.27639 3.06921,-3.89873 3.90198,-4.45247 4.03144,-4.65214 6.61823,-10.21139 0.99533,-2.13894 3.15514,-4.97032 4.61185,-6.04625 2.38465,-1.76114 3.99513,-2.44262 7.63559,-3.22906 1.88757,-0.4077 3.76596,-0.8391 4.17431,-0.95845 0.18425,-0.0538 0.35083,-0.0755 0.49905,-0.0673 z m -11.78476,16.92452 c -2.02378,-0.0103 -4.04524,0.78032 -5.60192,2.35888 -0.73472,0.74493 -1.33563,1.59294 -1.33563,1.8843 0,0.94335 1.47655,3.11717 2.6873,3.95597 0.64886,0.44963 1.94553,1.05389 2.88146,1.34257 0.93591,0.28867 1.84104,0.57849 2.01119,0.64452 v 5.2e-4 c 0.17019,0.0663 1.31258,0.0735 2.53861,0.0165 1.85404,-0.0858 2.41373,-0.2454 3.32597,-0.95099 0.9087,-0.7028 1.09593,-1.04759 1.09491,-2.00893 -0.003,-2.00955 -0.58507,-3.43182 -1.98658,-4.85295 -1.5654,-1.58734 -3.59152,-2.38465 -5.61531,-2.39044 z m 10.18703,19.24335 c -0.84125,0 -1.96412,0.55561 -1.96412,1.15263 0,0.3811 0.56999,0.33732 1.94807,-0.14926 0.99898,-0.35274 1.106,-0.47342 0.71142,-0.80547 -0.16578,-0.13952 -0.41494,-0.19904 -0.69537,-0.1979 z m 2.64933,0.42198 c -0.0396,8.3e-4 -0.0819,0 -0.1273,0.0124 -0.84565,0.14304 -1.03908,0.37935 -1.27037,1.55216 h -5.4e-4 c -0.24527,1.24352 0.47838,1.40788 1.21046,0.27491 0.71411,-1.10502 0.78105,-1.8516 0.18775,-1.8394 z m -158.45023,11.13404 c 0.837,-0.0786 1.72189,-0.0673 3.00609,0 5.50551,0.28961 9.4726,2.241 16.39822,8.06802 6.01878,5.06408 9.60569,6.86177 15.08397,7.55835 2.56639,0.32635 7.07579,-0.0144 8.75459,-0.66212 0.43934,-0.16934 1.01554,-0.30763 1.28054,-0.30763 0.40377,0 0.41606,0.0797 0.0765,0.49476 -0.63659,0.77785 -3.17994,1.9724 -6.75195,3.1713 -2.74941,0.92274 -3.81159,1.11858 -6.53211,1.20138 -3.38061,0.10351 -3.89235,0.0642 -6.9611,-0.5167 -2.41769,-0.458 -4.6179,-1.17405 -8.04425,-2.61878 -3.97184,-1.67471 -6.76309,-2.58939 -10.58339,-3.46815 -8.87122,-2.04049 -19.17799,-0.0735 -25.09129,4.78929 -0.73254,0.6024 -1.40817,1.01849 -1.50091,0.92431 -0.1779,-0.18042 0.31296,-1.92572 0.98581,-3.50666 0.22031,-0.51773 0.7847,-1.85936 1.25432,-2.98084 1.15758,-2.76472 1.87898,-3.6885 4.63111,-5.93342 2.79618,-2.28095 7.57652,-4.6862 11.2766,-5.67395 1.09157,-0.29137 1.88025,-0.46028 2.71726,-0.53916 z m 164.74913,6.58479 c 0.007,-5.2e-4 0.0154,6.2e-4 0.023,0 0.43528,0.14708 0.71978,1.32218 1.10508,4.56633 0.25767,2.16947 0.23245,3.10794 -0.12517,4.65121 -0.95927,4.13979 -3.84051,7.84744 -8.34058,10.73285 -1.4384,0.92223 -2.33749,1.2257 -2.33749,0.78954 0,-0.10526 0.70082,-0.9687 1.55708,-1.91867 2.46367,-2.73348 5.8683,-7.90448 5.8683,-8.91262 0,-0.18351 0.20012,-0.77835 0.44451,-1.32217 0.72074,-1.6036 1.09059,-3.33338 1.30406,-6.09707 0.11782,-1.52546 0.31099,-2.47916 0.5012,-2.4926 z m -35.75438,1.23347 c 0.0215,-10e-5 0.0433,0 0.0659,0.0103 0.2621,0.0507 1.9008,1.78545 3.64155,3.85431 3.44532,4.09477 5.97234,6.63053 7.88968,7.9172 1.02293,0.68635 1.329,0.76263 1.81863,0.45253 0.85118,-0.53905 0.99725,-0.4666 0.78523,0.39001 -0.10383,0.41941 -0.0337,1.16039 0.15618,1.64687 0.18995,0.48647 0.44823,2.95135 0.57394,5.47708 0.21217,4.26253 0.30003,4.74632 1.22009,6.74004 1.37001,2.96862 2.61061,4.25167 2.46639,2.55025 -0.17486,-2.06306 -0.20502,-2.0436 2.4343,-1.5891 1.3188,0.22719 2.59059,0.48708 2.82638,0.5761 0.77909,0.29624 6.9225,1.09115 8.43205,1.09115 1.36479,0 1.54373,0.0921 2.26634,1.17085 0.43155,0.644 0.78469,1.54398 0.78469,1.99982 0,0.45594 0.20902,1.42899 0.46427,2.16253 0.87091,2.50296 0.4768,4.95541 -1.08368,6.74532 -0.96639,1.10844 -0.94558,1.79975 0.14924,4.98356 0.8608,2.50327 1.00028,3.22657 0.72316,3.75155 -0.49902,0.94552 -3.36678,4.59841 -3.60998,4.59841 -0.1137,0 -0.38063,-0.28235 -0.5932,-0.62745 -1.04918,-1.70359 -1.54035,-0.25348 -1.94808,5.75427 -0.28839,4.24939 -0.43875,5.6109 -1.10508,10.01287 -0.17638,1.16588 -0.54994,1.72615 -0.83658,1.25582 -0.0814,-0.13341 -0.51813,-1.65245 -0.97029,-3.37561 -0.93654,-3.56916 -2.73071,-7.66123 -4.32621,-9.86527 -1.02777,-1.41968 -4.45506,-4.55857 -4.70279,-4.30736 -0.0632,0.0642 0.24448,0.91178 0.6836,1.88441 1.48323,3.28515 2.51926,8.05311 1.74963,8.05311 -0.13519,0 -0.76144,-0.68542 -1.39126,-1.52277 -2.10637,-2.80085 -6.42987,-6.73094 -8.72785,-7.93335 -2.15411,-1.12727 -5.20363,-2.23126 -7.27079,-2.63214 -0.59559,-0.1155 -1.79658,-0.70156 -2.66911,-1.3024 -1.33604,-0.92005 -2.05464,-1.15894 -4.55195,-1.51262 -1.63093,-0.23092 -3.28375,-0.51804 -3.67311,-0.63811 -0.924,-0.28474 -2.7194,-1.6538 -2.7194,-2.07372 0,-0.21933 1.45791,-0.29075 4.33211,-0.21933 3.11128,0.0776 4.33118,0.0103 4.33103,-0.2509 -3.7e-4,-0.62952 -3.03626,-2.36436 -7.07182,-4.04093 -2.1515,-0.89378 -5.0253,-2.19111 -6.38662,-2.88304 -1.36135,-0.69193 -3.72863,-1.71828 -5.26014,-2.28074 -1.5315,-0.56233 -4.24629,-1.72107 -6.03305,-2.57488 -4.2016,-2.0079 -7.58141,-2.83853 -11.67939,-2.87061 -1.74419,-0.0134 -3.16972,-0.10144 -3.1687,-0.19418 0.004,-0.22906 4.19839,-2.88841 5.3869,-3.41525 2.86818,-1.27126 5.3104,-1.71342 9.92548,-1.79934 4.25623,-0.0786 4.88436,-0.16809 7.57996,-1.07613 7.205,-2.4271 12.08996,-6.59463 15.25674,-13.01567 0.5957,-1.20779 1.31654,-2.97266 1.60148,-3.9217 0.28492,-0.94904 0.62551,-2.00789 0.75687,-2.35298 0.13135,-0.34508 0.42484,-1.58569 0.65257,-2.75675 0.29415,-1.51242 0.50241,-2.04009 0.8248,-2.04215 z m -134.1875,7.07156 c 4.86874,-0.0517 6.16327,0.65054 2.16579,1.17469 -3.43776,0.45077 -7.52565,1.68444 -10.98349,3.31454 -2.25977,1.06528 -6.31166,3.6471 -7.65432,4.87705 -0.64077,0.58709 -1.30693,1.06703 -1.48006,1.06703 -0.73001,0 1.07434,-2.58721 3.13235,-4.4918 2.6168,-2.42181 4.62809,-3.56751 8.63209,-4.9166 2.49873,-0.8419 3.4259,-0.99593 6.18764,-1.02491 z m 136.27412,10.18895 -5.4e-4,5.1e-4 h -5.4e-4 l -5.2e-4,5.2e-4 -5.4e-4,5.2e-4 c -0.18928,0.19521 1.14501,8.67455 1.58756,10.08833 0.68626,2.19234 1.21116,2.87464 3.66883,4.77054 1.20227,0.92752 2.23576,1.69241 2.29683,1.69241 0.33868,0.0176 -0.47581,-1.95986 -1.72557,-4.18968 -2.00428,-3.57609 -4.20771,-8.15847 -5.03922,-10.47936 -0.37272,-1.04023 -0.71524,-1.8633 -0.78202,-1.88379 -2.6e-4,-1.1e-4 -0.001,0 -0.002,0 h -5.3e-4 c -2.3e-4,0 -10e-4,-1.1e-4 -0.002,0 z m -20.97796,13.38309 c -0.59528,-0.0155 -0.90152,0.0322 -0.7863,0.1594 0.4497,0.49641 7.59327,2.23694 11.72325,2.85633 2.85961,0.42892 5.26014,0.56958 5.26014,0.30854 0,-0.32438 -1.76505,-0.83218 -6.64552,-1.91319 -3.38225,-0.74926 -7.76577,-1.36471 -9.55157,-1.41108 z m -118.21453,0.72961 c 1.81775,-0.0466 3.68515,0.1268 5.56984,0.53595 4.64764,1.00907 8.23383,2.68264 12.13404,5.66276 2.71503,2.07445 3.91073,3.41142 6.88568,7.6985 3.99957,5.76347 8.34884,9.49659 13.34985,11.45873 3.12554,1.22634 7.48891,2.18282 9.99608,2.18282 4.17151,0.0103 11.34939,-1.73164 15.11393,-3.66014 0.82522,-0.42272 1.57993,-0.68832 1.67743,-0.58895 0.27351,0.27729 -4.81661,5.1853 -7.05845,6.80578 -9.48064,6.85264 -21.68952,8.38866 -32.88574,4.13781 -5.50885,-2.09163 -8.8026,-4.87871 -12.91606,-10.92754 -1.28969,-1.89642 -2.52558,-3.40708 -2.74615,-3.35636 -0.22057,0.0507 -0.66304,-0.14863 -0.98313,-0.44238 -0.90887,-0.83404 -0.96295,-0.34426 -0.0931,0.84408 0.43301,0.59163 1.62109,2.70687 2.6397,4.701 2.2635,4.43125 5.27417,8.56772 7.59334,10.4333 0.98446,0.79192 5.36929,3.24965 10.12767,5.6756 7.53401,3.84121 8.7877,4.37831 12.25973,5.25261 3.43604,0.8653 4.38531,0.9761 8.50855,0.9895 7.03284,0.024 11.41393,-1.0383 18.68166,-4.52884 4.07549,-1.95744 9.04487,-5.3168 11.7163,-7.92098 1.93569,-1.8869 1.95771,-1.7924 0.71408,3.02628 -2.24229,8.68844 -5.72617,17.39894 -9.00171,22.50614 -2.80823,4.3785 -7.47247,9.4122 -8.72143,9.4122 -0.98809,0 -0.48131,0.6246 1.31638,1.6229 0.9309,0.5171 2.31898,1.3285 3.08472,1.8036 0.76577,0.4751 2.3782,1.4439 3.58325,2.1524 1.20506,0.7085 2.38868,1.5375 2.63006,1.8421 0.31312,0.3954 0.0359,0.3176 -0.96654,-0.2713 -2.399,-1.4088 -10.65967,-5.5193 -13.35468,-6.6448 -5.67068,-2.3685 -7.0149,-2.4902 -14.22975,-1.2896 -2.59227,0.4313 -5.58784,0.7847 -6.65728,0.7847 -1.19726,0 -1.94487,0.1312 -1.94487,0.3418 0,0.2355 2.24243,0.31 7.54948,0.2355 l 7.54895,-0.1071 1.1912,0.9596 c 1.14767,0.9244 2.32321,2.8979 2.74775,4.6133 0.18025,0.7281 0.033,0.9286 -1.29551,1.7705 -0.82419,0.5222 -1.88978,1.038 -2.36851,1.1461 -0.47871,0.1079 -1.73185,0.9981 -2.78465,1.9775 -1.05279,0.9795 -2.81948,2.4034 -3.92559,3.1643 -1.10607,0.7615 -2.52048,1.8416 -3.14356,2.4 -1.4728,1.3203 -2.26714,1.7365 -2.86703,1.503 -0.81881,-0.3185 -0.55727,-1.0696 1.19603,-3.4316 1.94798,-2.6243 3.32076,-6.0736 2.77181,-6.9647 -0.42926,-0.6967 -8.72384,-3.8044 -10.8059,-4.0485 l -1.55547,-0.1824 -1.4624,1.7358 c -1.69789,2.015 -5.34523,4.8873 -7.7062,6.0686 -2.90338,1.4527 -3.59346,2.1435 -4.11921,4.1243 -0.26163,0.9856 -0.67278,2.4276 -0.91359,3.2041 -0.24082,0.7764 -0.58221,2.572 -0.75902,3.9906 -0.17679,1.4187 -0.53371,3.0952 -0.79324,3.7248 -0.82995,2.0142 -0.62818,5.9946 0.47337,9.3283 1.68297,5.0938 4.0884,9.2882 5.88543,10.2633 0.76848,0.417 1.13494,0.1772 0.64454,-0.422 -0.60966,-0.745 -1.9478,-4.6894 -2.39845,-7.0695 -0.56051,-2.9604 -0.5515,-4.5618 0.0326,-5.7071 0.33266,-0.6525 0.50001,-2.1726 0.57609,-5.2392 0.0589,-2.3764 0.25296,-4.685 0.43166,-5.1306 1.02508,-2.5552 4.33435,-6.7357 4.88784,-6.1745 0.19212,0.1948 -1.05629,3.5362 -2.19948,5.8863 -1.13628,2.336 -1.23729,3.5595 -0.47552,5.7672 0.40966,1.187 0.57685,2.2494 0.46857,2.9803 -0.2143,1.4469 0.26216,2.3135 3.36715,6.1269 2.26981,2.7875 4.35863,4.532 6.03894,5.0439 0.61282,0.1868 0.49941,-0.058 -0.73815,-1.5987 -0.80395,-1.0008 -2.00897,-2.9556 -2.67821,-4.3439 -1.09316,-2.2688 -1.20375,-2.7149 -1.08798,-4.4068 0.0793,-1.1585 -0.0413,-2.3648 -0.3129,-3.1369 -1.00797,-2.8663 0.65386,-7.8168 3.22593,-9.6113 2.62184,-1.8287 5.69082,-2.7865 5.6458,-1.7613 -0.0284,0.6444 -0.98016,2.7534 -2.43056,5.3883 -1.17818,2.1404 -1.38442,2.7921 -1.50947,4.7679 -0.0801,1.2656 0.0198,2.9507 0.22305,3.7698 0.35449,1.4274 1.37965,3.2504 1.82774,3.2504 0.11934,0 0.16432,-1.0477 0.10061,-2.3283 -0.1031,-2.0705 -0.0218,-2.5035 0.73441,-3.9126 0.4874,-0.908 1.61544,-2.2244 2.64236,-3.0837 1.44866,-1.2123 1.89238,-1.814 2.31823,-3.1455 1.01892,-3.1852 4.7554,-5.4221 9.16861,-5.4873 2.90927,-0.043 2.84724,-0.2198 2.61829,7.4467 -0.26369,8.8303 -1.09166,13.6229 -3.48376,20.168 -3.48651,9.5396 -8.99677,17.8051 -17.974,26.9621 -2.58426,2.636 -4.89396,4.793 -5.13283,4.793 -0.43228,0 -7.87529,-8.0051 -10.50155,-11.2945 -9.60947,-12.0357 -18.66409,-27.2408 -23.45773,-39.3916 -7.01664,-17.7855 -10.2335,-30.5081 -11.93186,-47.1975 -0.51221,-5.03334 -1.03883,-21.84421 -0.72692,-23.20261 0.16227,-0.70683 0.23857,-0.64266 0.91361,0.77132 0.40496,0.84832 1.58538,2.40349 2.62364,3.45634 2.72891,2.76711 5.73116,3.9008 9.59705,3.62331 1.10402,-0.0797 0.9947,-0.13435 -1.01094,-0.50605 -2.68721,-0.49785 -5.21378,-1.8756 -7.10017,-3.87191 -3.67993,-3.89438 -4.53256,-10.71691 -2.01441,-16.11915 3.37021,-7.23015 10.31371,-11.57104 18.19063,-11.77422 z m 286.43144,9.69946 c 0.5141,0 0.9903,0.25731 1.6999,0.80609 0.8933,0.69091 1.526,0.877 3.4806,1.02264 1.7627,0.13134 2.574,0.34177 3.0969,0.80289 1.1505,1.01424 5.6671,5.81987 5.9978,6.3816 0.469,0.79658 0.3863,21.70212 -0.1043,26.40009 -0.8822,8.4488 -2.8393,19.7381 -4.5685,26.3534 -1.2759,4.8813 -5.2706,17.1614 -6.4808,19.9221 -0.2269,0.5175 -1.1943,2.7764 -2.1497,5.0197 -2.8811,6.7647 -8.9625,17.9839 -13.2643,24.4708 -6.2494,9.4238 -15.9485,20.846 -23.5498,27.7349 -5.7589,5.2188 -8.1395,7.2779 -9.9062,8.5681 -0.8539,0.6237 -1.8152,1.4284 -2.1363,1.7881 -0.5592,0.6265 -1.1067,0.859 -1.1067,0.4703 0,-0.1015 0.2887,-1.2662 0.6413,-2.5884 1.6067,-6.0244 1.9185,-7.454 3.6689,-16.8357 1.7115,-9.1736 3.0236,-18.7789 3.7078,-27.1376 0.1766,-2.1571 0.48,-5.7568 0.674,-8.0001 0.8815,-10.1931 1.0223,-31.3441 0.298,-44.7067 -0.5053,-9.3182 -0.9239,-16.3637 -1.1207,-18.84272 l -0.1883,-2.37223 2.4034,-3.27501 c 3.577,-4.87477 6.2353,-8.04369 6.8941,-8.21841 0.3221,-0.0848 1.3325,0.12421 2.2455,0.46589 0.958,0.35854 3.0717,0.7353 4.9975,0.89107 3.0071,0.24324 3.6351,0.40884 6.3427,1.6715 2.4208,1.12883 3.4279,1.42702 5.1785,1.53301 1.837,0.11106 2.542,0.33629 4.5556,1.45694 1.6606,0.9242 2.5784,1.26256 3.0312,1.11683 0.7739,-0.24904 0.6906,-0.53999 -0.8119,-2.83532 -1.79,-2.7344 -4.7188,-4.5978 -8.1314,-5.17287 -1.7115,-0.28848 -3.4767,-1.38241 -4.0824,-2.52987 -0.5933,-1.12407 0.3281,-1.75307 4.6498,-3.17348 1.9722,-0.64814 2.043,-0.64979 4.6408,-0.10432 3.0884,0.64846 3.0162,0.61357 6.3941,3.06374 2.6531,1.92426 3.5147,3.02183 3.5147,4.47588 0,0.44517 0.3609,1.67864 0.8019,2.74122 0.8714,2.0995 0.8653,3.39942 -0.034,6.85556 -0.2398,0.92088 -0.3924,1.71829 -0.3396,1.77211 0.2888,0.29281 1.8987,-1.88152 2.8729,-3.8801 1.3471,-2.76399 1.5957,-4.70161 0.9103,-7.093 -0.2746,-0.95752 -0.499,-2.11449 -0.499,-2.57106 0,-1.18047 -0.7711,-2.55202 -2.675,-4.75564 -0.9109,-1.05451 -1.6566,-2.07777 -1.6566,-2.27431 0,-0.96778 3.0484,0.33659 5.4672,2.33952 1.1458,0.94894 1.3467,1.32341 1.7967,3.343 0.4166,1.86982 0.7242,2.49965 1.7303,3.54464 1.5969,1.65919 1.8855,2.75075 1.5122,5.73604 -0.1643,1.31399 -0.3776,2.63979 -0.4729,2.94607 -0.2608,0.83342 0.052,0.67475 0.8168,-0.41454 1.0366,-1.47609 2.4515,-5.60169 2.4525,-7.15178 0,-3.12078 -2.5137,-9.22386 -4.5241,-10.97299 -2.7196,-2.36603 -4.7911,-3.73198 -6.2031,-4.08969 -0.8208,-0.20795 -2.7456,-0.72216 -4.2771,-1.14259 -1.5315,-0.42034 -3.1736,-0.85278 -3.6489,-0.96115 -1.3408,-0.30565 -0.8322,-0.82079 1.2323,-1.24786 1.0334,-0.21373 2.3062,-0.61255 2.8285,-0.88631 0.5738,-0.3009 0.9968,-0.45905 1.3966,-0.45998 z m -261.18556,60.62891 c -0.77284,0.017 -1.39445,0.3359 -3.19385,1.3898 -3.02109,1.7692 -6.64076,3.1445 -8.97818,3.4114 -2.19343,0.2504 -2.7301,0.5686 -2.7301,1.6185 0,0.4772 -0.1262,1.0015 -0.28081,1.1655 -0.15461,0.1639 -0.79491,1.8509 -1.42282,3.7489 -1.45466,4.3973 -1.84309,5.2936 -3.1334,7.2283 -1.29664,1.9442 -1.79659,4.6005 -1.53193,8.1441 0.28153,3.7699 1.46479,7.8792 2.73277,9.4904 0.45963,0.5842 0.95065,0.4741 0.6991,-0.1568 -0.41145,-1.0317 -0.53978,-7.1189 -0.18989,-9.01 0.27592,-1.4907 0.59103,-2.1302 1.54531,-3.1369 0.98491,-1.0393 1.23584,-1.5672 1.4073,-2.9606 0.15709,-1.2765 0.45967,-1.9933 1.22383,-2.8986 0.55833,-0.6615 1.20289,-1.8044 1.43245,-2.5396 1.42147,-4.5533 1.82012,-4.9722 6.01594,-6.3233 4.16105,-1.34 7.19462,-3.8314 8.97229,-7.369 0.63439,-1.2623 0.4569,-1.4439 -1.69561,-1.7336 -0.34054,-0.045 -0.6148,-0.073 -0.8724,-0.068 z"
         transform="matrix(0.71882008,0,0,0.71882008,-548.12822,-574.22976)" /></g><g
       id="g7"
       transform="matrix(0.71882009,0,0,0.71882009,127.20582,-113.16962)"><ellipse
         style="opacity:1;fill:#ffffff;fill-opacity:1;stroke:none;stroke-width:8.35811;stroke-linecap:round;stroke-linejoin:round"
         id="path3-4-6-2"
         cx="532.16467"
         cy="980.26184"
         rx="188.45697"
         ry="188.45699" /><path
         id="path3-4-6"
         style="opacity:1;fill:#000000;fill-opacity:1;stroke:none;stroke-width:8.6523;stroke-linecap:round;stroke-linejoin:round"
         d="m 531.59108,805.42413 c -10.55665,-3.9e-4 -19.05994,0.71151 -29.60301,2.47825 -4.77699,0.80049 -10.66636,2.03495 -13.46093,2.82168 -11.83962,3.33305 -20.92229,6.55285 -28.20886,10.00007 -1.93554,0.91567 -3.93965,1.84012 -4.45357,2.05417 -0.51393,0.21404 -3.06585,1.52153 -5.67092,2.90553 -15.76379,8.37485 -28.43865,17.75748 -41.34885,30.60802 -10.92208,10.87162 -21.05893,24.26596 -28.0958,37.12517 -3.44269,6.29117 -5.01838,9.45665 -8.12972,16.32815 -0.80705,1.78248 -4.51829,11.49814 -5.32907,13.95139 -1.30693,3.95461 -1.41569,4.33988 -3.85938,13.67312 -1.36173,5.20076 -2.19573,9.5197 -3.40663,17.63831 -1.29549,8.68582 -1.52715,12.64812 -1.52756,26.11564 -3.6e-4,11.10579 0.0611,12.82583 0.62957,17.63832 2.82951,23.95395 9.10579,44.87995 19.19292,63.99015 1.9164,3.6308 7.68094,13.3517 9.204,15.5211 0.50053,0.7131 1.63663,2.3429 2.52469,3.6215 2.30255,3.3145 8.74592,11.3053 12.34807,15.3137 8.34129,9.2821 17.1112,17.2934 25.50415,23.2983 12.62927,9.036 23.3009,15.115 35.80008,20.3933 10.78236,4.553 14.75806,5.9109 25.10122,8.5734 12.20425,3.1415 23.57041,4.8702 35.38858,5.3822 2.41412,0.1045 4.75963,0.2079 5.21228,0.2307 2.25918,0.1126 16.59987,-0.5189 19.47745,-0.8577 11.18089,-1.3169 17.38591,-2.451 26.88435,-4.9139 8.63111,-2.2381 15.66901,-4.5962 22.49508,-7.5361 1.35793,-0.5849 3.66411,-1.5582 5.1244,-2.1633 5.3251,-2.2057 15.47723,-7.6878 21.48562,-11.6018 5.7163,-3.7237 13.67432,-9.4155 16.35749,-11.6997 1.30149,-1.1078 3.52357,-2.9666 4.93793,-4.1313 5.77261,-4.7525 15.8583,-15.1614 20.95143,-21.6225 5.74509,-7.2882 6.55567,-8.3811 9.56619,-12.9041 8.70364,-13.0762 15.42188,-26.8167 20.32402,-41.5662 3.00219,-9.0332 6.14949,-22.4622 7.01738,-29.9442 0.13086,-1.1281 0.42262,-3.5277 0.64832,-5.3326 1.47975,-11.83279 1.55273,-28.95745 0.17146,-40.16422 -1.54424,-12.529 -4.19919,-24.68886 -7.68018,-35.17462 -5.06583,-15.25976 -11.54,-29.09705 -19.06433,-40.74588 -5.50493,-8.52252 -8.62417,-12.6709 -15.23498,-20.26291 -4.07089,-4.67509 -14.11865,-14.74803 -17.01597,-17.05881 -1.12747,-0.89922 -2.61527,-2.1298 -3.30642,-2.73461 -1.88247,-1.64733 -10.4139,-7.99667 -13.69455,-10.19183 -9.61264,-6.43201 -23.2216,-13.49628 -33.05679,-17.15975 -22.56936,-8.40674 -41.39453,-11.89529 -64.19916,-11.89614 z m -15.21943,12.64443 c 6.08996,-0.68104 25.14442,-0.66248 31.27364,0.0303 11.74925,1.32829 18.95128,2.75159 30.17633,5.96437 9.48484,2.7147 23.12051,8.29953 31.28811,12.8148 19.11453,10.56707 34.23358,23.22564 48.78576,40.84522 0.51124,0.619 2.17031,2.78668 3.68684,4.8171 15.33389,20.53041 25.82993,46.06084 29.68018,72.19404 3.58734,24.34908 2.31416,47.41951 -3.84866,69.74911 -1.52022,5.5083 -4.81068,15.1537 -6.29192,18.4425 -0.20322,0.4513 -0.75974,1.8051 -1.23662,3.0083 -1.06833,2.6954 -7.025,14.2859 -9.34598,18.1853 -2.23488,3.7547 -7.23145,11.1819 -9.84213,14.6301 -9.64699,12.7422 -22.32163,24.9558 -34.47934,33.2257 -1.32631,0.9022 -2.51194,1.6402 -2.63453,1.6402 -0.46002,0 -0.18311,-1.3039 0.75493,-3.5551 4.14583,-9.9487 4.80898,-12.3134 4.98403,-17.7749 0.27465,-8.5695 -1.70132,-13.1718 -10.95606,-25.517 -3.14547,-4.1958 -4.33303,-6.0652 -4.33303,-6.8225 0,-0.2016 0.84768,-1.4683 1.88334,-2.8143 3.95736,-5.1433 4.44849,-7.5073 2.20269,-10.5978 -1.24129,-1.708 -7.12938,-7.847 -7.52641,-7.847 -0.19977,0 -0.4378,0.2339 -0.52883,0.5197 -0.54822,1.7219 -4.00023,6.1351 -7.40103,9.4617 -2.02506,1.9807 -8.77387,7.7937 -9.04861,7.7937 -0.70515,0 1.22156,-2.9792 6.72431,-10.3986 3.61378,-4.8725 6.38428,-9.2027 7.49801,-11.7183 0.99472,-2.2468 0.91787,-4.0887 -0.23361,-5.5937 -0.95511,-1.2482 -3.72357,-3.1027 -6.78754,-4.5474 -2.40156,-1.1324 -7.97885,-3.3022 -8.12542,-3.1612 -0.0454,0.043 0.18572,1.1087 0.51331,2.3671 0.83761,3.2173 1.00209,7.7995 0.40613,11.3118 -0.64272,3.7876 -1.3466,6.3666 -2.29109,8.3929 l -0.80424,1.7251 0.13288,-6.016 c 0.15864,-7.1886 -0.26291,-10.1213 -2.18125,-15.1773 -2.92698,-7.7144 -6.01707,-9.7462 -18.28743,-12.0275 -3.61424,-0.6721 -6.65462,-1.579 -9.84856,-2.9372 -1.82324,-0.7752 -2.30611,-1.1042 -2.46897,-1.6819 -0.507,-1.7986 0.0577,-17.62175 0.7528,-21.09134 0.82143,-4.10021 1.17487,-5.43813 1.46434,-5.54883 0.36186,-0.13839 3.61771,0.32329 7.59337,1.07675 1.68853,0.31999 3.9101,0.50046 6.3096,0.50046 3.51112,0.006 3.78512,-0.0333 5.2739,-0.76217 2.88422,-1.41184 4.08453,-3.44154 5.16084,-8.72622 0.89792,-4.40886 3.17859,-11.56083 4.86399,-15.25354 0.88364,-1.93595 2.95586,-7.24467 4.05602,-10.39103 0.55221,-1.57928 1.16969,-3.24048 1.37218,-3.69174 1.90285,-4.24005 2.12253,-7.95747 0.72493,-12.26626 -0.48078,-1.48234 -1.01565,-3.46254 -1.18893,-4.39998 -0.30947,-1.67426 -0.29849,-1.73728 0.6226,-3.58331 0.85709,-1.71768 1.02871,-1.8982 1.99587,-2.09851 1.6344,-0.33848 4.21876,-1.83502 5.25675,-3.04386 0.51567,-0.60051 0.87149,-1.15745 0.79083,-1.23807 -0.0806,-0.0806 -1.1775,-0.1107 -2.43736,-0.0673 -1.49805,0.0516 -2.35759,-0.029 -2.48398,-0.23286 -0.238,-0.38397 0.61745,-1.63292 3.18749,-4.65474 3.44737,-4.05331 5.80152,-8.14618 7.32762,-12.74002 1.21838,-3.66759 1.51032,-5.56876 1.50721,-9.8206 -0.002,-3.32631 -0.10385,-4.20514 -0.77317,-6.69984 -1.26553,-4.71695 -3.60002,-9.0873 -6.38514,-11.95222 -3.59668,-3.69952 -9.93257,-6.36965 -15.11388,-6.36975 -1.3117,-10e-5 -1.55951,-0.0978 -2.3318,-0.91973 -3.04785,-3.2434 -3.80331,-3.95745 -5.52787,-5.22623 -4.52291,-3.32761 -10.29673,-5.72564 -18.51728,-7.69059 -12.22412,-2.92191 -22.00021,-4.01039 -30.58782,-3.40546 -5.37981,0.37896 -8.75646,0.86982 -12.34485,1.7946 -10.23035,2.6365 -18.19635,6.87015 -25.44252,13.52142 -2.66106,2.44251 -6.57758,7.26897 -8.63337,10.63939 -3.5546,5.82772 -5.27779,9.76268 -7.74072,17.67571 -0.14044,0.45125 -0.51665,2.05098 -0.83638,3.55502 -0.31972,1.50403 -0.72932,2.8813 -0.91033,3.06042 -0.5426,0.53714 -9.82091,-2.23888 -22.09375,-6.6101 -5.41304,-1.92801 -5.54623,-0.87515 -0.74209,5.8741 4.26806,5.99608 15.25272,20.24805 18.60676,24.14105 l 1.36201,1.58043 -0.87068,2.79497 c -2.3248,7.46322 -4.13844,11.44917 -7.51193,16.51082 -3.55659,5.33626 -8.34468,10.67803 -14.06049,15.68562 -15.31504,13.41776 -19.75883,17.93452 -24.20321,24.60092 -6.20864,9.31283 -8.73829,18.10196 -8.03327,27.91302 0.29307,4.0784 0.51507,5.1735 1.82654,9.011 1.17929,3.4506 1.59618,4.3909 2.87512,6.4894 0.59339,0.9736 1.07857,1.809 1.07857,1.8555 0,0.046 -1.01845,0.9189 -2.26322,1.9382 -1.24478,1.0195 -3.12738,2.6678 -4.18354,3.6624 -1.05618,0.9947 -2.78445,2.4926 -3.84063,3.3285 -3.08234,2.4397 -6.86404,6.1265 -7.93682,7.7376 -1.52131,2.2847 -1.7546,3.9484 -0.99069,7.0636 0.6922,2.8228 2.11814,6.0186 4.66575,10.4572 1.82266,3.1757 4.54617,6.9643 5.00653,6.9643 0.40073,0 0.0882,0.9984 -1.12304,3.5886 -0.58914,1.2598 -1.65134,3.5829 -2.36075,5.1622 -1.90449,4.2396 -3.17894,6.5631 -3.60005,6.5631 -0.87778,0 -9.75255,-12.9525 -14.19283,-20.7144 -5.12178,-8.953 -8.25736,-15.9251 -12.5147,-27.8252 -2.85544,-7.9815 -4.65748,-14.9442 -6.61715,-25.5689 -3.02334,-16.39128 -3.35282,-34.99369 -0.91836,-51.87666 2.15536,-14.94742 6.03541,-28.89442 11.79513,-42.40055 2.29711,-5.38648 8.93943,-18.09452 11.11251,-21.26062 0.41293,-0.60163 1.5165,-2.32154 2.4529,-3.82205 1.88682,-3.02367 5.85112,-8.55995 8.20633,-11.46032 0.84078,-1.03542 1.89899,-2.34466 2.35163,-2.90981 7.98929,-9.97528 19.08125,-20.11556 31.8223,-29.09115 5.81041,-4.09322 14.194,-9.00617 20.8491,-12.21821 18.477,-8.91776 35.32201,-13.78325 55.55185,-16.0456 z m 52.31187,59.58913 c 0.92162,0.0541 1.96056,0.3398 3.26143,0.86578 3.38178,1.3674 6.72685,3.71048 9.94661,6.96795 l 2.83546,2.86869 2.10891,-2.08942 c 1.1597,-1.14922 2.32338,-2.08943 2.58631,-2.08943 1.05882,0 2.79437,4.18318 4.31106,10.39156 1.22557,5.01658 2.51707,10.98131 2.40253,11.09553 -0.0446,0.0445 -1.18984,0.63502 -2.54505,1.31283 -5.99573,2.99856 -9.78499,7.73212 -9.29829,11.6152 0.28852,2.30194 2.84195,9.2419 5.57179,15.14351 1.2196,2.63671 1.15122,3.13838 -0.69761,5.12901 -0.85164,0.91698 -2.39086,2.29182 -3.42056,3.05509 -1.98862,1.47407 -2.23542,1.87398 -2.21179,3.57905 0.0119,0.86405 0.20758,1.26297 0.99178,2.02211 0.73484,0.71142 0.97676,1.1722 0.97676,1.85817 0,1.19562 -0.71605,1.39086 -2.51184,0.68524 -2.49068,-0.97867 -3.95771,-0.66815 -9.55869,2.02428 -1.73513,0.83408 -4.06092,1.81816 -5.16886,2.18663 -2.61732,0.87035 -2.82492,1.09379 -1.66636,1.79618 1.31974,0.79998 2.98505,0.96659 5.73844,0.57311 3.2672,-0.46676 8.46758,-0.26611 9.43277,0.36426 0.82997,0.5421 1.00204,2.06748 0.29898,2.64917 -0.44499,0.36816 -0.823,0.34802 -7.38923,-0.39791 -1.95548,-0.22221 -3.6101,-0.34976 -3.67667,-0.28362 -0.0666,0.0663 0.51512,0.74458 1.29235,1.50725 1.44392,1.4168 1.6704,2.04694 1.07696,2.9942 -0.44854,0.71594 -0.28324,0.83376 2.82421,2.01625 1.44392,0.54945 2.91106,1.26453 3.26035,1.58897 0.59986,0.55708 0.62528,0.71998 0.45704,2.93758 -0.31704,4.17889 -1.56293,6.46054 -3.87705,7.10094 -1.88493,0.52163 -3.42178,0.3804 -7.54088,-0.69274 -11.67639,-3.04218 -30.58005,-10.7663 -37.02331,-15.12802 -3.81362,-2.58151 -5.3609,-5.63441 -7.14277,-14.09077 -0.73772,-3.50118 -0.99458,-4.12792 -1.97389,-4.82299 l -0.80263,-0.56988 -1.6685,0.74667 c -1.21053,0.54158 -2.27928,0.78313 -3.89312,0.88235 -2.84766,0.17436 -4.90638,-0.47561 -11.00321,-3.4749 -11.32394,-5.57077 -19.96641,-12.79439 -26.52912,-22.17341 -2.97051,-4.24523 -3.06278,-4.56827 -1.00516,-3.5219 2.32496,1.1824 3.25633,1.98397 4.85811,4.18152 2.35087,3.22523 5.81569,6.94071 8.95913,9.60751 1.50852,1.27975 2.84215,2.32709 2.96351,2.32709 0.12138,0 -0.33081,-1.01527 -1.00516,-2.25605 -1.24063,-2.28283 -1.69916,-3.60767 -2.08051,-6.01245 -0.30123,-1.89957 0.0265,-1.98164 3.68899,-0.9208 4.71126,1.36462 4.67314,1.32199 2.84617,3.14323 -1.06589,1.0625 -1.12174,1.19513 -0.9489,2.27261 0.41536,2.58928 2.94883,5.72703 5.88256,7.28574 1.63744,0.86995 5.16345,1.96213 8.78446,2.72127 2.53649,0.53166 3.95776,0.16227 4.7772,-1.24285 l 0.51866,-0.8893 -2.28091,-2.32763 c -1.25446,-1.28037 -2.43418,-2.6033 -2.62167,-2.93972 -0.1875,-0.33643 -0.34577,-1.32821 -0.35095,-2.20426 -0.009,-1.55881 -0.0427,-1.62731 -1.57043,-3.22386 -0.85851,-0.89722 -2.43249,-2.29333 -3.49771,-3.10209 -2.07451,-1.57524 -8.55903,-4.90104 -14.14462,-7.25477 -13.2433,-5.58069 -20.07319,-8.72056 -25.03584,-11.50836 -4.25432,-2.38991 -5.82475,-3.5358 -4.84471,-3.5358 0.16268,0 2.90941,0.85612 6.10383,1.9025 3.19444,1.04627 7.47465,2.39024 9.51155,2.98672 4.06656,1.19076 16.77186,5.56948 21.53493,7.42193 4.12878,1.60574 9.87335,4.23487 11.46989,5.24973 0.73448,0.46695 1.79608,1.51877 2.39503,2.37249 0.59174,0.84338 1.45502,2.03436 1.91816,2.64704 0.54777,0.72463 0.97688,1.75694 1.22806,2.9536 0.65917,3.14057 3.14824,6.6534 7.03186,9.92316 2.94372,2.47837 3.79129,2.99161 7.77929,4.71136 6.99736,3.01736 9.34634,4.32775 11.01393,6.14434 l 1.54204,1.67977 -0.15378,-1.36732 c -0.23408,-2.08355 -1.7204,-5.86538 -3.15748,-8.03296 -0.70881,-1.069 -2.46189,-3.19647 -3.89528,-4.72737 -4.69089,-5.00996 -6.3111,-7.75398 -6.30798,-10.68371 0.002,-2.28953 0.43898,-3.35455 3.27856,-8.00411 5.03395,-8.24253 5.41085,-8.73709 8.48549,-11.13558 2.21459,-1.72759 7.75488,-6.8176 10.05485,-9.23736 2.19339,-2.30763 3.11507,-3.37401 5.85041,-6.76874 3.28032,-4.07097 6.74321,-7.60315 8.09327,-8.2546 0.83108,-0.40107 1.63523,-0.5785 2.55684,-0.52449 z m -9.13594,22.65784 c -1.95929,0 -5.35037,0.96516 -7.91431,2.25287 -2.23731,1.12368 -5.79672,3.57246 -5.38962,3.70775 0.18253,0.0607 1.77633,-0.29742 3.54164,-0.79528 2.72886,-0.7697 3.66145,-0.90565 6.22708,-0.91599 2.88785,-0.0104 3.09684,0.0286 4.85436,0.90798 1.01008,0.50531 2.01845,1.12061 2.24072,1.36732 0.37123,0.41176 0.21033,0.45114 -1.9739,0.47801 -2.7325,0.0337 -4.28432,0.52223 -9.99644,3.14642 -1.92717,0.88535 -3.74085,1.60981 -4.0303,1.60981 -0.97321,0 -0.83186,0.47347 0.50044,1.67601 3.55545,3.20899 7.39925,5.75262 9.64067,6.37937 1.12947,0.31565 2.25247,0.3834 4.47608,0.26919 1.63249,-0.0838 3.14402,-0.21962 3.35895,-0.30231 0.64049,-0.24495 0.20864,-0.55518 -1.03999,-0.74721 -2.50262,-0.3849 -6.3381,-1.94095 -7.69787,-3.12345 -0.43924,-0.3819 -0.44502,-0.45195 -0.0573,-0.66818 0.82699,-0.46137 5.76327,-2.0999 6.34014,-2.11024 0.92753,-0.009 1.9357,0.979 2.86278,2.80726 0.99711,1.96623 1.48273,2.56469 2.50969,3.09409 1.2827,0.66116 1.55294,0.51137 1.64491,-0.91174 0.0801,-1.24026 0.13864,-1.32293 1.40863,-1.99061 0.93973,-0.49404 1.59267,-1.11946 2.24499,-2.15085 1.25161,-1.97874 1.7603,-2.49481 2.45988,-2.49481 1.20297,0 2.39087,-2.16007 1.79654,-3.26712 -0.42008,-0.7824 -3.75181,-2.75044 -8.51764,-5.03181 -5.26147,-2.51867 -7.25018,-3.18648 -9.49011,-3.18648 z m 31.17238,17.62443 c 0.98799,0.008 1.41233,1.19134 0.82513,2.73088 -0.24609,0.64473 -0.3946,0.69902 -1.85173,0.67938 -1.8073,-0.0247 -2.27019,-0.15489 -2.27019,-0.63931 0,-0.4681 1.91189,-2.34915 2.69294,-2.6497 0.21878,-0.0842 0.42088,-0.12281 0.60385,-0.12125 z m -6.3321,20.2501 c -1.12611,-0.0791 -2.9085,0.32654 -4.40644,1.13924 -1.30652,0.70881 -1.89291,1.60341 -1.48363,2.26355 0.26343,0.4249 0.8421,0.36256 3.5781,-0.38562 2.49692,-0.68278 3.42697,-1.31631 3.42697,-2.33405 0,-0.41341 -0.43933,-0.6356 -1.115,-0.68312 z m -10.47812,1.33739 c -0.0534,0.002 -0.0922,0.0906 -0.13182,0.25638 -0.16446,0.68731 0.43515,2.03699 1.11608,2.51244 0.78182,0.54592 0.90314,0.29096 0.29094,-0.61102 -0.28394,-0.41828 -0.68963,-1.1297 -0.90175,-1.58096 -0.18678,-0.39728 -0.29552,-0.57975 -0.37345,-0.57684 z m -54.5376,32.16173 c 8.8e-4,-10e-5 0.002,0 0.003,0 0.22516,0 2.46108,2.78787 6.47033,8.06713 7.16475,9.43424 16.34052,18.99583 22.00591,22.93139 l 1.98888,1.3817 v 4.5692 c 0,6.2419 0.72262,9.9051 2.69079,13.6412 1.14649,2.1762 3.21142,4.6489 3.88242,4.6489 0.50176,0 2.17566,-1.6573 2.74492,-2.7176 0.30457,-0.5673 0.40623,-0.5746 5.57767,-0.3984 4.06244,0.1384 5.37479,0.2723 5.73522,0.5849 1.30004,1.1268 8.79101,14.633 10.20756,18.4041 l 0.46668,1.2428 -0.90712,1.4176 c -0.49907,0.7794 -1.02025,1.4228 -1.15786,1.4228 -0.13761,0 -1.3721,-0.6444 -2.7433,-1.4399 -3.76197,-2.1826 -5.58892,-3.0044 -6.27798,-2.8233 -0.40283,0.106 -1.1372,1.0682 -2.20268,2.8859 -0.87915,1.4997 -1.95998,3.2244 -2.40201,3.8327 -0.77983,1.0731 -1.51351,1.3767 -2.04837,0.8481 -0.14333,-0.1417 -1.86575,-0.9493 -3.82722,-1.7951 -3.65698,-1.5769 -7.45624,-2.8783 -15.63681,-5.3566 -5.02627,-1.5226 -4.85995,-1.4308 -9.63639,-5.3298 -1.48965,-1.216 -3.6175,-2.8564 -4.72898,-3.6453 -1.11148,-0.789 -2.94256,-2.1645 -4.06887,-3.0567 -1.12633,-0.8921 -3.26548,-2.483 -4.75362,-3.5347 -2.54145,-1.7962 -3.19862,-2.3677 -2.96942,-2.5824 0.1547,-0.145 7.31434,0.3639 9.56029,0.6793 4.77546,0.671 11.02205,1.8277 13.99084,2.5905 0.62751,0.1613 0.6042,0.1038 -0.27433,-0.6752 -1.29243,-1.146 -3.83329,-2.5293 -6.19118,-3.3701 -4.99579,-1.7815 -14.63534,-3.9066 -21.92765,-4.8341 l -4.11496,-0.5235 -5.08207,-2.5445 c -2.79516,-1.3995 -7.08501,-3.2828 -9.53297,-4.1853 -2.44798,-0.9024 -4.41191,-1.758 -4.36411,-1.9009 0.0478,-0.1428 1.62174,-0.947 3.49771,-1.7876 6.63783,-2.9746 10.84577,-5.557 13.58203,-8.3358 1.81737,-1.84566 4.38512,-5.54759 5.79094,-8.34864 1.95147,-3.88835 4.32972,-11.03513 5.98329,-17.98018 0.25759,-1.08187 0.55737,-1.9688 0.66974,-1.9826 z m -76.34631,6.70624 c 0.16733,-0.004 0.0965,0.22425 -0.28075,0.73813 -9.2885,12.65163 -13.2581,25.78355 -11.14145,36.85665 0.30176,1.5786 0.54866,2.9515 0.54866,3.0507 0,0.1613 -1.85029,1.7063 -4.61593,3.8542 -1.12086,0.8704 -1.64114,0.9461 -1.88281,0.2735 -0.0945,-0.2634 -0.39793,-1.0655 -0.67456,-1.7824 -2.06696,-5.3557 -1.97469,-13.3899 0.232,-20.1631 1.83157,-5.6217 6.1696,-12.40122 10.95927,-17.12769 3.22404,-3.18157 6.30898,-5.68528 6.85557,-5.69999 z m 21.53492,35.26698 c 2.96853,-0.1136 6.6246,-0.047 9.37331,0.258 12.19346,1.3565 27.47069,7.7113 43.2713,17.9989 1.74103,1.1335 3.33028,2.2585 3.53147,2.5001 0.5561,0.668 0.091,0.5336 -2.30769,-0.6675 -10.33092,-5.1732 -27.31732,-11.834 -37.99474,-14.8989 -6.37089,-1.8288 -14.8278,-3.5541 -18.99039,-3.874 -1.4087,-0.1084 -2.13303,-0.2775 -2.13303,-0.4982 0,-0.4113 2.28125,-0.7045 5.24977,-0.8184 z m -8.54173,16.3566 c 8.73136,-0.2054 18.2554,0.6022 26.47286,2.2443 1.05618,0.2112 3.64859,0.7064 5.76093,1.1007 10.03944,1.8743 28.3779,7.3976 40.05221,12.0633 7.8519,3.1382 20.70207,9.5662 22.29253,11.1516 0.35533,0.3542 -0.72248,0.091 -2.26643,-0.5533 -1.5824,-0.6607 -9.13852,-3.2197 -16.32265,-5.528 -8.01451,-2.5749 -20.41791,-5.5592 -29.62765,-7.1281 -16.36339,-2.7875 -26.12198,-3.6606 -41.01237,-3.6709 -13.31322,-0.01 -20.66221,0.6776 -30.4244,2.8409 -2.92256,0.6475 -9.05432,2.3934 -11.88567,3.384 -1.91255,0.6693 -3.09157,0.872 -3.09157,0.5315 0,-1.2619 6.67708,-6.3088 12.34753,-9.3329 5.43438,-2.8981 10.27314,-4.5736 18.10312,-6.2689 2.67687,-0.5795 4.13144,-0.7057 9.60156,-0.8342 z m 117.24132,18.5132 c 0.18124,0 1.74458,0.9624 3.47414,2.139 1.72955,1.1765 3.73099,2.4735 4.44768,2.8826 1.21339,0.6926 1.30306,0.7073 1.30306,0.2153 0,-0.7863 1.89617,-4.464 2.20376,-4.2746 0.14593,0.089 0.26521,1.4567 0.26521,3.037 0,1.5802 0.13714,3.1414 0.30488,3.4701 0.16775,0.3286 1.16,1.4665 2.20482,2.5285 l 1.89995,1.9302 -0.27272,2.9921 c -0.14988,1.6452 -0.40282,6.3756 -0.56205,10.5118 -0.29259,7.6007 -0.71145,14.7545 -0.98856,16.8863 -0.0831,0.6391 -0.24008,1.1621 -0.34933,1.1621 -0.10925,0 -0.60668,-0.8305 -1.10536,-1.8459 -2.43153,-4.9501 -8.67988,-12.7503 -16.5343,-20.641 l -4.89239,-4.9152 3.34875,-6.7406 c 3.70911,-7.4643 4.76315,-9.3377 5.25246,-9.3377 z m -20.70281,2.984 c 0.33974,-0.012 1.10574,0.2033 2.28786,0.6009 2.34072,0.7874 7.61374,3.2767 7.61374,3.5945 0,0.1418 -0.44974,0.984 -0.99926,1.8715 -0.54953,0.8876 -1.01685,1.6141 -1.03892,1.6141 -0.0221,0 -0.49184,-0.5392 -1.04428,-1.1981 -0.55243,-0.6587 -2.36891,-2.2794 -4.0362,-3.6015 -2.52684,-2.0034 -3.43157,-2.8578 -2.78294,-2.8814 z m 22.62741,1.3913 c -0.15545,0.019 -0.84283,1.2113 -1.53615,2.6663 -0.69877,1.4665 -1.92863,3.8788 -2.73257,5.3614 l -1.46168,2.6956 2.46898,2.2192 c 1.35793,1.2206 4.5676,4.2834 7.13257,6.8055 2.565,2.5223 4.72999,4.5871 4.81097,4.5881 0.13302,0 1.79417,-12.3713 2.11266,-15.7364 l 0.13074,-1.3807 -2.12766,-1.4902 c -1.1703,-0.8195 -2.75754,-1.9495 -3.52719,-2.5108 -1.79943,-1.3122 -4.91874,-3.218 -5.26692,-3.218 -10e-4,0 -0.002,-10e-5 -0.004,0 z m -56.89298,2.136 c 0.88602,0.3489 0.56833,0.4486 -2.7433,0.8583 -1.43336,0.1772 -4.21096,0.5693 -6.17242,0.8711 -13.56986,2.0878 -30.12129,7.6984 -44.03,14.9256 -3.47683,1.8065 -5.85174,3.1387 -14.95099,8.3865 -5.80941,3.3505 -23.36366,15.731 -28.02348,19.764 -0.92847,0.8036 -1.9199,1.4614 -2.2032,1.4614 -0.2833,0 -1.22126,-0.7116 -2.08428,-1.581 l -1.56936,-1.5804 1.57794,-1.5125 c 5.15511,-4.9413 11.25683,-10.1044 16.87238,-14.2773 10.28263,-7.6409 14.94346,-10.5471 24.20857,-15.0943 6.97822,-3.4248 9.23899,-4.3524 15.49965,-6.3596 9.33198,-2.992 16.32989,-4.555 24.27822,-5.4228 4.87479,-0.5319 18.32821,-0.8375 19.34027,-0.439 z m 58.84383,3.0603 c 0.15088,3e-4 1.20019,0.6145 2.33181,1.3647 l 2.05747,1.3641 0.13717,3.8995 c 0.0755,2.1448 0.0755,3.978 0,4.0752 -0.0755,0.097 -0.97387,-0.8419 -1.9964,-2.0852 -1.02253,-1.2432 -2.58993,-2.8599 -3.48323,-3.5933 -0.8933,-0.7336 -1.6302,-1.5569 -1.63849,-1.83 -0.0155,-0.5366 2.14146,-3.1959 2.59167,-3.195 z"
         sodipodi:nodetypes="sssssssssssssssssssssscsssssssssssssssssssssssssscssssssssssssssscsssssssssscsssssssscsssssssssssssssssssssssssssssssccsscssssssssssssssssssssssssssssssccsssssssssssssssssssssssssssssscscssssssssssssssccscssssssssssssssscsssssssssssssscsssssssscssscssssssssssssssssssssssssssssssscssssssscccssssssssssssssssscssscssssscsssscsssssscssssssscssssscsssssssssssssccssssssccssssssssscssssscscssscsssssssccsssscssscsssscssscs" /></g><g
       id="g8"
       transform="matrix(0.71882009,0,0,0.71882009,797.68262,-104.74503)"><ellipse
         style="opacity:1;fill:#ffffff;fill-opacity:1;stroke:none;stroke-width:8.35811;stroke-linecap:round;stroke-linejoin:round"
         id="path3-4"
         cx="115.95549"
         cy="968.54181"
         rx="188.45697"
         ry="188.45699" /><path
         id="path1"
         style="fill:#000000"
         d="m 116.47903,793.90246 c -14.05324,-0.005 -19.695848,0.45826 -32.014588,2.62774 -6.69689,1.17941 -16.672421,3.68113 -21.719601,5.4467 -12.034743,4.20992 -15.097348,5.48972 -25.033097,10.46189 -14.97434,7.49366 -30.0169116,18.50276 -42.9606856,31.44098 -7.7644744,7.76115 -12.5342804,13.33026 -18.9357944,22.11027 -7.007668,9.61137 -15.007641,23.99047 -19.284095,34.66042 -3.581361,8.93565 -6.021178,16.25483 -7.893575,23.68021 -2.722368,10.79613 -3.048431,12.56625 -4.532023,24.60625 -1.794239,14.56102 -1.517179,30.24699 0.822689,46.56667 0.6512,4.54191 2.847372,15.23381 3.549654,17.28111 0.184271,0.5372 0.490641,0.2184 2.063956,-2.1461 0.80273,-1.2064 2.660638,-3.8457 4.128431,-5.8653 1.568765,-2.1585 2.617447,-3.8442 2.544547,-4.0897 -0.180629,-0.6081 -0.863184,-4.75157 -1.311031,-7.95814 -0.346561,-2.48137 -0.514562,-3.8179 -1.082621,-8.59896 -0.416274,-3.50354 -0.632662,-15.5512 -0.394291,-21.96041 0.457196,-12.29282 1.787176,-21.78711 4.632792,-33.07292 1.778414,-7.05324 2.627678,-9.74928 6.211507,-19.71146 1.867574,-5.19141 5.610609,-13.27691 9.06353,-19.57917 4.954459,-9.04287 7.641639,-13.30146 12.573392,-19.92849 4.9976174,-6.71554 9.0669684,-11.3606 16.0398484,-18.30793 9.1672886,-9.13371 19.2073556,-17.32111 27.3859256,-22.333 17.924309,-10.98417 37.788532,-18.68044 56.379502,-21.84363 2.25557,-0.38378 5.11074,-0.87164 6.34483,-1.08366 11.334728,-1.94734 25.592978,-2.1626 41.412458,-0.62528 7.7367,0.75185 17.64497,2.81401 27.77815,5.78052 2.0356,0.59593 3.99232,1.08314 4.34806,1.08314 0.35575,0 1.81652,-0.59532 3.24631,-1.32292 1.4298,-0.72761 2.68967,-1.32291 2.79983,-1.32291 0.11015,0 0.40664,0.58121 0.65887,1.29139 0.49655,1.39808 1.20013,2.05213 3.6866,3.42977 1.996,1.10589 1.98496,1.10694 5.37177,-0.35037 0.43656,-0.18785 1.50812,-0.61694 2.38125,-0.95343 0.87312,-0.3365 2.53099,-1.05309 3.68401,-1.59215 l 2.09651,-0.97979 -2.44481,-1.22783 c -2.68772,-1.34985 -11.27638,-4.92446 -15.63884,-6.50864 -2.39606,-0.8701 -4.52634,-1.51646 -11.77396,-3.57291 -0.72761,-0.20645 -2.39447,-0.61561 -3.70416,-0.90951 -1.30969,-0.2939 -2.79798,-0.6466 -3.3073,-0.78393 -3.31428,-0.89362 -12.97617,-2.42721 -20.4897,-3.252 -4.62961,-0.50822 -6.75974,-0.58352 -16.68425,-0.58652 z m 82.96031,18.3751 c -0.18445,-3e-4 -0.34081,0.39561 -0.50902,1.14722 -0.38416,1.7166 -1.42555,3.42619 -3.28765,5.39863 -2.58441,2.73754 -5.64163,4.58116 -10.63656,6.41408 -0.87312,0.32039 -1.85369,0.68775 -2.1792,0.81649 -0.61787,0.24437 -5.75908,1.64001 -8.27184,2.24534 -2.01943,0.48649 -8.49898,1.7075 -9.05991,1.70739 -0.37051,-7e-5 -0.27749,-0.2407 0.47284,-1.2237 0.51378,-0.67308 1.16752,-1.68512 1.45314,-2.24895 0.28563,-0.56384 0.74506,-1.47175 1.02061,-2.01745 0.94956,-1.88051 2.86116,-8.16866 2.57142,-8.4584 -0.0445,-0.0445 -0.54556,0.29453 -1.11363,0.75344 -5.24773,4.23925 -13.77833,7.62521 -21.95938,8.71627 -3.13229,0.41774 -11.10724,0.16528 -16.90905,-0.53537 -7.67442,-0.9268 -15.72908,-1.59809 -19.18229,-1.59835 -13.746118,-10e-4 -24.822768,3.56079 -34.006188,10.93524 -3.73564,2.99979 -7.402593,7.35945 -8.578293,10.19783 -0.69843,1.68616 -1.267597,0.55996 -1.309997,-2.5926 -0.03644,-2.71132 0.421373,-5.07286 1.462443,-7.54425 0.48627,-1.15433 0.820924,-2.16235 0.743624,-2.23965 -0.40307,-0.40307 -4.715956,5.04833 -5.906616,7.46569 -1.7745,3.60274 -1.996641,5.61896 -1.045931,9.49555 0.309349,1.26134 0.516069,2.3253 0.465604,2.3921 -2.08e-4,2.3e-4 -0.0013,10e-4 -0.0015,0.002 l -5.17e-4,5.1e-4 h -5.17e-4 c -0.0596,0.0355 -1.370914,0.70178 -2.914034,1.48053 -10.691353,5.39551 -17.444816,15.40715 -18.766296,27.82001 -0.43846,4.11853 -0.303855,4.54636 0.748275,2.38125 1.13612,-2.33796 3.389657,-5.77886 4.729427,-7.22126 1.35994,-1.46411 1.788824,-1.75853 1.574064,-1.08004 -0.54178,1.71159 -1.255967,5.94937 -1.520837,9.0227 -0.50736,5.88708 0.180306,12.71877 1.885156,18.72548 1.34526,4.73976 1.878042,6.25694 4.365625,12.4318 3.29927,8.18971 4.365732,12.13452 4.366142,16.15043 8.1e-4,7.90294 -2.645021,14.08826 -7.409884,17.32401 -1.24443,0.84507 -2.061055,1.17587 -5.018815,2.03192 -0.56645,0.16394 1.904482,1.45045 4.101042,2.13527 2.983523,0.93017 4.077178,1.10976 6.872448,1.12706 l 2.645834,0.0165 -1.058334,0.91622 c -1.13664,0.98393 -5.536005,3.29695 -6.270418,3.29695 -1.01354,0 -0.664282,0.56046 0.814421,1.3069 3.26954,1.65046 4.21725,1.9061 7.63881,2.05931 1.78263,0.0798 3.241146,0.23624 3.241146,0.34778 0,0.11154 -0.522153,1.49452 -1.160653,3.0732 -2.68357,6.63518 -6.683389,14.64406 -7.313249,14.64406 -0.25244,0 -1.276757,-0.31137 -2.276347,-0.69194 -7.210813,-2.74537 -15.691834,-4.51672 -22.851834,-4.77284 -7.97325,-0.28521 -13.553634,1.28436 -17.110584,4.81263 l -1.632975,1.61954 -4.5847336,0.30851 c -7.816509,0.52566 -13.47975,1.87374 -20.1956664,4.80797 -5.153315,2.25152 -10.728451,5.80293 -14.419791,9.18549 -2.375621,2.1769 -8.799345,8.88354 -8.955526,9.34984 -0.05059,0.151 0.723314,-0.2531 1.719792,-0.8976 4.159516,-2.6907 12.668898,-6.26586 18.215942,-7.65384 0.291041,-0.0728 1.66026,-0.43731 3.042708,-0.80977 9.4087724,-2.53494 24.008291,-2.99296 35.057293,-1.09968 1.30968,0.22442 3.400311,0.58017 4.645711,0.79065 3.59474,0.60753 11.457312,2.58914 13.081372,3.29696 0.29104,0.12684 1.71979,0.67721 3.174999,1.22266 2.58358,0.96839 8.867129,3.59122 11.244792,4.69382 1.5986,0.7412 8.998488,5.0234 10.980208,6.3541 6.55557,4.4018 15.12378,11.9504 19.71559,17.369 4.93268,5.8207 8.53844,11.3132 11.38639,17.3452 2.00371,4.2438 2.30678,4.9721 3.46077,8.3235 2.076208,6.0296 3.047638,11.342 3.315558,18.1255 0.13646,3.455 0.0996,4.2909 -0.20206,4.5403 -0.30655,0.2534 -8.063018,1.6451 -15.318958,2.7486 -4.33389,0.6592 -9.98247,1.6005 -13.46481,2.2438 -2.759842,0.5099 -3.960975,0.6313 -4.365625,0.4408 -0.30703,-0.1445 -1.927323,-1.424 -3.600813,-2.8432 -3.5003,-2.9685 -6.770051,-5.4689 -11.152291,-8.5282 -3.027093,-2.1132 -8.881961,-5.8797 -9.140011,-5.8797 -0.07221,0 -0.447281,-0.2191 -0.833541,-0.4873 -0.38627,-0.2682 -1.773842,-1.0611 -3.083532,-1.7617 -1.309679,-0.7005 -2.831662,-1.5569 -3.382222,-1.9027 -2.03252,-1.2766 -8.270809,-4.227 -13.418819,-6.3469 -1.23692,-0.5093 -2.546617,-1.0501 -2.910417,-1.202 -6.677281,-2.7874 -17.7678516,-6.1378 -23.9447916,-7.2331 -1.309687,-0.2323 -3.665595,-0.6491 -5.23534,-0.9266 -4.0690184,-0.7193 -10.3367294,-1.3068 -13.9180134,-1.3038 -5.798594,0 -14.553524,0.7276 -17.715715,1.4635 -0.414493,0.096 -0.586024,0.039 -0.515214,-0.1736 0.144327,-0.433 4.400302,-1.9412 8.130254,-2.881 10.999062,-2.7715 24.1484374,-2.7209 39.1759034,0.1509 2.6921346,0.5144 5.2519806,1.0464 5.6885406,1.1823 0.43656,0.136 1.86531,0.5538 3.175,0.9282 3.02675,0.8651 9.233548,2.8629 11.641668,3.747 4.81823,1.769 13.487224,5.9743 20.240624,9.8191 4.610713,2.6249 11.895368,7.4666 15.742708,10.4634 1.89177,1.4735 3.975359,3.0852 4.630209,3.5812 0.65484,0.496 1.286128,1.0623 1.402498,1.2583 0.29603,0.4986 1.50446,0.4477 6.66729,-0.2811 2.47385,-0.3492 7.4017,-1.0331 10.95076,-1.5193 l 6.45283,-0.8842 -0.15968,-2.7792 c -0.48647,-8.4669 -2.51328,-15.8729 -6.04666,-22.0932 -5.78283,-10.1803 -13.78151,-19.034 -24.231593,-26.8216 -9.49123,-7.0731 -17.415245,-11.2781 -28.372944,-15.057 -18.386611,-6.34068 -33.3731286,-7.49201 -48.551043,-3.72894 -1.504105,0.37292 -5.937353,1.79934 -6.879166,2.21334 -0.436563,0.1919 -1.329532,0.5669 -1.984375,0.833 -4.967104,2.0187 -12.599797,6.526 -16.36541,9.664 -5.384716,4.4873 -10.622091,9.5172 -10.622091,10.2014 0,0.861 4.297289,12.803 5.736084,15.9407 0.368966,0.8046 0.903747,2.0583 1.188558,2.7859 0.726011,1.8547 5.010394,10.2991 6.913274,13.626 0.873957,1.528 2.118071,3.7306 2.764689,4.8948 5.205389,9.3717 16.96862,24.2463 26.6939774,33.7535 3.511665,3.4329 10.303049,9.4417 13.324252,11.7894 8.0880786,6.285 11.1280706,8.3848 19.9760416,13.7961 6.04895,3.6995 21.321275,11.2573 25.267708,12.5041 1.23663,0.3906 4.983205,1.7976 5.866825,2.2035 0.91682,0.421 6.114203,2.1957 7.494633,2.559 0.43656,0.1148 2.282032,0.6394 4.101042,1.1658 5.471418,1.5833 10.002428,2.5515 19.314578,4.1269 3.65605,0.6186 10.07912,1.3695 14.552088,1.7012 l -5.2e-4,-5e-4 c 8.95938,0.6643 24.61133,0.2316 32.80833,-0.9069 11.58245,-1.6086 20.13025,-3.3722 27.51667,-5.6782 1.09141,-0.3407 2.57969,-0.8058 3.30729,-1.0336 9.56691,-2.9946 22.12463,-8.302 29.67364,-12.5413 1.28757,-0.723 3.05533,-1.7073 3.92845,-2.187 1.50503,-0.8271 3.03716,-1.7619 9.76684,-5.9583 4.77634,-2.9783 12.42236,-8.5844 16.47445,-12.0793 6.00658,-5.1807 7.48234,-6.5145 10.76265,-9.7265 10.48979,-10.2714 21.2453,-24.1681 28.27269,-36.5306 0.37224,-0.6549 0.94818,-1.6669 1.28003,-2.249 1.13277,-1.9869 5.46377,-10.8418 6.7293,-13.7583 0.6946,-1.6007 1.58789,-3.6248 1.98489,-4.4979 0.397,-0.8732 1.08593,-2.5996 1.53118,-3.8365 1.22273,-3.3968 2.63158,-7.459 2.84478,-8.2021 0.10438,-0.3638 0.27726,-0.7805 0.38396,-0.926 0.10669,-0.1455 0.27881,-0.5623 0.38241,-0.9261 0.47726,-1.6759 0.70531,-2.5033 1.71307,-6.2177 0.59222,-2.1828 1.19315,-4.3854 1.33532,-4.8948 0.14217,-0.5093 0.50124,-2.2357 0.7984,-3.8364 0.29716,-1.6007 0.65897,-3.5057 0.80408,-4.2333 0.53557,-2.68559 1.32497,-8.09725 2.02624,-13.89068 0.686,-5.66703 0.72164,-6.54439 0.73484,-18.25625 0.0125,-11.06213 -0.047,-12.86357 -0.58911,-17.85937 -1.16487,-10.73581 -2.48235,-18.63913 -4.21215,-25.26771 -0.20886,-0.80036 -0.61206,-2.40772 -0.89607,-3.57188 -0.28402,-1.16417 -0.68241,-2.65245 -0.88522,-3.30729 -0.20282,-0.65485 -0.62794,-2.0836 -0.94464,-3.175 -6.0107,-20.71362 -17.30292,-42.00197 -31.71848,-59.79583 -6.56352,-8.10168 -18.12308,-19.64637 -24.92561,-24.89357 -8.54919,-6.5945 -12.58704,-9.50227 -13.19558,-9.50227 -0.15748,0 -0.21924,0.26225 -0.14004,0.59532 0.51252,2.15638 0.92401,6.43217 0.92501,9.61491 l 0.002,3.72794 1.52136,1.19941 c 6.67958,5.26804 9.34193,7.58836 14.52263,12.65711 7.0207,6.86898 14.18233,15.25143 18.83502,22.0462 1.10846,1.61878 2.39441,3.44358 2.85771,4.05505 1.00565,1.32724 4.58597,7.07557 6.23993,10.01799 10.12846,18.01869 16.85393,37.60508 19.6634,57.26524 1.13185,7.92049 1.38943,10.5848 1.73839,17.99167 0.71006,15.07137 -0.92113,31.77677 -4.54701,46.56671 -0.73135,2.9831 -1.55028,6.1383 -1.81952,7.0114 -1.16874,3.7902 -2.15262,6.768 -2.92851,8.8636 -0.45798,1.2369 -0.92476,2.5466 -1.03714,2.9104 -0.24866,0.8049 -3.25508,8.0603 -4.13877,9.988 -0.35021,0.764 -0.92985,2.0267 -1.28829,2.806 -0.65507,1.4243 -3.44084,6.5695 -5.82239,10.7539 -4.55903,8.0102 -13.86971,20.7752 -20.26336,27.7812 -1.3944,1.528 -2.76204,3.0461 -3.03909,3.3735 -0.27704,0.3274 -0.58424,0.5953 -0.68264,0.5953 -0.18028,0 -1.50564,-3.056 -4.07417,-9.3927 -0.76681,-1.8918 -1.73644,-4.273 -2.15491,-5.2917 -1.769,-4.3061 -1.82539,-4.6076 -1.34411,-7.197 0.23801,-1.2805 0.64742,-3.3258 0.91003,-4.5454 l 0.47749,-2.2175 -1.7198,-1.5776 c -11.11619,-10.1953 -16.49749,-14.4643 -26.89293,-21.3357 -3.22219,-2.1299 -6.58564,-4.3265 -7.47448,-4.8813 -0.88884,-0.5548 -1.82434,-1.3178 -2.07894,-1.6955 -1.26941,-1.8832 -3.74557,-4.0038 -6.41615,-5.4953 -4.29033,-2.3961 -4.32938,-2.4166 -4.94698,-2.5751 -0.46998,-0.1205 -0.33461,0.1474 0.70693,1.3989 5.808,6.979 10.08474,16.3366 12.15378,26.5917 0.93456,4.6321 2.23697,14.7991 2.67374,20.8752 0.16703,2.3236 0.43159,4.4667 0.58808,4.7625 0.1565,0.2958 1.30747,1.5103 2.55798,2.6985 1.25051,1.1883 3.64298,3.4911 5.31647,5.1176 1.67349,1.6264 3.28407,3.1208 3.57911,3.3212 0.47682,0.3239 0.93269,0.218 4.10105,-0.9534 1.96053,-0.7249 3.78467,-1.444 4.0535,-1.5979 0.63219,-0.3618 0.82108,-0.1595 0.42839,0.4589 -0.75144,1.1835 -8.30561,6.442 -9.25421,6.442 -0.37334,0 -3.09192,-2.4733 -13.81466,-12.5677 l -2.24844,-2.1167 -0.31575,-3.8364 c -0.59332,-7.2126 -1.87574,-18.4508 -2.41897,-21.1992 -2.75912,-13.9596 -6.95399,-23.4559 -13.76867,-31.1687 -2.60961,-2.9535 -5.71089,-5.3288 -9.49968,-7.2755 -3.16755,-1.6275 -11.69712,-5.1299 -14.59342,-5.9924 -1.06861,-0.3183 -2.03803,-0.6647 -2.15439,-0.7695 -0.28737,-0.2587 0.95469,-8.66215 2.07636,-14.04873 0.50238,-2.41256 0.91312,-4.48094 0.91312,-4.5961 0,-0.28323 2.62425,-0.0286 4.89479,0.4749 1.74794,0.38762 5.17052,1.01125 10.58333,1.92857 3.51351,0.59567 9.98485,0.6009 11.50938,0.009 1.91376,-0.74264 2.98528,-1.60114 3.89485,-3.12022 1.21832,-2.03474 1.46435,-4.11452 1.09089,-9.2196 -0.36025,-4.92453 -0.11898,-6.85781 1.42214,-11.38535 0.56964,-1.67349 1.18306,-3.87615 1.36322,-4.89479 0.18016,-1.01865 0.73536,-2.68553 1.23352,-3.70417 0.8214,-1.67958 0.89945,-2.03838 0.83715,-3.85351 -0.0925,-2.69575 0.61468,-6.93384 1.43919,-8.62583 0.66506,-1.36478 0.97703,-1.63891 4.03593,-3.5388 0.78449,-0.48725 1.83903,-1.30888 2.34301,-1.82625 0.83966,-0.86197 0.90413,-1.04065 0.77101,-2.13165 -0.0799,-0.65485 -0.90648,-3.57187 -1.83658,-6.48229 -0.9301,-2.91041 -2.14288,-7.10018 -2.69492,-9.31054 l -1.00356,-4.01888 0.91726,-1.07125 c 0.83787,-0.97885 1.14694,-1.5016 2.04535,-3.45871 0.167,-0.3638 0.80042,-0.89957 1.40767,-1.19062 2.7379,-1.31221 5.48803,-4.05098 5.48803,-5.4653 0,-0.41834 -0.47568,-1.69453 -1.05729,-2.836 -1.21947,-2.39334 -2.50672,-6.62142 -2.95796,-9.71621 l -0.31213,-2.14198 1.22732,-1.8464 c 2.17415,-3.27038 3.11124,-6.20982 3.13004,-9.81956 l 0.0103,-2.02778 0.5147,0.65474 c 0.99557,1.26672 2.32174,4.3814 2.75694,6.47557 0.6106,2.9382 0.56381,7.75693 -0.10646,10.98021 -0.28747,1.38244 -0.60326,2.7219 -0.70176,2.97656 -0.33233,0.85963 0.31857,0.47095 1.7725,-1.05833 1.55116,-1.63156 3.67879,-4.66547 4.77749,-6.81302 2.89297,-5.65468 3.39628,-13.50428 1.22008,-19.03088 -0.96131,-2.44131 -2.068,-4.51447 -3.11713,-5.83995 -0.57591,-0.7276 -1.30107,-1.65375 -1.61178,-2.05828 l -0.56483,-0.73535 1.3317,0.50591 c 2.45346,0.93224 4.88633,2.48787 6.64353,4.24729 1.96255,1.96503 4.4148,5.51548 5.31595,7.69772 0.85019,2.05885 0.96432,2.09398 1.15859,0.35502 0.21592,-1.93282 -0.20718,-6.0291 -0.9338,-9.03925 -0.67029,-2.77682 -2.69786,-7.03123 -4.34443,-9.11675 -2.93966,-3.72331 -7.89875,-6.08408 -11.91142,-5.66994 -0.78007,0.0805 -1.42065,0.10381 -1.44539,0.0532 l -5.2e-4,-5.2e-4 v -5.2e-4 l -5.2e-4,-5.1e-4 c -1e-5,-2.2e-4 0,-10e-4 0,-0.002 0,-0.0546 0.2679,-0.6115 0.59532,-1.23766 1.70897,-3.26826 2.92329,-6.86351 3.53983,-10.48049 0.88057,-5.16599 0.15872,-14.32918 -1.63452,-20.75016 -0.54366,-1.94667 -0.88579,-2.85001 -1.16427,-2.85047 z m -70.78483,46.35738 c 0.33663,-0.005 1.30812,0.19652 2.93264,0.60461 7.32478,1.84005 13.02788,2.66976 16.59795,2.41484 6.95323,-0.4965 7.20664,-0.49763 9.4356,-0.046 3.33855,0.67648 5.90029,1.61002 9.26145,3.3755 3.93679,2.06783 6.81906,3.95024 9.24285,6.03633 1.92726,1.65874 1.95426,1.6714 2.63601,1.2454 1.66032,-1.03747 3.81142,-2.06816 4.09174,-1.9606 0.51937,0.1993 1.97399,5.3437 3.7543,13.27981 0.93393,4.16319 1.50004,6.27446 2.86855,10.69598 0.37952,1.22619 0.68988,2.63049 0.68988,3.12023 0,0.88084 -0.0363,0.90766 -3.37343,2.48667 -1.85539,0.87793 -3.77285,1.9006 -4.26124,2.27273 -1.04634,0.79726 -1.62574,2.03742 -1.62574,3.48092 0,1.62192 2.45447,10.39313 5.00796,17.89555 2.4548,7.2125 2.54689,7.97134 1.0604,8.74003 -0.69545,0.35963 -1.15495,0.37466 -3.4308,0.11008 -2.90376,-0.33758 -6.09509,-0.23246 -8.72298,0.28732 -3.04512,0.60231 -3.22495,0.56221 -3.63647,-0.80306 -0.19739,-0.65484 -0.29988,-1.58491 -0.22738,-2.06705 0.10742,-0.71452 0.0505,-0.8612 -0.30799,-0.7922 -0.66471,0.12801 -1.5799,1.6629 -1.93321,3.24166 -0.45886,2.05039 -0.15254,3.21936 1.19837,4.57026 1.12032,1.12032 1.15377,1.13275 3.00085,1.13275 1.9737,0 2.69958,0.35366 2.69958,1.31465 0,0.75175 1.46242,4.16043 2.1916,5.10873 0.36066,0.46904 0.96752,1.18654 1.34875,1.59422 0.78052,0.83465 0.88694,1.44974 0.29094,1.67845 -0.22104,0.0848 -1.4559,-0.12114 -2.74453,-0.45734 l -2.34301,-0.61133 -2.74505,0.47956 c -2.41328,0.42141 -5.47104,1.26279 -8.43412,2.3213 -0.50933,0.18194 -1.86476,0.33449 -3.01221,0.33849 -1.96457,0.007 -2.10038,0.0447 -2.32441,0.65008 -0.57596,1.55646 1.36153,1.88569 7.10551,1.20717 2.4563,-0.29014 4.75927,-0.40805 6.16861,-0.31575 2.74313,0.17963 6.15376,1.21577 7.38353,2.24328 0.76991,0.64326 0.87357,0.86201 0.71314,1.5012 l -0.18759,0.74827 -2.56522,-0.1726 c -1.41097,-0.0949 -3.72345,-0.0612 -5.1387,0.0749 -3.88943,0.37412 -5.16475,1.30018 -5.57744,4.0504 -0.1265,0.84305 -0.0442,1.07151 0.57826,1.59525 0.74749,0.62897 1.46989,0.882 4.66173,1.6335 2.96017,0.69696 2.90373,0.55848 2.54765,6.26731 -0.34509,5.53247 -0.71371,6.74956 -2.26859,7.4874 -0.83841,0.39785 -3.02561,0.50994 -4.64468,0.23823 -1.79606,-0.30141 -5.5119,-1.72946 -13.40642,-5.15214 l -6.13089,-2.65824 0.0176,-7.57886 c 0.0217,-9.23496 -0.15868,-10.57303 -1.72289,-12.78423 -0.61315,-0.86676 -1.51288,-2.19309 -1.99988,-2.94763 l -0.88573,-1.37201 0.16898,-8.99583 0.16846,-8.99583 -1.26762,-0.7798 c -2.92043,-1.79643 -9.31066,-6.11798 -10.66033,-7.20938 -2.45188,-1.9827 -4.29092,-3.87253 -4.68912,-4.81831 -0.34593,-0.82165 -0.33448,-0.9618 0.12816,-1.5875 0.87484,-1.18317 4.58797,-4.27015 7.20679,-5.99137 3.32923,-2.18816 4.56604,-2.80754 5.90972,-2.95899 0.98879,-0.11145 1.3182,0.009 2.83032,1.03663 2.68989,1.82774 3.98345,2.51414 5.82238,3.08818 2.10495,0.65708 3.95841,0.95807 3.95841,0.64286 0,-0.12976 -0.42655,-0.64624 -0.94826,-1.14773 -1.02439,-0.98469 -2.38249,-3.09316 -2.14509,-3.33055 0.0802,-0.0802 0.89828,0.1513 1.81798,0.5147 2.55202,1.00837 4.36376,1.32037 6.71329,1.15652 1.15657,-0.0807 2.48382,-0.22598 2.94969,-0.32298 l 0.84697,-0.17674 0.18035,1.35961 c 0.16618,1.25272 0.31095,1.47434 1.84072,2.8174 l 1.66036,1.45779 1.67794,-0.55552 c 2.31372,-0.76597 4.60198,-2.18826 6.1991,-3.85299 0.74023,-0.77156 1.64642,-1.47825 2.01383,-1.57045 2.34943,-0.58967 4.42616,-4.26316 3.99924,-7.07399 -0.17319,-1.14027 -0.49764,-1.26815 -0.91157,-0.35967 -0.33638,0.73827 -1.26126,1.21957 -2.34301,1.21957 -0.85125,0 -3.76267,-0.99446 -6.27869,-2.14457 -0.90475,-0.41357 -2.3335,-1.04284 -3.175,-1.39837 -0.8415,-0.35554 -2.72076,-1.20625 -4.17597,-1.89084 -6.01322,-2.82885 -7.72203,-3.41136 -9.42216,-3.21066 -1.19285,0.14082 -12.33034,3.84798 -13.81932,4.59972 -0.41371,0.20888 -0.79712,0.33511 -0.85162,0.28061 -0.0546,-0.0546 1.05806,-1.29045 2.4722,-2.74661 3.80144,-3.9144 7.31872,-8.23144 7.41402,-9.09918 0.0444,-0.40417 -0.4064,-2.62324 -1.00201,-4.93148 -1.22,-4.7281 -2.29943,-9.99796 -2.55333,-12.46539 -0.1466,-1.42473 -0.10987,-1.65365 0.26355,-1.65365 0.23837,0 0.43304,-0.11906 0.43304,-0.26458 0,-0.14552 -0.56555,-0.26439 -1.25677,-0.26459 -3.14193,-9.1e-4 -10.3055,-1.79798 -14.13195,-3.545 -0.91666,-0.41854 -1.21513,-0.63014 -0.8785,-0.6351 z m 6.35517,10.09086 c 0.15848,0.002 -0.16205,0.46534 -1.22267,1.89445 -2.1851,2.94429 -4.68319,8.2787 -4.32015,9.22476 0.0866,0.22557 -0.0551,0.49955 -0.33331,0.64492 -0.69035,0.36068 -5.115,1.06746 -7.75973,1.23972 -4.23376,0.27577 -6.21852,0.31744 -7.54063,0.15762 l -1.32291,-0.1602 2.22983,-0.74363 c 4.73115,-1.57834 11.24311,-5.38073 17.08475,-9.97561 1.30969,-1.03016 2.60409,-1.997 2.87631,-2.14871 0.14957,-0.0833 0.25568,-0.13396 0.30851,-0.13332 z m -69.018009,26.65263 c 2.430213,0.0711 11.297021,1.66979 17.175181,3.15898 4.03844,1.02311 9.30213,2.75303 11.42049,3.75326 2.61418,1.23434 6.061768,5.1146 7.907528,8.90023 0.52063,1.06782 0.84427,2.03176 0.71882,2.14199 -0.61606,0.54135 -2.74591,-0.4719 -6.049248,-2.87838 -5.60209,-4.08111 -6.7946,-4.74694 -12.30312,-6.86986 -1.96453,-0.75711 -3.81,-1.47664 -4.10104,-1.59887 -2.88948,-1.21358 -9.53895,-3.88799 -10.583337,-4.25659 -1.99926,-0.7056 -4.970991,-2.11746 -4.805391,-2.28306 0.05697,-0.057 0.272944,-0.0779 0.620117,-0.0677 z m 18.043341,30.15268 c 0.12257,-1.8e-4 0.28093,0.0744 0.44287,0.22686 0.45493,0.4284 3.91973,1.5505 6.54482,2.11925 1.82509,0.39542 3.58227,0.56506 6.0141,0.58136 3.324888,0.0223 3.452528,0.0445 3.949628,0.67645 0.53171,0.67595 0.91621,1.72192 1.17202,3.18895 0.17526,1.00508 -0.23591,1.51108 -1.81022,2.22622 -0.586758,0.26653 -1.424308,0.47719 -1.860868,0.46819 -2.29519,-0.0469 -5.66604,-1.43418 -9.22683,-3.7977 -1.47961,-0.98211 -5.45755,-4.92123 -5.45755,-5.40432 0,-0.18869 0.09313,-0.28505 0.23203,-0.28526 z m 14.09113,39.53041 c 0.13587,-0.0135 0.47894,0.36088 0.79323,0.87333 0.33525,0.54661 1.616988,2.42249 2.847888,4.16874 2.9584,4.19702 10.95757,16.19073 11.4701,17.19791 0.45075,0.88577 1.7504,5.25232 3.22926,10.84792 1.70858,6.46478 3.83823,13.06758 5.36815,16.64398 1.85546,4.3373 5.10859,9.875 7.67809,13.07 0.5038,0.6264 0.86988,1.1853 0.81338,1.2418 -0.0645,0.052 -1.17612,-0.4976 -2.47685,-1.2253 -1.30583,-0.7306 -2.96985,-1.6605 -3.69745,-2.0665 -2.4351,-1.3589 -9.21782,-5.6245 -13.49375,-8.4858 -2.32833,-1.5581 -8.34099,-5.5434 -13.361458,-8.8563 -5.02047,-3.3129 -10.97358,-7.2429 -13.22916,-8.73386 -5.12862,-3.39002 -12.42957,-7.89434 -15.213543,-9.38599 -3.47074,-1.85963 -3.428757,-2.05164 0.264583,-1.20872 1.4552,0.33211 3.30067,0.80925 4.10104,1.0604 7.17045,2.25009 18.19258,7.95852 25.50335,13.20797 2.101628,1.5091 2.539628,1.6745 2.061378,0.7803 -0.875208,-1.6364 -2.017678,-9.64144 -2.410188,-16.8899 -0.35156,-6.4915 -0.54236,-22.06483 -0.27234,-22.23171 0.0071,-0.004 0.01523,-0.007 0.02429,-0.008 z m -59.871795,44.33268 c 0.52683,0 2.461289,0.6761 4.141348,1.447 0.43656,0.2003 1.400805,0.6025 2.142505,0.894 2.53631,0.9967 9.707247,4.8908 13.864787,7.5287 7.47462,4.7426 16.336385,12.4587 21.835355,19.0128 2.56829,3.0611 5.30057,7.2688 6.4146,9.879 1.55676,3.6475 2.70629,9.9812 2.70629,14.9102 0,1.7543 -0.076,2.1283 -0.46302,2.2779 -0.64396,0.2488 -2.10402,0.5231 -9.98802,1.8779 -3.78354,0.6502 -7.17681,1.2451 -7.54062,1.3219 -0.509544,0.1075 -0.995678,-0.1348 -2.116668,-1.0558 -3.41366,-2.8045 -12.045464,-9.2462 -15.345834,-11.452 -12.868733,-8.6005 -25.983772,-15.1032 -37.570833,-18.6288 -1.38244,-0.4207 -2.870732,-0.8784 -3.307292,-1.017 -1.77485,-0.5635 -9.0806016,-2.3706 -10.2557036,-2.5368 -0.693013,-0.098 -1.312117,-0.2621 -1.375627,-0.3648 -0.06351,-0.1028 0.622406,-0.6753 1.524455,-1.2718 0.902048,-0.5965 2.295054,-1.6505 3.095418,-2.3425 3.875989,-3.3512 14.8352336,-11.1712 20.2855836,-14.4746 3.29294,-1.9957 11.273756,-6.0053 11.953276,-6.0053 z m 125.827463,25.4419 c 0.46443,0.018 0.51948,2.9286 -0.13798,5.6467 -0.53493,2.2115 -1.89163,4.455 -3.92999,6.4978 -1.09738,1.0997 -2.6484,2.4392 -3.44682,2.9765 -0.79843,0.5374 -1.63185,0.9724 -1.85208,0.9664 -1.28318,-0.033 -15.93876,-5.3053 -20.66438,-7.4337 -3.72805,-1.6791 -11.35383,-5.5838 -11.35383,-5.8136 0,-0.1268 0.98228,0.1371 2.18282,0.5865 8.07466,3.023 23.30503,6.8786 27.45052,6.949 1.91186,0.033 2.05562,-0.01 3.93516,-1.1571 3.35725,-2.049 6.38802,-5.4701 7.22695,-8.1581 0.23442,-0.7511 0.43481,-1.0664 0.58963,-1.0604 z m -59.77568,7.1727 c 0.1478,0.01 0.72934,0.3002 1.37769,0.6991 0.71542,0.4403 2.72281,1.4707 4.46071,2.2903 6.33665,2.9885 7.5585,3.5543 7.67602,3.5543 0.0659,0 0.68393,0.25 1.37356,0.5556 2.11326,0.9362 2.24349,0.9916 4.56096,1.9275 1.23693,0.4996 2.9887,1.2161 3.89278,1.5922 5.65688,2.3532 21.40772,7.3874 28.26701,9.0345 l 2.92385,0.7023 1.70636,-0.8128 c 0.93871,-0.447 1.93715,-0.9652 2.21847,-1.1514 0.28131,-0.1861 1.53147,-0.9815 2.77812,-1.7678 1.24666,-0.7864 3.01068,-2.2051 3.92018,-3.1528 l 1.65364,-1.7234 v 1.4893 c 0,2.8116 -1.48071,5.6174 -5.68389,10.7693 -1.12786,1.3825 -2.50232,3.0196 -3.05407,3.6381 -1.01881,1.142 -1.65784,1.3406 -2.77141,0.8609 -0.29104,-0.1254 -3.14854,-0.9595 -6.35,-1.8536 -12.14972,-3.3933 -28.03597,-8.8981 -35.39887,-12.266 -0.83943,-0.3839 -1.58365,-0.6981 -1.65365,-0.6981 -0.19966,0 -2.40966,-0.9936 -5.0493,-2.2701 l -2.41433,-1.1674 -1.09812,-2.713 c -0.60424,-1.4921 -1.63349,-3.7721 -2.2872,-5.0669 -0.64859,-1.2847 -1.13238,-2.3859 -1.08159,-2.4614 2.2e-4,-2e-4 0.001,-10e-4 0.002,0 0.006,-0.01 0.0162,-0.01 0.0315,-0.01 z m 91.66985,10.8903 c 0.53932,-0.051 2.12352,9.1365 2.12545,12.5206 7.8e-4,1.502 -0.10828,2.712 -0.24494,2.712 -0.33828,0 -0.47878,-0.5932 -0.68937,-2.9104 -0.0992,-1.0914 -0.45519,-4.2444 -0.79064,-7.0068 -0.33546,-2.7624 -0.54017,-5.1352 -0.45527,-5.2726 0.0167,-0.027 0.0351,-0.041 0.0548,-0.043 z m -117.776788,2.297 c -0.68354,0 -1.30757,0.2438 -2.01538,0.7565 -1.3315,0.9646 -1.64124,1.5142 -1.64124,2.9146 0,1.4431 0.57683,2.4895 1.90117,3.4489 0.89407,0.6476 1.34879,0.7885 2.54507,0.7885 1.34798,0 1.52956,-0.076 2.43499,-1.0283 2.15401,-2.2644 1.51916,-5.0647 -1.45469,-6.4157 -0.6705,-0.3046 -1.23827,-0.461 -1.76992,-0.4645 z m 33.158188,6.4425 c 0.2886,-0.013 2.14171,0.6607 4.25865,1.5523 2.22106,0.9355 5.64533,2.3225 7.60987,3.082 1.96453,0.7595 4.29807,1.6632 5.18521,2.0087 1.956,0.7616 15.17973,5.1002 18.495,6.0678 1.30969,0.3823 2.67891,0.7931 3.04271,0.9131 0.3638,0.12 1.43537,0.4277 2.38125,0.6837 0.94589,0.256 2.4243,0.6858 3.28507,0.9555 0.86078,0.2697 1.7766,0.4904 2.03502,0.4904 0.25842,0 0.54205,0.1174 0.63045,0.2605 0.14911,0.2413 -1.60208,3.9211 -4.05453,8.5199 -1.9132,3.5875 -7.65713,12.9826 -8.03104,13.1361 -0.49712,0.2041 -0.12985,0.9771 1.22008,2.5683 0.78916,0.9303 2.18815,2.7218 3.10886,3.9812 0.9207,1.2594 2.6106,3.5515 3.75532,5.0942 1.14471,1.5426 2.13727,2.9519 2.20607,3.1311 0.22037,0.5743 -5.99298,7.7291 -12.18272,14.0286 -3.36532,3.425 -3.45706,3.4946 -4.77955,3.6365 -0.74154,0.08 -4.08668,0.3807 -7.43366,0.6692 -7.62676,0.6578 -17.06562,0.9947 -17.06562,0.6098 0,-0.151 0.44649,-0.612 0.99219,-1.0242 1.34516,-1.016 5.43651,-5.2051 8.2951,-8.4936 3.22641,-3.7117 7.79011,-9.814 7.53235,-10.0717 -0.0627,-0.063 -2.59273,1.3698 -5.62239,3.1832 -6.4976,3.889 -12.2714,7.073 -12.82558,7.073 -0.21711,0 -0.90195,-0.6251 -1.52187,-1.3891 -0.61993,-0.764 -1.62296,-1.925 -2.22932,-2.5802 -0.60636,-0.6552 -2.1148,-2.322 -3.35173,-3.7041 -1.23692,-1.3821 -4.09442,-4.5398 -6.349998,-7.0172 -2.25557,-2.4774 -4.31131,-4.7509 -4.5682,-5.0524 -0.3584,-0.4205 -0.59188,-1.7121 -1.00355,-5.55 -0.59713,-5.5669 -0.69724,-6.1924 -0.99374,-6.1924 -0.11313,0 -0.34428,0.8037 -0.51315,1.7859 -0.51049,2.9695 -1.61076,6.3993 -2.96726,9.247 -3.30106,6.9299 -8.47655,12.7832 -15.51068,17.5431 -2.92874,1.9818 -7.202441,4.4959 -7.637261,4.4959 -0.15163,-7e-4 0.438428,-0.6394 1.311548,-1.4191 7.778383,-6.9462 13.562723,-14.8295 16.527153,-22.5247 0.98722,-2.5626 2.04132,-6.3798 2.281,-8.261 0.11914,-0.935 0.31472,-1.4253 0.60565,-1.5167 0.23645,-0.074 2.33494,-0.4356 4.66328,-0.803 8.265788,-1.3045 9.624288,-1.6256 12.567708,-2.9709 3.54665,-1.621 5.71496,-4.0237 7.07554,-7.8409 0.99699,-2.7971 1.12717,-7.6569 0.34778,-12.963 -0.31737,-2.1606 -0.68397,-4.2103 -0.81494,-4.5548 -0.14564,-0.3831 -0.14069,-0.6864 0.0129,-0.7813 0.007,0 0.0168,-0.01 0.031,-0.01 z m 92.0259,4.487 c 0.94286,0.051 1.8297,0.638 2.37712,1.711 0.90274,1.7696 0.56148,3.6662 -0.83561,4.6447 -0.94175,0.6597 -2.15428,0.5191 -3.09387,-0.3586 -1.74501,-1.6301 -2.0052,-3.7946 -0.61546,-5.1165 0.66746,-0.6349 1.43449,-0.9199 2.16782,-0.8806 z m -179.323932,4.7212 3.082499,1.3022 c 4.41315,1.8643 16.709057,8.3667 16.709057,8.8362 0,0.053 -1.025038,1.379 -2.277898,2.9476 -1.252849,1.5686 -2.758291,3.5366 -3.345531,4.3734 -0.58725,0.8367 -1.139732,1.5191 -1.227832,1.5151 -0.08805,0 -1.70801,-0.6981 -3.59978,-1.5435 -12.18531,-5.4455 -21.992678,-8.437 -34.0697556,-10.3927 -1.130313,-0.183 -2.015769,-0.4505 -1.967839,-0.5943 0.08133,-0.2439 2.933181,-1.2018 7.594886,-2.5507 1.091406,-0.3158 2.282031,-0.6713 2.645833,-0.7896 2.6397956,-0.8589 11.2695916,-2.6116 14.2471926,-2.8939 z m 141.993392,10.9611 1.01028,1.6371 c 0.55558,0.9003 1.81666,2.774 2.80241,4.1636 0.98576,1.3895 2.78754,4.0384 4.00441,5.8869 1.21686,1.8485 2.40477,3.5207 2.63963,3.7156 0.55233,0.4584 0.53986,0.9661 -0.0455,1.836 -0.25991,0.3863 -0.61031,1 -0.77825,1.3638 -0.16795,0.3638 -1.30531,2.8045 -2.52801,5.4239 -2.15138,4.6089 -2.87489,6.1935 -3.65353,8.0037 -0.20344,0.473 -0.45073,0.8599 -0.54983,0.8599 -0.0992,0 -0.98634,-1.1608 -1.97094,-2.5797 -3.13423,-4.5164 -6.42919,-8.7634 -8.32042,-10.7234 -1.00907,-1.0457 -1.83504,-1.9866 -1.83504,-2.0913 0,-0.1047 0.51598,-0.9403 1.14619,-1.8568 0.63021,-0.9164 1.71782,-2.7976 2.41742,-4.1801 0.69961,-1.3824 1.87254,-3.6353 2.60604,-5.0064 0.73349,-1.371 1.72077,-3.3835 2.19419,-4.4726 z m 56.66941,0.3126 0.36846,0.877 c 0.20284,0.4823 1.15274,2.4843 2.11046,4.4488 0.95772,1.9645 1.74139,3.7814 1.7415,4.0375 1.1e-4,0.256 -0.50602,1.2362 -1.12448,2.1776 -0.61846,0.9415 -1.19474,1.7142 -1.28054,1.7172 -0.21949,0.01 -0.68808,-1.0593 -1.74202,-3.9636 -0.50167,-1.3824 -1.32833,-3.5561 -1.83658,-4.8307 -0.50824,-1.2745 -0.85177,-2.4336 -0.76377,-2.576 0.088,-0.1424 0.69266,-0.6255 1.34358,-1.0734 z m -173.004421,1.357 c 0.57569,0 5.227357,2.8916 5.238957,3.2567 0.0038,0.1177 -0.687117,1.1298 -1.535307,2.249 -1.934853,2.553 -7.891083,11.0964 -9.027873,12.949 -0.813,1.325 -1.597983,1.7713 -1.992643,1.1328 -0.31403,-0.5081 -4.565262,-2.6476 -7.545792,-3.7977 -8.94893,-3.4531 -14.783373,-4.8844 -28.2241176,-6.9231 -6.31859,-0.9584 -6.965466,-1.0949 -6.965466,-1.4707 0,-0.3702 0.385589,-0.5025 3.426664,-1.1751 4.37937,-0.9687 8.1808046,-1.2854 13.3413046,-1.1111 4.920301,0.1662 7.817675,0.647 12.071615,2.0035 3.67541,1.1721 4.477572,1.4809 7.999512,3.0799 1.75481,0.7967 3.262283,1.4431 3.350183,1.4361 0.08788,-0.01 0.576402,-0.6084 1.085721,-1.3374 2.38607,-3.415 8.250772,-10.2919 8.777242,-10.2919 z m 117.467761,5.0535 c -0.35561,0.011 -0.85642,0.9849 -2.90783,5.1278 -1.47777,2.9845 -2.68718,5.4806 -2.68718,5.5475 0,0.067 0.62509,0.9415 1.38907,1.943 0.76398,1.0016 2.26709,2.9718 3.33985,4.3781 1.07276,1.4063 2.04143,2.5564 2.15284,2.5564 0.11142,0 0.54007,-0.8037 0.95239,-1.786 0.41231,-0.9823 1.24489,-2.7384 1.85054,-3.9025 0.60565,-1.1642 1.36511,-2.7352 1.68775,-3.4913 l 0.58704,-1.3751 -1.1715,-1.5353 c -1.33825,-1.7548 -4.43798,-6.4347 -4.43798,-6.7004 0,-0.097 -0.21934,-0.3761 -0.48782,-0.6191 -0.095,-0.086 -0.17652,-0.1458 -0.26717,-0.1431 z m -0.016,6.059 c 0.41152,0 3.38505,4.7207 3.69228,5.8617 0.24325,0.9034 0.2032,1.2204 -0.2837,2.2262 -0.31227,0.6451 -0.72854,1.1726 -0.92449,1.1726 -0.19595,0 -1.06325,-0.8632 -1.92753,-1.9183 -0.86428,-1.055 -1.82448,-2.1448 -2.13372,-2.422 -0.734,-0.658 -0.71112,-0.9397 0.20102,-2.4867 0.41972,-0.7119 0.84421,-1.5508 0.94361,-1.864 0.0994,-0.3132 0.29414,-0.5695 0.43253,-0.5695 z m 15.16755,9.5643 c 0.0114,-6e-4 0.0214,0 0.03,0.012 0.24924,0.2492 -2.33954,7.0543 -4.3589,11.4582 -1.5592,3.4003 -1.5174,3.3067 -2.14044,4.8101 -0.58855,1.4203 -1.582,2.6286 -1.572,1.912 0.009,-0.6581 3.08685,-7.7512 6.5257,-15.0399 0.51064,-1.0823 1.03951,-2.2597 1.17512,-2.6164 0.11867,-0.3121 0.26094,-0.5317 0.34055,-0.5359 z"
         sodipodi:nodetypes="csssssssssssssssssssssssssssssssssccssssssccsssssssssssssssssssssscccssssssssssssscssssssssscccsssssssssssssssssssssssssssssscssssssssssssscsssssssssssssssssssssccsscsssssssssssssssssssssssssssccccssssssssssssssssssssccssssssssssssssssscsssssssssccssssssssssssccssssccsccssssssssscsssssssccccssssccsssssssssssssssssssssssssssssccssssssccsssssssssccsscccsssssscssssssccsscssssssssssssssssssssssssssscccssscssssssssscssssssscssscsssssscssssssssssscccsssssssssssssssssssssssscssssssscsssssssccssscssssssscccsscccsssssssscssssssccssssssssssssssssccssscsssssssssssscssssssssssccsssssscsssssssssscccsssssssssssssssscccssscsssscssssssssssssssssssssssscccssssssssssssscsssssss" /></g><g
       id="g9"
       transform="translate(290.92826,181.5051)"><circle
         style="display:inline;fill:#ffffff;fill-opacity:1;stroke:none;stroke-width:6.00798;stroke-linecap:round;stroke-linejoin:round"
         id="path3-4-6-2-9"
         cx="-155.32648"
         cy="409.95718"
         r="135.46666" /><path
         id="path5"
         style="baseline-shift:baseline;display:inline;overflow:visible;opacity:1;vector-effect:none;fill:#000000;fill-opacity:1;stroke-linecap:round;stroke-linejoin:round;enable-background:accumulate;stop-color:#000000;stop-opacity:1"
         d="m -148.12843,283.7093 c -0.10098,-0.004 -0.18453,0.0129 -0.24804,0.0527 -0.52287,0.32743 -0.45025,0.88987 0.36432,2.83083 1.17129,2.79082 1.4987,3.91347 1.87223,6.4177 0.68827,4.61461 0.36001,8.28898 -1.13119,12.66279 -1.68577,4.9444 -4.31551,9.02463 -8.83977,13.71493 -2.02876,2.1032 -4.27015,4.05405 -8.74572,7.61142 -1.87515,1.4904 -3.79191,3.06736 -4.25969,3.50469 l -0.8506,0.7953 -2.90835,0.19482 c -2.85872,0.19156 -2.91438,0.18884 -3.23287,-0.17259 -0.71881,-0.81571 0.1429,-3.11181 2.0531,-5.47047 0.63564,-0.78488 1.156,-1.50335 1.156,-1.5968 0,-0.27653 -0.61521,-0.35577 -1.49035,-0.19224 -3.37082,0.62976 -8.78103,4.31339 -11.27424,7.67653 -0.8169,1.10195 -0.97971,1.226 -2.40451,1.83607 -2.34013,1.00196 -4.17974,1.9556 -5.78827,3.00033 -1.69232,1.09915 -2.07335,1.12897 -2.51148,0.19637 -0.67992,-1.44734 -0.60239,-2.44167 0.49661,-6.38979 0.17684,-0.63515 -0.45644,-0.49344 -1.61695,0.36174 -3.02687,2.23064 -5.14453,5.83067 -6.44612,10.95902 -0.2659,1.04768 -0.41665,1.27284 -1.9327,2.88458 -1.37303,1.45971 -1.69361,1.7182 -1.93942,1.56372 -0.39791,-0.25008 -0.72108,-1.24682 -0.91725,-2.82721 -0.0896,-0.72199 -0.23487,-1.38413 -0.32246,-1.47175 -0.26334,-0.26323 -0.96225,0.42689 -1.68724,1.66657 -0.37188,0.63587 -0.76572,1.15652 -0.8754,1.15652 -0.3848,0 -2.1252,-1.26012 -3.21789,-2.32958 -2.94484,-2.88225 -4.73368,-6.14436 -5.54953,-10.11979 -0.24121,-1.1752 -0.27881,-2.01428 -0.19792,-4.42247 0.10858,-3.23325 0.36283,-4.52997 1.64537,-8.39226 0.60553,-1.82357 3.67182,-8.16152 4.92529,-10.18025 0.32139,-0.5177 0.54298,-1.08663 0.51107,-1.31155 -0.18611,-1.31142 -3.02317,0.44484 -6.70036,4.14755 -3.0738,3.09524 -4.56331,4.86158 -6.3407,7.51892 -3.5242,5.26888 -5.66603,10.6826 -6.43268,16.25999 -0.21664,1.57637 -0.26558,2.85896 -0.19741,5.15782 0.10592,3.57455 0.37678,5.18552 1.36116,8.09925 1.68544,4.9889 4.53887,9.25255 9.24595,13.8157 l 1.95543,1.89549 -0.10697,0.8139 c -0.0588,0.44782 -0.17687,1.57397 -0.26199,2.50269 -0.0851,0.92879 -0.24877,1.86498 -0.36381,2.07998 -0.38161,0.71306 -1.60799,1.91358 -1.9544,1.91358 -0.4247,0 -5.50984,-1.26733 -6.6952,-1.66864 -0.48079,-0.16282 -1.58247,-0.60812 -2.44791,-0.9896 -0.86545,-0.38148 -1.95516,-0.82243 -2.42156,-0.97978 -0.81186,-0.27387 -0.85818,-0.2716 -1.09244,0.0491 -0.512,0.7002 -0.10142,2.03299 1.10949,3.60081 0.36086,0.46723 0.92956,1.22625 1.26349,1.68672 0.33397,0.46041 1.97584,2.55139 3.64888,4.64675 3.28228,4.11086 4.25875,5.05823 7.19594,6.98251 2.52714,1.65558 2.82698,2.32271 2.11615,4.70618 -0.48336,1.62065 -0.56743,2.46103 -0.35088,3.50469 0.38551,1.85829 1.39013,2.99107 4.35374,4.90823 3.2354,2.09299 3.58125,2.9978 5.51439,14.42186 0.0853,0.50411 0.0511,0.56799 -0.30489,0.56741 -1.20046,0 -4.3689,-3.00604 -6.01927,-5.70715 -0.3678,-0.60187 -0.50154,-0.038 -0.47646,2.00866 0.039,3.193 1.09167,6.36187 2.913,8.76949 0.68152,0.90104 0.7238,1.02362 0.67179,1.94666 -0.0757,1.34283 0.23772,1.86735 1.80816,3.02875 0.8397,0.62099 1.34641,1.12669 1.41904,1.41594 0.14122,0.56269 0.0191,2.42403 -0.36639,5.58518 -0.37079,3.04004 -0.29471,7.3838 0.16433,9.35344 0.36604,1.57048 1.72006,4.54597 2.06861,4.54597 0.17,0 0.33842,-0.4731 0.54467,-1.53013 0.29207,-1.49679 1.22754,-3.73188 1.6092,-3.84473 0.12188,-0.0359 0.23225,0.44115 0.30179,1.30431 0.23456,2.91072 1.75319,6.91295 3.47524,9.15862 1.70786,2.22712 3.14678,3.67653 3.39928,3.42408 0.0456,-0.0453 0.15857,-0.62228 0.25063,-1.28158 0.31602,-2.26349 1.31437,-4.64156 2.95383,-7.03523 1.00133,-1.46201 3.0142,-3.89427 3.31349,-4.00389 0.0744,-0.0273 0.18832,0.70573 0.25321,1.62884 0.0649,0.92318 0.19733,2.04719 0.29404,2.49804 0.2118,0.98766 1.23572,2.89644 1.59112,2.96623 0.17275,0.0338 0.35536,-0.27032 0.56792,-0.94465 0.3979,-1.26232 1.45869,-3.03852 2.86649,-4.7997 1.64858,-2.06236 4.28154,-4.32543 7.69824,-6.61717 2.03109,-1.36231 2.62269,-1.65536 2.89182,-1.43195 0.31345,0.26007 1.7849,3.10867 2.13217,4.12739 0.97878,2.87147 1.57868,7.82535 1.41851,11.71402 l -0.0935,2.27273 -0.93018,0.86041 c -0.51185,0.47299 -1.83558,1.61089 -2.94142,2.52904 -2.04012,1.6939 -4.19657,3.55959 -8.30957,7.18819 -1.25347,1.10591 -2.78603,2.4436 -3.40548,2.97243 -6.38088,5.44773 -10.94201,10.57878 -13.90922,15.64711 l -1.20148,2.05207 -1.08727,-0.11162 c -2.07018,-0.21212 -3.52058,-0.97592 -4.0995,-2.15853 -0.20007,-0.40864 -0.43254,-0.74259 -0.51676,-0.74259 -0.56406,0 -0.87738,2.97392 -0.52607,4.99143 0.27797,1.59607 1.1639,3.45279 2.18798,4.58422 l 0.83406,0.92139 -0.45165,1.43867 c -1.33778,4.26311 -1.68461,6.27356 -1.80299,10.44329 -0.12449,4.38666 0.39383,7.88051 1.86242,12.32948 -37.8946,-19.4295 -63.84727,-59.16749 -63.84727,-105.10056 0,-35.83853 13.443,-65.89818 38.38629,-87.49027 3.07546,-5.18816 5.78398,-9.7646 8.85011,-12.38064 9.51512,-8.11836 15.63912,-8.53251 16.31786,-7.85378 0.4675,0.4675 0.26007,1.58569 -0.21962,2.88923 15.95514,-8.28126 34.05059,-12.95322 53.23189,-12.95322 1.02951,0 2.05579,0.013 3.07888,0.0398 -0.64771,-2.54134 -1.71875,-5.35105 -2.81636,-7.89305 -0.0876,-1.9e-4 -0.17489,-5.2e-4 -0.26252,-5.2e-4 -68.69117,0 -124.42238,56.31941 -124.42238,125.64246 0,69.32305 55.73121,125.64298 124.42238,125.64298 68.69117,0 124.421863,-56.31993 124.421863,-125.64298 0,-62.65562 -45.526135,-114.6886 -104.999793,-124.11801 1.62334,2.95776 3.22506,6.13051 4.54494,8.81704 52.895997,11.1525 92.599002,58.48768 92.599002,115.30097 0,15.72656 -3.042181,30.72683 -8.564335,44.4345 -0.332856,-0.93587 -1.168073,-2.51571 -1.985925,-3.6189 -1.02134,-1.37769 -3.289126,-3.55906 -4.683436,-4.50567 -2.43018,-1.64984 -6.169567,-3.20744 -9.336897,-3.88917 -1.52056,-0.32728 -2.416884,-0.38949 -6.122624,-0.42478 l -4.341337,-0.0408 -1.33997,-1.10639 c -0.73701,-0.60841 -2.16628,-1.76799 -3.17655,-2.57659 -2.0089,-1.608 -2.346321,-1.94177 -2.756421,-2.72593 -0.80532,-1.53957 0.421529,-5.81092 2.588989,-9.0134 1.10949,-1.63927 3.332816,-3.5717 5.199166,-4.5191 0.41207,-0.20925 0.705497,-0.45111 0.652157,-0.53744 -0.0533,-0.0863 -0.697014,-0.29055 -1.430404,-0.45372 -1.61295,-0.35883 -5.491749,-0.26275 -7.576799,0.18759 -3.38341,0.73068 -7.602329,2.80451 -10.489799,5.15627 -0.43272,0.35244 -0.882385,0.69651 -0.998905,0.7643 -0.46274,0.26934 -10.125002,-8.45314 -10.498582,-9.47746 -0.0247,-0.0683 0.56263,-0.3165 1.30534,-0.55191 2.29921,-0.72903 5.121656,-2.31872 5.121656,-2.88457 0,-0.29968 -0.576007,-0.50418 -3.227706,-1.14515 -5.83611,-1.41076 -8.46463,-2.66286 -11.34867,-5.40588 -1.67479,-1.5929 -4.13101,-4.89296 -4.13101,-5.55004 0,-0.0993 0.47469,-0.2341 1.05523,-0.29973 1.09254,-0.12364 3.28001,-0.77206 4.24781,-1.25935 0.75848,-0.38198 1.69033,-1.29397 1.69033,-1.65417 0,-0.22361 -0.31184,-0.37125 -1.26762,-0.60048 -4.53228,-1.08707 -8.17736,-3.10309 -10.76007,-5.95105 -2.00929,-2.21576 -4.36596,-6.09561 -6.36912,-10.48515 -0.26187,-0.57384 -0.87475,-1.90351 -1.36167,-2.95486 -0.48692,-1.05127 -0.85194,-1.99794 -0.81132,-2.10375 0.0404,-0.10574 0.76669,-0.62258 1.61385,-1.14825 3.04848,-1.89193 6.18684,-5.42016 7.67705,-8.63048 1.29882,-2.79793 1.42123,-3.10763 2.52802,-6.39961 0.59807,-1.77901 1.4068,-4.06084 1.7973,-5.07049 1.38409,-3.57922 3.68153,-7.55623 6.02289,-10.42727 0.55997,-0.68662 1.50996,-1.85207 2.11098,-2.58951 0.85889,-1.05386 1.09244,-1.4666 1.09244,-1.92959 0,-0.92059 -0.4064,-1.20076 -1.56373,-1.07849 -1.47197,0.15548 -6.60388,1.87883 -10.46447,3.51451 -5.34039,2.26263 -6.94994,3.00383 -13.02402,5.99757 -2.58513,1.27418 -4.79932,2.31665 -4.92063,2.31665 -0.12132,0 -0.36627,-0.32277 -0.54415,-0.71726 -0.96529,-2.14072 -4.17478,-5.39008 -7.40833,-7.50032 -1.25238,-0.8173 -2.27932,-1.57778 -2.28203,-1.69034 -0.005,-0.1125 0.57559,-0.98113 1.28519,-1.93011 1.86987,-2.50064 4.80204,-6.99813 6.06216,-9.29763 3.4205,-6.2418 5.06119,-12.44122 5.06119,-19.12854 0,-5.00536 -0.7138,-8.89421 -2.4939,-13.58832 -1.10451,-2.91273 -3.58989,-7.07586 -5.63428,-9.43819 -1.97937,-2.28718 -4.58942,-4.28057 -5.56556,-4.3186 z m -28.58688,88.41682 c 0.66782,0.0154 0.55776,0.32106 0.23151,1.70481 -0.84469,3.58253 -2.72369,6.05643 -5.6472,7.4352 -1.48148,0.69869 -1.57428,0.71822 -3.61839,0.76947 -1.43724,0.0359 -2.3797,-0.0261 -2.99154,-0.19793 -1.51316,-0.42519 -2.95079,-1.06649 -2.9838,-1.33066 -0.0299,-0.23929 3.5903,-3.71131 5.45083,-5.22759 1.93945,-1.58061 5.54232,-2.87819 8.61033,-3.1011 0.4163,-0.0302 0.72566,-0.0573 0.94826,-0.0522 z m -40.97424,10.73475 c 0.5364,-0.005 2.00659,0.50061 3.59202,1.2516 2.65824,1.25916 3.76328,2.23367 3.54036,3.12177 -0.16349,0.6514 -0.97626,1.51489 -1.76062,1.87121 -0.75439,0.34273 -1.14537,0.37777 -1.84381,0.16536 -2.14248,-0.65175 -3.62995,-2.63946 -3.80494,-5.08496 -0.0533,-0.74563 -0.0145,-1.21598 0.10645,-1.29088 0.0361,-0.0223 0.0939,-0.0334 0.17054,-0.0341 z m 34.37051,16.01452 c 0.54386,0 1.87874,2.03031 3.67884,5.59501 1.90973,3.78192 2.61252,5.98764 2.22829,6.99492 -0.2706,0.70955 -1.56366,1.91765 -2.53835,2.37144 -1.64207,0.76461 -4.15332,0.42546 -5.54953,-0.74931 -0.71582,-0.60237 -2.17935,-0.89553 -5.14542,-1.03095 -5.21201,-0.238 -11.24911,1.14259 -16.12615,3.68815 -1.19994,0.62638 -2.20992,1.13895 -2.24431,1.13895 -0.0342,0 -0.14387,-0.15194 -0.24339,-0.33797 -0.32395,-0.60525 -0.20062,-1.14831 0.38705,-1.70273 1.08913,-1.02763 3.94618,-2.61825 6.33812,-3.52899 2.48087,-0.94467 9.01177,-2.64738 10.15442,-2.64738 0.96244,0 3.1659,0.49194 4.83071,1.079 0.83752,0.29536 1.64404,0.49094 1.79214,0.43408 0.19362,-0.0743 0.26923,-0.353 0.26923,-0.99218 0,-1.31256 1.21955,-8.03445 1.76785,-9.74359 0.10027,-0.31247 0.28046,-0.56845 0.4005,-0.56845 z m -107.64563,6.25492 c -0.0657,1.72676 -0.0987,3.45462 -0.0987,5.18263 l 5.2e-4,0.23978 c 0.003,-1.79042 0.0355,-3.59843 0.0982,-5.42241 z m 179.30792,43.22837 c 0.70822,-0.01 0.22186,0.28856 -1.66915,0.86713 -0.98428,0.30125 -2.02561,0.65305 -2.31407,0.78186 -0.28847,0.12875 -1.84753,0.75713 -3.4649,1.3963 -3.25079,1.2846 -5.10029,2.13088 -9.91981,4.54029 -3.01989,1.50974 -9.32284,5.10159 -11.52953,6.57014 -2.99172,1.99085 -3.73885,2.52244 -8.82944,6.28489 -5.52632,4.0844 -10.97879,8.89618 -15.17943,13.39557 -5.42533,5.81115 -9.23485,10.79742 -12.88345,16.86253 -0.89665,1.49047 -1.72783,2.82765 -1.84744,2.97192 -0.11956,0.1442 -0.62271,1.04908 -1.11827,2.01072 -0.49562,0.96157 -0.96985,1.86647 -1.05369,2.01073 -0.30581,0.52596 -1.39888,2.99036 -1.39888,3.15382 0,0.0925 -0.0785,0.16795 -0.17466,0.16795 -0.0961,0 -0.17519,-0.12162 -0.17519,-0.27027 0,-0.28098 0.43834,-1.71151 1.58337,-5.17126 1.19229,-3.60244 4.6337,-10.82853 6.85901,-14.40222 2.48761,-3.99498 5.48539,-8.18987 8.02639,-11.23084 1.71954,-2.05791 6.91458,-7.34723 8.96999,-9.13278 5.02172,-4.36238 11.79153,-8.8269 18.00872,-11.87679 3.65311,-1.79216 3.70681,-1.81662 8.08581,-3.61374 4.28861,-1.76011 9.98944,-3.41037 16.30392,-4.72064 1.89667,-0.39354 3.16987,-0.58771 3.7207,-0.59531 z m 55.330989,3.97185 c 2.414542,-0.0507 4.62972,0.57506 7.524605,2.08514 0.486464,0.25381 0.932602,0.4796 1.216464,0.61702 -0.952521,2.32492 -1.976811,4.61221 -3.06958,6.85901 -1.719214,-1.06445 -4.048285,-2.56095 -7.438823,-6.18773 -1.1199,-1.19798 -2.036051,-2.27101 -2.036051,-2.38487 0,-0.3303 1.377487,-0.79342 2.753837,-0.92604 0.355636,-0.0343 0.704613,-0.0553 1.049548,-0.0625 z m -118.619119,7.5892 c 0.0223,2.5e-4 0.0397,0.008 0.0532,0.0212 0.0587,0.0589 -0.82134,1.90143 -1.95544,4.09484 -4.96486,9.60207 -5.86536,11.6214 -7.78402,17.4501 -0.98922,3.00524 -2.44193,8.79554 -2.85099,11.36468 -0.75492,4.74148 -1.13661,11.97585 -0.85679,16.23105 0.14383,2.18686 0.0526,2.82422 -0.28629,2.00556 -0.32305,-0.78042 -1.03392,-4.63265 -1.41335,-7.65896 -0.33487,-2.67135 -0.37163,-3.61434 -0.29197,-7.43056 0.1225,-5.8678 0.63403,-9.19437 2.25981,-14.68644 0.28466,-0.96164 0.5973,-2.02351 0.69453,-2.36006 0.0972,-0.33655 0.23394,-0.69085 0.30386,-0.78703 0.0699,-0.0962 0.38728,-0.84352 0.70486,-1.66089 1.82004,-4.68434 5.07935,-9.82471 9.02116,-14.22755 1.5385,-1.71842 2.18611,-2.35841 2.4014,-2.35593 z" /></g></g></svg>
